<svg xmlns="http://www.w3.org/2000/svg" xmlns:xlink="http://www.w3.org/1999/xlink" width="820" height="312.683" viewBox="0 0 820 312.683">
  <defs>
    <clipPath id="clip-path">
      <rect id="Rect치ngulo_381393" data-name="Rect치ngulo 381393" width="820" height="312.683" fill="none"/>
    </clipPath>
  </defs>
  <g id="Grupo_1083495" data-name="Grupo 1083495" transform="translate(-390 -2017.518)">
    <g id="Grupo_1083458" data-name="Grupo 1083458" transform="translate(390 2017.518)">
      <rect id="Rect치ngulo_381392" data-name="Rect치ngulo 381392" width="820" height="312.683" fill="#ecf7e6"/>
      <path id="Trazado_843410" data-name="Trazado 843410" d="M7.719-5.453H2.4V-.812H8.516V0H1.438V-11.375H8.477v.813H2.4v4.3h5.32ZM11.367,0H10.43V-12h.938ZM19.25-10.617v2.164H21v.766H19.25v5.639A1.765,1.765,0,0,0,19.5-1a.984.984,0,0,0,.848.344,5.816,5.816,0,0,0,.758-.078l.039.759a3.056,3.056,0,0,1-1,.132A1.667,1.667,0,0,1,18.75-.4a2.63,2.63,0,0,1-.437-1.645V-7.687H16.758v-.766h1.555v-2.164ZM23.969,0h-.937V-8.453h.938Zm.484-11.906h1.133l-1.8,2.188-.82,0Zm3.5,1.289v2.164H29.7v.766h-1.75v5.639A1.765,1.765,0,0,0,28.207-1a.984.984,0,0,0,.848.344,5.816,5.816,0,0,0,.758-.078l.039.759a3.056,3.056,0,0,1-1,.132,1.667,1.667,0,0,1-1.4-.559,2.63,2.63,0,0,1-.437-1.645V-7.687H25.461v-.766h1.555v-2.164ZM37.078-1.07a3.038,3.038,0,0,1-2.7,1.227,2.615,2.615,0,0,1-2.055-.785,3.439,3.439,0,0,1-.719-2.324v-5.5h.93V-3.07q0,2.414,1.953,2.414a2.394,2.394,0,0,0,2.57-1.68V-8.453H38V0h-.906ZM41.477,0h-.937V-12h.938ZM43.5-4.352a4.974,4.974,0,0,1,.473-2.2,3.6,3.6,0,0,1,1.336-1.52,3.6,3.6,0,0,1,1.957-.543A3.477,3.477,0,0,1,50-7.426a4.561,4.561,0,0,1,1.047,3.137v.2a5.018,5.018,0,0,1-.473,2.207A3.529,3.529,0,0,1,49.242-.375a3.652,3.652,0,0,1-1.961.531,3.48,3.48,0,0,1-2.73-1.184A4.55,4.55,0,0,1,43.5-4.164Zm.938.258a3.836,3.836,0,0,0,.785,2.488,2.518,2.518,0,0,0,2.059.973,2.51,2.51,0,0,0,2.051-.973,3.962,3.962,0,0,0,.785-2.566v-.18a4.3,4.3,0,0,0-.359-1.773A2.888,2.888,0,0,0,48.75-7.371a2.575,2.575,0,0,0-1.484-.441,2.5,2.5,0,0,0-2.039.98,3.968,3.968,0,0,0-.789,2.566ZM56.492-4.3a5.1,5.1,0,0,1,.879-3.137,2.829,2.829,0,0,1,2.387-1.168,2.94,2.94,0,0,1,2.609,1.352V-12h.93V0h-.875l-.039-1.125A3.019,3.019,0,0,1,59.742.156,2.819,2.819,0,0,1,57.387-1.02,5.121,5.121,0,0,1,56.492-4.2Zm.945.164a4.408,4.408,0,0,0,.648,2.551,2.1,2.1,0,0,0,1.828.934A2.516,2.516,0,0,0,62.367-2.18V-6.148A2.5,2.5,0,0,0,59.93-7.8a2.122,2.122,0,0,0-1.836.926A4.711,4.711,0,0,0,57.438-4.141ZM69.031.156a3.67,3.67,0,0,1-1.949-.531,3.62,3.62,0,0,1-1.355-1.48,4.616,4.616,0,0,1-.484-2.129V-4.32a4.974,4.974,0,0,1,.473-2.2,3.76,3.76,0,0,1,1.316-1.535,3.248,3.248,0,0,1,1.828-.559A3.052,3.052,0,0,1,71.3-7.559a4.262,4.262,0,0,1,.9,2.871v.523H66.172v.18A3.539,3.539,0,0,0,67-1.59a2.622,2.622,0,0,0,2.074.957,3.046,3.046,0,0,0,1.324-.273,2.937,2.937,0,0,0,1.043-.875l.586.445A3.411,3.411,0,0,1,69.031.156Zm-.172-7.969a2.337,2.337,0,0,0-1.777.773A3.573,3.573,0,0,0,66.2-4.961h5.07v-.1a3.1,3.1,0,0,0-.7-1.984A2.155,2.155,0,0,0,68.859-7.812ZM80.828-4.141A5.091,5.091,0,0,1,79.953-1,2.794,2.794,0,0,1,77.6.156,3.038,3.038,0,0,1,74.93-1.156L74.891,0h-.875V-12h.93v4.773a2.938,2.938,0,0,1,2.641-1.383,2.82,2.82,0,0,1,2.371,1.145,5.151,5.151,0,0,1,.871,3.184ZM79.891-4.3a4.4,4.4,0,0,0-.648-2.582,2.114,2.114,0,0,0-1.828-.91,2.573,2.573,0,0,0-1.523.441,2.684,2.684,0,0,0-.945,1.293V-2.25A2.5,2.5,0,0,0,77.43-.656a2.1,2.1,0,0,0,1.809-.914A4.707,4.707,0,0,0,79.891-4.3ZM86.164.156a3.67,3.67,0,0,1-1.949-.531,3.62,3.62,0,0,1-1.355-1.48,4.616,4.616,0,0,1-.484-2.129V-4.32a4.974,4.974,0,0,1,.473-2.2,3.76,3.76,0,0,1,1.316-1.535,3.248,3.248,0,0,1,1.828-.559,3.052,3.052,0,0,1,2.441,1.051,4.262,4.262,0,0,1,.9,2.871v.523H83.3v.18a3.539,3.539,0,0,0,.824,2.395A2.622,2.622,0,0,0,86.2-.633a3.046,3.046,0,0,0,1.324-.273,2.937,2.937,0,0,0,1.043-.875l.586.445A3.411,3.411,0,0,1,86.164.156Zm-.172-7.969a2.337,2.337,0,0,0-1.777.773,3.573,3.573,0,0,0-.879,2.078h5.07v-.1a3.1,3.1,0,0,0-.7-1.984A2.155,2.155,0,0,0,85.992-7.812Zm14.117,5.664a1.332,1.332,0,0,0-.559-1.117,4.308,4.308,0,0,0-1.684-.66,7.6,7.6,0,0,1-1.746-.547,2.326,2.326,0,0,1-.922-.754A1.881,1.881,0,0,1,94.9-6.3a2.011,2.011,0,0,1,.836-1.652,3.377,3.377,0,0,1,2.141-.652,3.475,3.475,0,0,1,2.27.7A2.244,2.244,0,0,1,101-6.086h-.937a1.514,1.514,0,0,0-.621-1.234,2.444,2.444,0,0,0-1.566-.492,2.445,2.445,0,0,0-1.48.41,1.266,1.266,0,0,0-.559,1.066,1.153,1.153,0,0,0,.465.98,4.917,4.917,0,0,0,1.7.637A7.968,7.968,0,0,1,99.84-4.1a2.388,2.388,0,0,1,.91.789,2.02,2.02,0,0,1,.3,1.117,2.025,2.025,0,0,1-.863,1.711A3.688,3.688,0,0,1,97.93.156a3.786,3.786,0,0,1-2.395-.715,2.2,2.2,0,0,1-.918-1.809h.938a1.626,1.626,0,0,0,.691,1.277,2.826,2.826,0,0,0,1.684.457,2.657,2.657,0,0,0,1.578-.43A1.29,1.29,0,0,0,100.109-2.148Zm6.313,2.3a3.67,3.67,0,0,1-1.949-.531,3.62,3.62,0,0,1-1.355-1.48,4.616,4.616,0,0,1-.484-2.129V-4.32a4.974,4.974,0,0,1,.473-2.2,3.76,3.76,0,0,1,1.316-1.535,3.248,3.248,0,0,1,1.828-.559,3.052,3.052,0,0,1,2.441,1.051,4.262,4.262,0,0,1,.9,2.871v.523h-6.031v.18a3.539,3.539,0,0,0,.824,2.395,2.622,2.622,0,0,0,2.074.957,3.046,3.046,0,0,0,1.324-.273,2.937,2.937,0,0,0,1.043-.875l.586.445A3.411,3.411,0,0,1,106.422.156Zm-.172-7.969a2.337,2.337,0,0,0-1.777.773,3.573,3.573,0,0,0-.879,2.078h5.07v-.1a3.1,3.1,0,0,0-.7-1.984A2.155,2.155,0,0,0,106.25-7.812Zm9.07.156a3.492,3.492,0,0,0-.633-.055,2.283,2.283,0,0,0-1.48.488,2.674,2.674,0,0,0-.863,1.418V0h-.93V-8.453h.914l.016,1.344a2.486,2.486,0,0,1,2.383-1.5,1.538,1.538,0,0,1,.617.1Zm8.492,7.023a2.469,2.469,0,0,0,1.637-.551,1.938,1.938,0,0,0,.715-1.426h.9a2.647,2.647,0,0,1-.484,1.41,3.035,3.035,0,0,1-1.184,1,3.567,3.567,0,0,1-1.582.359A3.266,3.266,0,0,1,121.176-1a4.674,4.674,0,0,1-.973-3.109v-.281a5.284,5.284,0,0,1,.438-2.211,3.371,3.371,0,0,1,1.254-1.484,3.461,3.461,0,0,1,1.91-.523,3.26,3.26,0,0,1,2.293.828,3.02,3.02,0,0,1,.965,2.18h-.9a2.3,2.3,0,0,0-.715-1.6,2.315,2.315,0,0,0-1.645-.609,2.331,2.331,0,0,0-1.965.914,4.136,4.136,0,0,0-.7,2.563v.273a4.043,4.043,0,0,0,.7,2.523A2.347,2.347,0,0,0,123.813-.633ZM129.977,0h-.937V-12h.938Zm7.875,0a4.421,4.421,0,0,1-.18-1.18,3.26,3.26,0,0,1-1.254.988A3.84,3.84,0,0,1,134.8.156a2.834,2.834,0,0,1-1.973-.68,2.214,2.214,0,0,1-.754-1.719A2.262,2.262,0,0,1,133.105-4.2a4.936,4.936,0,0,1,2.863-.719h1.7v-.961a1.852,1.852,0,0,0-.559-1.426,2.309,2.309,0,0,0-1.629-.52,2.549,2.549,0,0,0-1.617.5,1.486,1.486,0,0,0-.641,1.2l-.937-.008a2.174,2.174,0,0,1,.938-1.746,3.61,3.61,0,0,1,2.3-.738,3.293,3.293,0,0,1,2.23.707,2.537,2.537,0,0,1,.84,1.973v4a4.961,4.961,0,0,0,.258,1.836V0Zm-2.937-.672a3.139,3.139,0,0,0,1.676-.453,2.666,2.666,0,0,0,1.074-1.211V-4.2h-1.672a4.189,4.189,0,0,0-2.187.512,1.536,1.536,0,0,0-.789,1.363,1.511,1.511,0,0,0,.527,1.18A1.987,1.987,0,0,0,134.914-.672Zm10.078-6.984a3.492,3.492,0,0,0-.633-.055,2.283,2.283,0,0,0-1.48.488,2.674,2.674,0,0,0-.863,1.418V0h-.93V-8.453H142l.016,1.344a2.486,2.486,0,0,1,2.383-1.5,1.538,1.538,0,0,1,.617.1Zm.661,3.3a4.974,4.974,0,0,1,.473-2.2,3.6,3.6,0,0,1,1.336-1.52,3.6,3.6,0,0,1,1.957-.543,3.477,3.477,0,0,1,2.734,1.184A4.561,4.561,0,0,1,153.2-4.289v.2a5.018,5.018,0,0,1-.473,2.207A3.529,3.529,0,0,1,151.4-.375a3.652,3.652,0,0,1-1.961.531,3.48,3.48,0,0,1-2.73-1.184,4.55,4.55,0,0,1-1.051-3.137Zm.938.258a3.836,3.836,0,0,0,.785,2.488,2.518,2.518,0,0,0,2.059.973,2.51,2.51,0,0,0,2.051-.973,3.962,3.962,0,0,0,.785-2.566v-.18a4.3,4.3,0,0,0-.359-1.773A2.888,2.888,0,0,0,150.9-7.371a2.575,2.575,0,0,0-1.484-.441,2.5,2.5,0,0,0-2.039.98,3.968,3.968,0,0,0-.789,2.566Zm8.344,6.219-.555-.406a3.4,3.4,0,0,0,.734-1.977V-1.469h.914v.977A3.364,3.364,0,0,1,154.934,2.125ZM165.208-.633a2.469,2.469,0,0,0,1.637-.551,1.938,1.938,0,0,0,.715-1.426h.9a2.647,2.647,0,0,1-.484,1.41,3.035,3.035,0,0,1-1.184,1,3.567,3.567,0,0,1-1.582.359A3.266,3.266,0,0,1,162.571-1a4.674,4.674,0,0,1-.973-3.109v-.281a5.284,5.284,0,0,1,.438-2.211,3.372,3.372,0,0,1,1.254-1.484,3.461,3.461,0,0,1,1.91-.523,3.26,3.26,0,0,1,2.293.828,3.02,3.02,0,0,1,.965,2.18h-.9a2.3,2.3,0,0,0-.715-1.6,2.315,2.315,0,0,0-1.645-.609,2.331,2.331,0,0,0-1.965.914,4.136,4.136,0,0,0-.7,2.563v.273a4.043,4.043,0,0,0,.7,2.523A2.347,2.347,0,0,0,165.208-.633Zm4.6-3.719a4.974,4.974,0,0,1,.473-2.2,3.6,3.6,0,0,1,1.336-1.52,3.6,3.6,0,0,1,1.957-.543,3.477,3.477,0,0,1,2.734,1.184,4.561,4.561,0,0,1,1.047,3.137v.2a5.018,5.018,0,0,1-.473,2.207,3.529,3.529,0,0,1-1.332,1.512,3.652,3.652,0,0,1-1.961.531,3.48,3.48,0,0,1-2.73-1.184,4.55,4.55,0,0,1-1.051-3.137Zm.938.258a3.836,3.836,0,0,0,.785,2.488,2.518,2.518,0,0,0,2.059.973,2.51,2.51,0,0,0,2.051-.973,3.962,3.962,0,0,0,.785-2.566v-.18a4.3,4.3,0,0,0-.359-1.773,2.888,2.888,0,0,0-1.008-1.246,2.575,2.575,0,0,0-1.484-.441,2.5,2.5,0,0,0-2.039.98,3.968,3.968,0,0,0-.789,2.566Zm12.445-3.562a3.492,3.492,0,0,0-.633-.055,2.283,2.283,0,0,0-1.48.488,2.674,2.674,0,0,0-.863,1.418V0h-.93V-8.453h.914l.016,1.344a2.486,2.486,0,0,1,2.383-1.5,1.538,1.538,0,0,1,.617.1Zm3.72-2.961v2.164h1.75v.766h-1.75v5.639A1.765,1.765,0,0,0,187.166-1a.984.984,0,0,0,.848.344,5.816,5.816,0,0,0,.758-.078l.039.759a3.056,3.056,0,0,1-1,.132,1.667,1.667,0,0,1-1.4-.559,2.629,2.629,0,0,1-.437-1.645V-7.687H184.42v-.766h1.555v-2.164Zm2.872,6.266a4.974,4.974,0,0,1,.473-2.2,3.6,3.6,0,0,1,1.336-1.52,3.6,3.6,0,0,1,1.957-.543,3.477,3.477,0,0,1,2.734,1.184,4.561,4.561,0,0,1,1.047,3.137v.2a5.018,5.018,0,0,1-.473,2.207,3.529,3.529,0,0,1-1.332,1.512,3.652,3.652,0,0,1-1.961.531,3.48,3.48,0,0,1-2.73-1.184,4.55,4.55,0,0,1-1.051-3.137Zm.938.258a3.836,3.836,0,0,0,.785,2.488,2.518,2.518,0,0,0,2.059.973,2.51,2.51,0,0,0,2.051-.973,3.962,3.962,0,0,0,.785-2.566v-.18a4.3,4.3,0,0,0-.359-1.773,2.888,2.888,0,0,0-1.008-1.246,2.575,2.575,0,0,0-1.484-.441,2.5,2.5,0,0,0-2.039.98,3.968,3.968,0,0,0-.789,2.566Zm15.109,2.75L208.3-8.453h1.008L205.7,1.438l-.187.438a2.27,2.27,0,0,1-2.148,1.539,2.622,2.622,0,0,1-.719-.109l-.008-.773.484.047a1.731,1.731,0,0,0,1.113-.34,2.579,2.579,0,0,0,.723-1.168L205.37-.07l-3.187-8.383h1.023Zm15.609-2.8A5.091,5.091,0,0,1,220.565-1a2.787,2.787,0,0,1-2.344,1.16,3.129,3.129,0,0,1-2.656-1.219V3.25h-.93v-11.7h.867l.047,1.2A3,3,0,0,1,218.2-8.609a2.812,2.812,0,0,1,2.379,1.148,5.2,5.2,0,0,1,.863,3.188ZM220.5-4.3a4.348,4.348,0,0,0-.664-2.555,2.141,2.141,0,0,0-1.852-.937,2.588,2.588,0,0,0-1.477.414,2.6,2.6,0,0,0-.945,1.2v4.055a2.482,2.482,0,0,0,.961,1.109A2.771,2.771,0,0,0,218-.633a2.121,2.121,0,0,0,1.84-.941A4.734,4.734,0,0,0,220.5-4.3Zm6.914-3.352a3.492,3.492,0,0,0-.633-.055,2.283,2.283,0,0,0-1.48.488A2.674,2.674,0,0,0,224.44-5.8V0h-.93V-8.453h.914l.016,1.344a2.486,2.486,0,0,1,2.383-1.5,1.538,1.538,0,0,1,.617.1ZM231.89.156a3.67,3.67,0,0,1-1.949-.531,3.62,3.62,0,0,1-1.355-1.48,4.616,4.616,0,0,1-.484-2.129V-4.32a4.974,4.974,0,0,1,.473-2.2,3.76,3.76,0,0,1,1.316-1.535,3.248,3.248,0,0,1,1.828-.559,3.052,3.052,0,0,1,2.441,1.051,4.262,4.262,0,0,1,.9,2.871v.523h-6.031v.18a3.539,3.539,0,0,0,.824,2.395,2.622,2.622,0,0,0,2.074.957,3.046,3.046,0,0,0,1.324-.273,2.937,2.937,0,0,0,1.043-.875l.586.445A3.411,3.411,0,0,1,231.89.156Zm-.172-7.969a2.337,2.337,0,0,0-1.777.773,3.573,3.573,0,0,0-.879,2.078h5.07v-.1a3.1,3.1,0,0,0-.7-1.984A2.155,2.155,0,0,0,231.718-7.812Zm8.289,7.18a2.469,2.469,0,0,0,1.637-.551,1.938,1.938,0,0,0,.715-1.426h.9a2.647,2.647,0,0,1-.484,1.41,3.035,3.035,0,0,1-1.184,1,3.567,3.567,0,0,1-1.582.359A3.266,3.266,0,0,1,237.371-1a4.674,4.674,0,0,1-.973-3.109v-.281a5.284,5.284,0,0,1,.438-2.211,3.372,3.372,0,0,1,1.254-1.484A3.461,3.461,0,0,1,240-8.609a3.26,3.26,0,0,1,2.293.828,3.02,3.02,0,0,1,.965,2.18h-.9a2.3,2.3,0,0,0-.715-1.6A2.315,2.315,0,0,0,240-7.812a2.331,2.331,0,0,0-1.965.914,4.136,4.136,0,0,0-.7,2.563v.273a4.043,4.043,0,0,0,.7,2.523A2.347,2.347,0,0,0,240.007-.633ZM246.171,0h-.937V-8.453h.938Zm-1.1-10.895a.627.627,0,0,1,.172-.446.613.613,0,0,1,.469-.182.626.626,0,0,1,.473.182.619.619,0,0,1,.176.446.606.606,0,0,1-.176.443.633.633,0,0,1-.473.179.62.62,0,0,1-.469-.179A.613.613,0,0,1,245.07-10.895Zm8.7,8.746a1.332,1.332,0,0,0-.559-1.117,4.308,4.308,0,0,0-1.684-.66,7.6,7.6,0,0,1-1.746-.547,2.326,2.326,0,0,1-.922-.754,1.881,1.881,0,0,1-.3-1.078,2.011,2.011,0,0,1,.836-1.652,3.377,3.377,0,0,1,2.141-.652,3.475,3.475,0,0,1,2.27.7,2.244,2.244,0,0,1,.855,1.824h-.937a1.514,1.514,0,0,0-.621-1.234,2.444,2.444,0,0,0-1.566-.492,2.445,2.445,0,0,0-1.48.41,1.266,1.266,0,0,0-.559,1.066,1.153,1.153,0,0,0,.465.98,4.917,4.917,0,0,0,1.7.637A7.968,7.968,0,0,1,253.5-4.1a2.388,2.388,0,0,1,.91.789,2.02,2.02,0,0,1,.3,1.117,2.025,2.025,0,0,1-.863,1.711,3.688,3.688,0,0,1-2.254.641A3.786,3.786,0,0,1,249.2-.559a2.2,2.2,0,0,1-.918-1.809h.938a1.626,1.626,0,0,0,.691,1.277,2.826,2.826,0,0,0,1.684.457,2.657,2.657,0,0,0,1.578-.43A1.29,1.29,0,0,0,253.773-2.148Zm2.523-2.2a4.974,4.974,0,0,1,.473-2.2,3.6,3.6,0,0,1,1.336-1.52,3.6,3.6,0,0,1,1.957-.543A3.477,3.477,0,0,1,262.8-7.426a4.561,4.561,0,0,1,1.047,3.137v.2a5.018,5.018,0,0,1-.473,2.207,3.529,3.529,0,0,1-1.332,1.512,3.653,3.653,0,0,1-1.961.531,3.48,3.48,0,0,1-2.73-1.184A4.55,4.55,0,0,1,256.3-4.164Zm.938.258a3.835,3.835,0,0,0,.785,2.488,2.518,2.518,0,0,0,2.059.973,2.51,2.51,0,0,0,2.051-.973,3.962,3.962,0,0,0,.785-2.566v-.18a4.3,4.3,0,0,0-.359-1.773,2.888,2.888,0,0,0-1.008-1.246,2.575,2.575,0,0,0-1.484-.441,2.5,2.5,0,0,0-2.039.98,3.968,3.968,0,0,0-.789,2.566Zm8.453,3.531a.662.662,0,0,1,.176-.465.63.63,0,0,1,.488-.191.642.642,0,0,1,.492.191.654.654,0,0,1,.18.465.6.6,0,0,1-.18.449.674.674,0,0,1-.492.176.66.66,0,0,1-.488-.176A.608.608,0,0,1,265.687-.562Z" transform="translate(64 48.228)" fill="#3c3c3b"/>
      <path id="Trazado_843411" data-name="Trazado 843411" d="M7.578-3.2H2.414L1.242,0H.234l4.3-11.375h.914L9.758,0h-1ZM2.711-4.008H7.273L4.992-10.2Zm8.125-.3a5.1,5.1,0,0,1,.879-3.137A2.829,2.829,0,0,1,14.1-8.609a2.94,2.94,0,0,1,2.609,1.352V-12h.93V0h-.875l-.039-1.125A3.019,3.019,0,0,1,14.086.156,2.819,2.819,0,0,1,11.73-1.02,5.121,5.121,0,0,1,10.836-4.2Zm.945.164A4.408,4.408,0,0,0,12.43-1.59a2.1,2.1,0,0,0,1.828.934A2.516,2.516,0,0,0,16.711-2.18V-6.148A2.5,2.5,0,0,0,14.273-7.8a2.122,2.122,0,0,0-1.836.926A4.711,4.711,0,0,0,11.781-4.141ZM23.375.156a3.67,3.67,0,0,1-1.949-.531,3.62,3.62,0,0,1-1.355-1.48,4.616,4.616,0,0,1-.484-2.129V-4.32a4.974,4.974,0,0,1,.473-2.2,3.76,3.76,0,0,1,1.316-1.535A3.248,3.248,0,0,1,23.2-8.609a3.052,3.052,0,0,1,2.441,1.051,4.262,4.262,0,0,1,.9,2.871v.523H20.516v.18A3.539,3.539,0,0,0,21.34-1.59a2.622,2.622,0,0,0,2.074.957,3.046,3.046,0,0,0,1.324-.273,2.937,2.937,0,0,0,1.043-.875l.586.445A3.411,3.411,0,0,1,23.375.156ZM23.2-7.812a2.337,2.337,0,0,0-1.777.773,3.573,3.573,0,0,0-.879,2.078h5.07v-.1a3.1,3.1,0,0,0-.7-1.984A2.155,2.155,0,0,0,23.2-7.812Zm6.016-.641.031,1.375a3.129,3.129,0,0,1,1.172-1.148,3.214,3.214,0,0,1,1.563-.383,2.371,2.371,0,0,1,2.539,1.641,3.174,3.174,0,0,1,1.211-1.215,3.354,3.354,0,0,1,1.672-.426q2.719,0,2.773,2.969V0h-.937V-5.57a2.52,2.52,0,0,0-.488-1.68A1.988,1.988,0,0,0,37.188-7.8a2.49,2.49,0,0,0-1.7.652,2.305,2.305,0,0,0-.773,1.551V0h-.937V-5.641a2.316,2.316,0,0,0-.512-1.621A2.036,2.036,0,0,0,31.711-7.8a2.358,2.358,0,0,0-1.516.5,2.955,2.955,0,0,0-.937,1.5V0H28.32V-8.453ZM47.883,0a4.421,4.421,0,0,1-.18-1.18,3.26,3.26,0,0,1-1.254.988,3.84,3.84,0,0,1-1.613.348,2.834,2.834,0,0,1-1.973-.68,2.214,2.214,0,0,1-.754-1.719A2.262,2.262,0,0,1,43.137-4.2,4.936,4.936,0,0,1,46-4.914h1.7v-.961A1.852,1.852,0,0,0,47.137-7.3a2.309,2.309,0,0,0-1.629-.52,2.549,2.549,0,0,0-1.617.5,1.486,1.486,0,0,0-.641,1.2l-.937-.008a2.174,2.174,0,0,1,.938-1.746,3.61,3.61,0,0,1,2.3-.738,3.293,3.293,0,0,1,2.23.707,2.537,2.537,0,0,1,.84,1.973v4a4.961,4.961,0,0,0,.258,1.836V0ZM44.945-.672a3.139,3.139,0,0,0,1.676-.453A2.666,2.666,0,0,0,47.7-2.336V-4.2H46.023a4.189,4.189,0,0,0-2.187.512,1.536,1.536,0,0,0-.789,1.363,1.511,1.511,0,0,0,.527,1.18A1.987,1.987,0,0,0,44.945-.672ZM46.789-12h1.133l-1.8,2.188-.82,0ZM56.18-2.148a1.332,1.332,0,0,0-.559-1.117,4.308,4.308,0,0,0-1.684-.66,7.6,7.6,0,0,1-1.746-.547,2.326,2.326,0,0,1-.922-.754,1.881,1.881,0,0,1-.3-1.078A2.011,2.011,0,0,1,51.8-7.957a3.377,3.377,0,0,1,2.141-.652,3.475,3.475,0,0,1,2.27.7,2.244,2.244,0,0,1,.855,1.824h-.937a1.514,1.514,0,0,0-.621-1.234,2.444,2.444,0,0,0-1.566-.492,2.445,2.445,0,0,0-1.48.41,1.266,1.266,0,0,0-.559,1.066,1.153,1.153,0,0,0,.465.98,4.917,4.917,0,0,0,1.7.637A7.968,7.968,0,0,1,55.91-4.1a2.388,2.388,0,0,1,.91.789,2.02,2.02,0,0,1,.3,1.117,2.025,2.025,0,0,1-.863,1.711A3.688,3.688,0,0,1,54,.156a3.786,3.786,0,0,1-2.395-.715,2.2,2.2,0,0,1-.918-1.809h.938a1.626,1.626,0,0,0,.691,1.277A2.826,2.826,0,0,0,54-.633a2.657,2.657,0,0,0,1.578-.43A1.29,1.29,0,0,0,56.18-2.148Zm2.844,4.273-.555-.406A3.4,3.4,0,0,0,59.2-.258V-1.469h.914v.977A3.364,3.364,0,0,1,59.023,2.125ZM65.8-4.3a5.1,5.1,0,0,1,.879-3.137,2.829,2.829,0,0,1,2.387-1.168,2.94,2.94,0,0,1,2.609,1.352V-12h.93V0h-.875l-.039-1.125A3.019,3.019,0,0,1,69.047.156,2.819,2.819,0,0,1,66.691-1.02,5.121,5.121,0,0,1,65.8-4.2Zm.945.164a4.408,4.408,0,0,0,.648,2.551,2.1,2.1,0,0,0,1.828.934A2.516,2.516,0,0,0,71.672-2.18V-6.148A2.5,2.5,0,0,0,69.234-7.8a2.122,2.122,0,0,0-1.836.926A4.711,4.711,0,0,0,66.742-4.141ZM78.336.156a3.67,3.67,0,0,1-1.949-.531,3.62,3.62,0,0,1-1.355-1.48,4.616,4.616,0,0,1-.484-2.129V-4.32a4.974,4.974,0,0,1,.473-2.2,3.76,3.76,0,0,1,1.316-1.535,3.248,3.248,0,0,1,1.828-.559,3.052,3.052,0,0,1,2.441,1.051,4.262,4.262,0,0,1,.9,2.871v.523H75.477v.18A3.539,3.539,0,0,0,76.3-1.59a2.622,2.622,0,0,0,2.074.957A3.046,3.046,0,0,0,79.7-.906a2.937,2.937,0,0,0,1.043-.875l.586.445A3.411,3.411,0,0,1,78.336.156Zm-.172-7.969a2.337,2.337,0,0,0-1.777.773,3.573,3.573,0,0,0-.879,2.078h5.07v-.1a3.1,3.1,0,0,0-.7-1.984A2.155,2.155,0,0,0,78.164-7.812ZM90.133-4.141A5.091,5.091,0,0,1,89.258-1,2.794,2.794,0,0,1,86.906.156a3.038,3.038,0,0,1-2.672-1.312L84.2,0H83.32V-12h.93v4.773a2.938,2.938,0,0,1,2.641-1.383,2.82,2.82,0,0,1,2.371,1.145,5.151,5.151,0,0,1,.871,3.184ZM89.2-4.3a4.4,4.4,0,0,0-.648-2.582,2.114,2.114,0,0,0-1.828-.91,2.573,2.573,0,0,0-1.523.441,2.684,2.684,0,0,0-.945,1.293V-2.25A2.5,2.5,0,0,0,86.734-.656a2.1,2.1,0,0,0,1.809-.914A4.707,4.707,0,0,0,89.2-4.3ZM95.469.156A3.67,3.67,0,0,1,93.52-.375a3.62,3.62,0,0,1-1.355-1.48,4.616,4.616,0,0,1-.484-2.129V-4.32a4.974,4.974,0,0,1,.473-2.2,3.76,3.76,0,0,1,1.316-1.535A3.248,3.248,0,0,1,95.3-8.609a3.052,3.052,0,0,1,2.441,1.051,4.262,4.262,0,0,1,.9,2.871v.523H92.609v.18a3.539,3.539,0,0,0,.824,2.395,2.622,2.622,0,0,0,2.074.957,3.046,3.046,0,0,0,1.324-.273,2.937,2.937,0,0,0,1.043-.875l.586.445A3.411,3.411,0,0,1,95.469.156ZM95.3-7.812a2.337,2.337,0,0,0-1.777.773,3.573,3.573,0,0,0-.879,2.078h5.07v-.1a3.1,3.1,0,0,0-.7-1.984A2.155,2.155,0,0,0,95.3-7.812ZM107.625.156a3.67,3.67,0,0,1-1.949-.531,3.62,3.62,0,0,1-1.355-1.48,4.616,4.616,0,0,1-.484-2.129V-4.32a4.974,4.974,0,0,1,.473-2.2,3.76,3.76,0,0,1,1.316-1.535,3.248,3.248,0,0,1,1.828-.559,3.052,3.052,0,0,1,2.441,1.051,4.262,4.262,0,0,1,.9,2.871v.523h-6.031v.18a3.539,3.539,0,0,0,.824,2.395,2.622,2.622,0,0,0,2.074.957,3.046,3.046,0,0,0,1.324-.273,2.937,2.937,0,0,0,1.043-.875l.586.445A3.411,3.411,0,0,1,107.625.156Zm-.172-7.969a2.337,2.337,0,0,0-1.777.773,3.573,3.573,0,0,0-.879,2.078h5.07v-.1a3.1,3.1,0,0,0-.7-1.984A2.155,2.155,0,0,0,107.453-7.812Zm7.583,6.523,2.57-7.164h.961L115.411,0h-.758l-3.172-8.453h.961ZM121.146,0h-.937V-8.453h.938Zm-1.1-10.895a.627.627,0,0,1,.172-.446.613.613,0,0,1,.469-.182.626.626,0,0,1,.473.182.619.619,0,0,1,.176.446.606.606,0,0,1-.176.443.633.633,0,0,1-.473.179.62.62,0,0,1-.469-.179A.613.613,0,0,1,120.044-10.895ZM123.31-4.3a5.1,5.1,0,0,1,.879-3.137,2.829,2.829,0,0,1,2.387-1.168,2.94,2.94,0,0,1,2.609,1.352V-12h.93V0h-.875L129.2-1.125A3.019,3.019,0,0,1,126.56.156,2.819,2.819,0,0,1,124.2-1.02,5.121,5.121,0,0,1,123.31-4.2Zm.945.164A4.408,4.408,0,0,0,124.9-1.59a2.1,2.1,0,0,0,1.828.934,2.516,2.516,0,0,0,2.453-1.523V-6.148A2.5,2.5,0,0,0,126.747-7.8a2.122,2.122,0,0,0-1.836.926A4.711,4.711,0,0,0,124.255-4.141Zm11.594,4.3A3.67,3.67,0,0,1,133.9-.375a3.62,3.62,0,0,1-1.355-1.48,4.616,4.616,0,0,1-.484-2.129V-4.32a4.974,4.974,0,0,1,.473-2.2,3.76,3.76,0,0,1,1.316-1.535,3.248,3.248,0,0,1,1.828-.559,3.052,3.052,0,0,1,2.441,1.051,4.262,4.262,0,0,1,.9,2.871v.523H132.99v.18a3.539,3.539,0,0,0,.824,2.395,2.622,2.622,0,0,0,2.074.957,3.046,3.046,0,0,0,1.324-.273,2.937,2.937,0,0,0,1.043-.875l.586.445A3.411,3.411,0,0,1,135.849.156Zm-.172-7.969a2.337,2.337,0,0,0-1.777.773,3.573,3.573,0,0,0-.879,2.078h5.07v-.1a3.1,3.1,0,0,0-.7-1.984A2.155,2.155,0,0,0,135.677-7.812Zm6.055-.641.031,1.445A3.357,3.357,0,0,1,142.951-8.2a3.086,3.086,0,0,1,1.57-.41,2.536,2.536,0,0,1,2.023.766,3.453,3.453,0,0,1,.672,2.3V0h-.93V-5.555a2.582,2.582,0,0,0-.48-1.687,1.882,1.882,0,0,0-1.512-.555,2.365,2.365,0,0,0-1.535.543,3.181,3.181,0,0,0-.988,1.465V0h-.93V-8.453Zm11.023,7.82a2.469,2.469,0,0,0,1.637-.551,1.938,1.938,0,0,0,.715-1.426h.9a2.647,2.647,0,0,1-.484,1.41,3.035,3.035,0,0,1-1.184,1,3.567,3.567,0,0,1-1.582.359A3.266,3.266,0,0,1,150.118-1a4.674,4.674,0,0,1-.973-3.109v-.281a5.284,5.284,0,0,1,.438-2.211,3.372,3.372,0,0,1,1.254-1.484,3.461,3.461,0,0,1,1.91-.523,3.26,3.26,0,0,1,2.293.828,3.02,3.02,0,0,1,.965,2.18h-.9a2.3,2.3,0,0,0-.715-1.6,2.315,2.315,0,0,0-1.645-.609,2.331,2.331,0,0,0-1.965.914,4.136,4.136,0,0,0-.7,2.563v.273a4.043,4.043,0,0,0,.7,2.523A2.347,2.347,0,0,0,152.755-.633ZM158.919,0h-.937V-8.453h.938Zm-1.1-10.895a.627.627,0,0,1,.172-.446.613.613,0,0,1,.469-.182.626.626,0,0,1,.473.182.619.619,0,0,1,.176.446.606.606,0,0,1-.176.443.633.633,0,0,1-.473.179.62.62,0,0,1-.469-.179A.613.613,0,0,1,157.818-10.895ZM166.794,0a4.421,4.421,0,0,1-.18-1.18,3.26,3.26,0,0,1-1.254.988,3.84,3.84,0,0,1-1.613.348,2.834,2.834,0,0,1-1.973-.68,2.214,2.214,0,0,1-.754-1.719A2.262,2.262,0,0,1,162.048-4.2a4.936,4.936,0,0,1,2.863-.719h1.7v-.961a1.852,1.852,0,0,0-.559-1.426,2.309,2.309,0,0,0-1.629-.52,2.549,2.549,0,0,0-1.617.5,1.486,1.486,0,0,0-.641,1.2l-.937-.008a2.174,2.174,0,0,1,.938-1.746,3.61,3.61,0,0,1,2.3-.738,3.293,3.293,0,0,1,2.23.707,2.537,2.537,0,0,1,.84,1.973v4a4.961,4.961,0,0,0,.258,1.836V0Zm-2.937-.672a3.139,3.139,0,0,0,1.676-.453,2.666,2.666,0,0,0,1.074-1.211V-4.2h-1.672a4.189,4.189,0,0,0-2.187.512,1.536,1.536,0,0,0-.789,1.363,1.511,1.511,0,0,0,.527,1.18A1.987,1.987,0,0,0,163.857-.672Zm10.078-6.984a3.492,3.492,0,0,0-.633-.055,2.283,2.283,0,0,0-1.48.488,2.674,2.674,0,0,0-.863,1.418V0h-.93V-8.453h.914l.016,1.344a2.486,2.486,0,0,1,2.383-1.5,1.538,1.538,0,0,1,.617.1Zm4.852,3.3a4.974,4.974,0,0,1,.473-2.2,3.6,3.6,0,0,1,1.336-1.52,3.6,3.6,0,0,1,1.957-.543,3.477,3.477,0,0,1,2.734,1.184,4.561,4.561,0,0,1,1.047,3.137v.2a5.018,5.018,0,0,1-.473,2.207,3.529,3.529,0,0,1-1.332,1.512,3.652,3.652,0,0,1-1.961.531,3.48,3.48,0,0,1-2.73-1.184,4.55,4.55,0,0,1-1.051-3.137Zm.938.258a3.836,3.836,0,0,0,.785,2.488,2.518,2.518,0,0,0,2.059.973,2.51,2.51,0,0,0,2.051-.973,3.962,3.962,0,0,0,.785-2.566v-.18a4.3,4.3,0,0,0-.359-1.773,2.888,2.888,0,0,0-1.008-1.246,2.575,2.575,0,0,0-1.484-.441,2.5,2.5,0,0,0-2.039.98,3.968,3.968,0,0,0-.789,2.566ZM193.2,0h-.937V-8.453h.938Zm-1.1-10.895a.627.627,0,0,1,.172-.446.613.613,0,0,1,.469-.182.626.626,0,0,1,.473.182.619.619,0,0,1,.176.446.606.606,0,0,1-.176.443.633.633,0,0,1-.473.179.62.62,0,0,1-.469-.179A.613.613,0,0,1,192.1-10.895Zm4.531,2.441.031,1.445A3.357,3.357,0,0,1,197.849-8.2a3.086,3.086,0,0,1,1.57-.41,2.536,2.536,0,0,1,2.023.766,3.453,3.453,0,0,1,.672,2.3V0h-.93V-5.555a2.582,2.582,0,0,0-.48-1.687,1.882,1.882,0,0,0-1.512-.555,2.365,2.365,0,0,0-1.535.543,3.181,3.181,0,0,0-.988,1.465V0h-.93V-8.453Zm12.961,6.3a1.332,1.332,0,0,0-.559-1.117,4.308,4.308,0,0,0-1.684-.66,7.6,7.6,0,0,1-1.746-.547,2.326,2.326,0,0,1-.922-.754,1.881,1.881,0,0,1-.3-1.078,2.011,2.011,0,0,1,.836-1.652,3.377,3.377,0,0,1,2.141-.652,3.475,3.475,0,0,1,2.27.7,2.244,2.244,0,0,1,.855,1.824h-.937a1.514,1.514,0,0,0-.621-1.234,2.444,2.444,0,0,0-1.566-.492,2.445,2.445,0,0,0-1.48.41,1.266,1.266,0,0,0-.559,1.066,1.153,1.153,0,0,0,.465.98,4.917,4.917,0,0,0,1.7.637,7.968,7.968,0,0,1,1.844.617,2.388,2.388,0,0,1,.91.789,2.02,2.02,0,0,1,.3,1.117,2.025,2.025,0,0,1-.863,1.711,3.688,3.688,0,0,1-2.254.641,3.786,3.786,0,0,1-2.395-.715,2.2,2.2,0,0,1-.918-1.809h.938a1.626,1.626,0,0,0,.691,1.277,2.826,2.826,0,0,0,1.684.457,2.657,2.657,0,0,0,1.578-.43A1.29,1.29,0,0,0,209.591-2.148ZM213.677,0h-.937V-8.453h.938Zm-1.1-10.895a.627.627,0,0,1,.172-.446.613.613,0,0,1,.469-.182.626.626,0,0,1,.473.182.619.619,0,0,1,.176.446.606.606,0,0,1-.176.443.633.633,0,0,1-.473.179.62.62,0,0,1-.469-.179A.613.613,0,0,1,212.576-10.895Zm4.531,2.441.031,1.445A3.357,3.357,0,0,1,218.326-8.2a3.086,3.086,0,0,1,1.57-.41,2.536,2.536,0,0,1,2.023.766,3.453,3.453,0,0,1,.672,2.3V0h-.93V-5.555a2.582,2.582,0,0,0-.48-1.687,1.882,1.882,0,0,0-1.512-.555,2.365,2.365,0,0,0-1.535.543,3.181,3.181,0,0,0-.988,1.465V0h-.93V-8.453ZM230.443-1.07a3.038,3.038,0,0,1-2.7,1.227,2.615,2.615,0,0,1-2.055-.785,3.439,3.439,0,0,1-.719-2.324v-5.5h.93V-3.07q0,2.414,1.953,2.414a2.394,2.394,0,0,0,2.57-1.68V-8.453h.938V0h-.906ZM239.13,0a4.421,4.421,0,0,1-.18-1.18,3.26,3.26,0,0,1-1.254.988,3.84,3.84,0,0,1-1.613.348,2.834,2.834,0,0,1-1.973-.68,2.214,2.214,0,0,1-.754-1.719A2.262,2.262,0,0,1,234.384-4.2a4.936,4.936,0,0,1,2.863-.719h1.7v-.961a1.852,1.852,0,0,0-.559-1.426,2.309,2.309,0,0,0-1.629-.52,2.549,2.549,0,0,0-1.617.5,1.486,1.486,0,0,0-.641,1.2l-.937-.008a2.174,2.174,0,0,1,.938-1.746,3.61,3.61,0,0,1,2.3-.738,3.293,3.293,0,0,1,2.23.707,2.537,2.537,0,0,1,.84,1.973v4a4.961,4.961,0,0,0,.258,1.836V0Zm-2.937-.672a3.139,3.139,0,0,0,1.676-.453,2.666,2.666,0,0,0,1.074-1.211V-4.2h-1.672a4.189,4.189,0,0,0-2.187.512,1.536,1.536,0,0,0-.789,1.363,1.511,1.511,0,0,0,.527,1.18A1.987,1.987,0,0,0,236.193-.672Zm10.078-6.984a3.492,3.492,0,0,0-.633-.055,2.283,2.283,0,0,0-1.48.488,2.674,2.674,0,0,0-.863,1.418V0h-.93V-8.453h.914l.016,1.344a2.486,2.486,0,0,1,2.383-1.5,1.538,1.538,0,0,1,.617.1ZM252.685,0h-.937V-12h.938Zm7.875,0a4.421,4.421,0,0,1-.18-1.18,3.26,3.26,0,0,1-1.254.988,3.84,3.84,0,0,1-1.613.348,2.834,2.834,0,0,1-1.973-.68,2.214,2.214,0,0,1-.754-1.719A2.262,2.262,0,0,1,255.814-4.2a4.936,4.936,0,0,1,2.863-.719h1.7v-.961a1.852,1.852,0,0,0-.559-1.426,2.309,2.309,0,0,0-1.629-.52,2.549,2.549,0,0,0-1.617.5,1.486,1.486,0,0,0-.641,1.2l-.937-.008a2.174,2.174,0,0,1,.938-1.746,3.61,3.61,0,0,1,2.3-.738,3.293,3.293,0,0,1,2.23.707,2.537,2.537,0,0,1,.84,1.973v4a4.961,4.961,0,0,0,.258,1.836V0Zm-2.937-.672a3.139,3.139,0,0,0,1.676-.453,2.666,2.666,0,0,0,1.074-1.211V-4.2H258.7a4.189,4.189,0,0,0-2.187.512,1.536,1.536,0,0,0-.789,1.363,1.511,1.511,0,0,0,.527,1.18A1.987,1.987,0,0,0,257.622-.672Zm16.859-3.469A5.091,5.091,0,0,1,273.607-1a2.787,2.787,0,0,1-2.344,1.16,3.129,3.129,0,0,1-2.656-1.219V3.25h-.93v-11.7h.867l.047,1.2a3,3,0,0,1,2.648-1.352,2.812,2.812,0,0,1,2.379,1.148,5.2,5.2,0,0,1,.863,3.188Zm-.937-.164a4.348,4.348,0,0,0-.664-2.555,2.141,2.141,0,0,0-1.852-.937,2.588,2.588,0,0,0-1.477.414,2.6,2.6,0,0,0-.945,1.2v4.055a2.482,2.482,0,0,0,.961,1.109,2.771,2.771,0,0,0,1.477.383,2.121,2.121,0,0,0,1.84-.941A4.734,4.734,0,0,0,273.544-4.3Zm2.492-.047a4.974,4.974,0,0,1,.473-2.2,3.6,3.6,0,0,1,1.336-1.52,3.6,3.6,0,0,1,1.957-.543,3.477,3.477,0,0,1,2.734,1.184,4.561,4.561,0,0,1,1.047,3.137v.2a5.018,5.018,0,0,1-.473,2.207,3.529,3.529,0,0,1-1.332,1.512,3.652,3.652,0,0,1-1.961.531,3.48,3.48,0,0,1-2.73-1.184,4.55,4.55,0,0,1-1.051-3.137Zm.938.258a3.836,3.836,0,0,0,.785,2.488,2.518,2.518,0,0,0,2.059.973,2.51,2.51,0,0,0,2.051-.973,3.962,3.962,0,0,0,.785-2.566v-.18a4.3,4.3,0,0,0-.359-1.773,2.888,2.888,0,0,0-1.008-1.246,2.575,2.575,0,0,0-1.484-.441,2.5,2.5,0,0,0-2.039.98,3.968,3.968,0,0,0-.789,2.566Zm13.6,1.945a1.332,1.332,0,0,0-.559-1.117,4.308,4.308,0,0,0-1.684-.66,7.6,7.6,0,0,1-1.746-.547,2.326,2.326,0,0,1-.922-.754,1.881,1.881,0,0,1-.3-1.078,2.011,2.011,0,0,1,.836-1.652,3.377,3.377,0,0,1,2.141-.652,3.475,3.475,0,0,1,2.27.7,2.244,2.244,0,0,1,.855,1.824h-.937a1.514,1.514,0,0,0-.621-1.234,2.444,2.444,0,0,0-1.566-.492,2.445,2.445,0,0,0-1.48.41,1.266,1.266,0,0,0-.559,1.066,1.153,1.153,0,0,0,.465.98,4.917,4.917,0,0,0,1.7.637,7.968,7.968,0,0,1,1.844.617,2.388,2.388,0,0,1,.91.789,2.02,2.02,0,0,1,.3,1.117,2.025,2.025,0,0,1-.863,1.711A3.688,3.688,0,0,1,288.4.156,3.786,3.786,0,0,1,286-.559a2.2,2.2,0,0,1-.918-1.809h.938a1.626,1.626,0,0,0,.691,1.277,2.826,2.826,0,0,0,1.684.457,2.657,2.657,0,0,0,1.578-.43A1.29,1.29,0,0,0,290.576-2.148Zm4.492-8.469v2.164h1.75v.766h-1.75v5.639A1.765,1.765,0,0,0,295.322-1a.984.984,0,0,0,.848.344,5.816,5.816,0,0,0,.758-.078l.039.759a3.056,3.056,0,0,1-1,.132,1.667,1.667,0,0,1-1.4-.559,2.63,2.63,0,0,1-.437-1.645V-7.687h-1.555v-.766h1.555v-2.164Zm9.125,9.547A3.038,3.038,0,0,1,301.5.156a2.615,2.615,0,0,1-2.055-.785,3.439,3.439,0,0,1-.719-2.324v-5.5h.93V-3.07q0,2.414,1.953,2.414a2.394,2.394,0,0,0,2.57-1.68V-8.453h.938V0h-.906Zm7.258-6.586a3.492,3.492,0,0,0-.633-.055,2.283,2.283,0,0,0-1.48.488,2.674,2.674,0,0,0-.863,1.418V0h-.93V-8.453h.914l.016,1.344a2.486,2.486,0,0,1,2.383-1.5,1.538,1.538,0,0,1,.617.1ZM317.694,0a4.421,4.421,0,0,1-.18-1.18,3.26,3.26,0,0,1-1.254.988,3.84,3.84,0,0,1-1.613.348,2.834,2.834,0,0,1-1.973-.68,2.214,2.214,0,0,1-.754-1.719A2.262,2.262,0,0,1,312.948-4.2a4.936,4.936,0,0,1,2.863-.719h1.7v-.961a1.852,1.852,0,0,0-.559-1.426,2.309,2.309,0,0,0-1.629-.52,2.549,2.549,0,0,0-1.617.5,1.486,1.486,0,0,0-.641,1.2l-.937-.008a2.174,2.174,0,0,1,.938-1.746,3.61,3.61,0,0,1,2.3-.738,3.293,3.293,0,0,1,2.23.707,2.537,2.537,0,0,1,.84,1.973v4a4.961,4.961,0,0,0,.258,1.836V0Zm-2.937-.672a3.139,3.139,0,0,0,1.676-.453,2.666,2.666,0,0,0,1.074-1.211V-4.2h-1.672a4.189,4.189,0,0,0-2.187.512,1.536,1.536,0,0,0-.789,1.363,1.511,1.511,0,0,0,.527,1.18A1.987,1.987,0,0,0,314.757-.672Z" transform="translate(38 72.396)" fill="#3c3c3b"/>
      <path id="Trazado_843412" data-name="Trazado 843412" d="M.844-4.3a5.1,5.1,0,0,1,.879-3.137A2.829,2.829,0,0,1,4.109-8.609,2.94,2.94,0,0,1,6.719-7.258V-12h.93V0H6.773L6.734-1.125A3.019,3.019,0,0,1,4.094.156,2.819,2.819,0,0,1,1.738-1.02,5.121,5.121,0,0,1,.844-4.2Zm.945.164A4.408,4.408,0,0,0,2.438-1.59a2.1,2.1,0,0,0,1.828.934A2.516,2.516,0,0,0,6.719-2.18V-6.148A2.5,2.5,0,0,0,4.281-7.8a2.122,2.122,0,0,0-1.836.926A4.711,4.711,0,0,0,1.789-4.141ZM13.383.156a3.67,3.67,0,0,1-1.949-.531,3.62,3.62,0,0,1-1.355-1.48,4.616,4.616,0,0,1-.484-2.129V-4.32a4.974,4.974,0,0,1,.473-2.2,3.76,3.76,0,0,1,1.316-1.535,3.248,3.248,0,0,1,1.828-.559,3.052,3.052,0,0,1,2.441,1.051,4.262,4.262,0,0,1,.9,2.871v.523H10.523v.18a3.539,3.539,0,0,0,.824,2.395,2.622,2.622,0,0,0,2.074.957,3.046,3.046,0,0,0,1.324-.273,2.937,2.937,0,0,0,1.043-.875l.586.445A3.411,3.411,0,0,1,13.383.156Zm-.172-7.969a2.337,2.337,0,0,0-1.777.773,3.573,3.573,0,0,0-.879,2.078h5.07v-.1a3.1,3.1,0,0,0-.7-1.984A2.155,2.155,0,0,0,13.211-7.812ZM19.422,0h-.937V-12h.938ZM31.188,0a4.421,4.421,0,0,1-.18-1.18,3.26,3.26,0,0,1-1.254.988,3.84,3.84,0,0,1-1.613.348,2.834,2.834,0,0,1-1.973-.68,2.214,2.214,0,0,1-.754-1.719A2.262,2.262,0,0,1,26.441-4.2,4.936,4.936,0,0,1,29.3-4.914H31v-.961A1.852,1.852,0,0,0,30.441-7.3a2.309,2.309,0,0,0-1.629-.52,2.549,2.549,0,0,0-1.617.5,1.486,1.486,0,0,0-.641,1.2l-.937-.008a2.174,2.174,0,0,1,.938-1.746,3.61,3.61,0,0,1,2.3-.738,3.293,3.293,0,0,1,2.23.707,2.537,2.537,0,0,1,.84,1.973v4a4.961,4.961,0,0,0,.258,1.836V0ZM28.25-.672a3.139,3.139,0,0,0,1.676-.453A2.666,2.666,0,0,0,31-2.336V-4.2H29.328a4.189,4.189,0,0,0-2.187.512,1.536,1.536,0,0,0-.789,1.363,1.511,1.511,0,0,0,.527,1.18A1.987,1.987,0,0,0,28.25-.672Zm11.609-.4a3.038,3.038,0,0,1-2.7,1.227,2.615,2.615,0,0,1-2.055-.785,3.439,3.439,0,0,1-.719-2.324v-5.5h.93V-3.07q0,2.414,1.953,2.414a2.394,2.394,0,0,0,2.57-1.68V-8.453h.938V0h-.906Zm4.8-9.547v2.164h1.75v.766h-1.75v5.639A1.765,1.765,0,0,0,44.918-1a.984.984,0,0,0,.848.344,5.816,5.816,0,0,0,.758-.078l.039.759a3.056,3.056,0,0,1-1,.132,1.667,1.667,0,0,1-1.4-.559,2.63,2.63,0,0,1-.437-1.645V-7.687H42.172v-.766h1.555v-2.164ZM47.52-4.352a4.974,4.974,0,0,1,.473-2.2,3.6,3.6,0,0,1,1.336-1.52,3.6,3.6,0,0,1,1.957-.543A3.477,3.477,0,0,1,54.02-7.426a4.561,4.561,0,0,1,1.047,3.137v.2a5.018,5.018,0,0,1-.473,2.207A3.529,3.529,0,0,1,53.262-.375,3.652,3.652,0,0,1,51.3.156a3.48,3.48,0,0,1-2.73-1.184A4.55,4.55,0,0,1,47.52-4.164Zm.938.258a3.836,3.836,0,0,0,.785,2.488A2.518,2.518,0,0,0,51.3-.633a2.51,2.51,0,0,0,2.051-.973,3.962,3.962,0,0,0,.785-2.566v-.18a4.3,4.3,0,0,0-.359-1.773A2.888,2.888,0,0,0,52.77-7.371a2.575,2.575,0,0,0-1.484-.441,2.5,2.5,0,0,0-2.039.98,3.968,3.968,0,0,0-.789,2.566ZM60.9-7.656a3.492,3.492,0,0,0-.633-.055,2.283,2.283,0,0,0-1.48.488A2.674,2.674,0,0,0,57.926-5.8V0H57V-8.453h.914l.016,1.344a2.486,2.486,0,0,1,2.383-1.5,1.538,1.538,0,0,1,.617.1ZM60.388-.562a.662.662,0,0,1,.176-.465.63.63,0,0,1,.488-.191.642.642,0,0,1,.492.191.654.654,0,0,1,.18.465.6.6,0,0,1-.18.449.674.674,0,0,1-.492.176.66.66,0,0,1-.488-.176A.608.608,0,0,1,60.388-.562Z" transform="translate(168 96.564)" fill="#3c3c3b"/>
      <path id="Trazado_843413" data-name="Trazado 843413" d="M1.094-4.594A12.527,12.527,0,0,1,1.531-7.9,10.719,10.719,0,0,1,2.813-10.84a5.721,5.721,0,0,1,1.813-1.91l.227.633a4.611,4.611,0,0,0-1.023,1.07,8.128,8.128,0,0,0-.906,1.672A12.052,12.052,0,0,0,2.277-7.2a13.78,13.78,0,0,0-.246,2.738A13.1,13.1,0,0,0,2.4-1.32a10.539,10.539,0,0,0,1.02,2.66,5.407,5.407,0,0,0,1.43,1.73l-.227.6A5.8,5.8,0,0,1,2.789,1.754,10.385,10.385,0,0,1,1.52-1.16,13.236,13.236,0,0,1,1.094-4.594ZM14.75-1.352A3.22,3.22,0,0,1,13.184-.242a6.778,6.778,0,0,1-2.387.4A4.433,4.433,0,0,1,8.422-.484,4.264,4.264,0,0,1,6.813-2.3a6.141,6.141,0,0,1-.578-2.687V-6.422a5.494,5.494,0,0,1,1.2-3.738,4.045,4.045,0,0,1,3.211-1.371,4.265,4.265,0,0,1,2.828.895,3.692,3.692,0,0,1,1.273,2.465h-.961a2.95,2.95,0,0,0-1.02-1.9,3.282,3.282,0,0,0-2.113-.646A3.091,3.091,0,0,0,8.125-9.585a4.915,4.915,0,0,0-.93,3.2v1.345a5.619,5.619,0,0,0,.441,2.295A3.5,3.5,0,0,0,8.9-1.2,3.346,3.346,0,0,0,10.8-.656a5.287,5.287,0,0,0,2.133-.391,2.3,2.3,0,0,0,.859-.6V-4.586H10.734V-5.4H14.75Zm1.992-3a4.974,4.974,0,0,1,.473-2.2,3.6,3.6,0,0,1,1.336-1.52,3.6,3.6,0,0,1,1.957-.543,3.477,3.477,0,0,1,2.734,1.184,4.561,4.561,0,0,1,1.047,3.137v.2a5.018,5.018,0,0,1-.473,2.207A3.529,3.529,0,0,1,22.484-.375a3.652,3.652,0,0,1-1.961.531,3.48,3.48,0,0,1-2.73-1.184,4.55,4.55,0,0,1-1.051-3.137Zm.938.258a3.836,3.836,0,0,0,.785,2.488,2.518,2.518,0,0,0,2.059.973,2.51,2.51,0,0,0,2.051-.973,3.962,3.962,0,0,0,.785-2.566v-.18A4.3,4.3,0,0,0,23-6.125a2.888,2.888,0,0,0-1.008-1.246,2.575,2.575,0,0,0-1.484-.441,2.5,2.5,0,0,0-2.039.98,3.968,3.968,0,0,0-.789,2.566ZM21.438-12H22.57l-1.8,2.188-.82,0ZM27.07-8.453,27.1-7.078a3.129,3.129,0,0,1,1.172-1.148,3.214,3.214,0,0,1,1.563-.383,2.371,2.371,0,0,1,2.539,1.641,3.174,3.174,0,0,1,1.211-1.215,3.354,3.354,0,0,1,1.672-.426q2.719,0,2.773,2.969V0h-.937V-5.57a2.52,2.52,0,0,0-.488-1.68A1.988,1.988,0,0,0,35.039-7.8a2.49,2.49,0,0,0-1.7.652,2.305,2.305,0,0,0-.773,1.551V0h-.937V-5.641a2.316,2.316,0,0,0-.512-1.621A2.036,2.036,0,0,0,29.563-7.8a2.358,2.358,0,0,0-1.516.5,2.955,2.955,0,0,0-.937,1.5V0h-.937V-8.453ZM43.672.156a3.67,3.67,0,0,1-1.949-.531,3.62,3.62,0,0,1-1.355-1.48,4.616,4.616,0,0,1-.484-2.129V-4.32a4.974,4.974,0,0,1,.473-2.2,3.76,3.76,0,0,1,1.316-1.535A3.248,3.248,0,0,1,43.5-8.609a3.052,3.052,0,0,1,2.441,1.051,4.262,4.262,0,0,1,.9,2.871v.523H40.813v.18a3.539,3.539,0,0,0,.824,2.395,2.622,2.622,0,0,0,2.074.957,3.046,3.046,0,0,0,1.324-.273,2.937,2.937,0,0,0,1.043-.875l.586.445A3.411,3.411,0,0,1,43.672.156ZM43.5-7.812a2.337,2.337,0,0,0-1.777.773,3.573,3.573,0,0,0-.879,2.078h5.07v-.1a3.1,3.1,0,0,0-.7-1.984A2.155,2.155,0,0,0,43.5-7.812ZM49.281-.789h5.492V0H48.125V-.687L53.25-7.641H48.281v-.812H54.43v.7ZM63.242-4.625H59.5v-.789h3.742Zm7.055-6.75,4.2,10.039L78.7-11.375h1.281V0h-.961V-4.953l.078-5.078L74.867,0h-.742L69.906-9.992l.078,5.008V0h-.961V-11.375ZM87.984,0a4.421,4.421,0,0,1-.18-1.18,3.26,3.26,0,0,1-1.254.988,3.84,3.84,0,0,1-1.613.348,2.834,2.834,0,0,1-1.973-.68,2.214,2.214,0,0,1-.754-1.719A2.262,2.262,0,0,1,83.238-4.2,4.936,4.936,0,0,1,86.1-4.914h1.7v-.961A1.852,1.852,0,0,0,87.238-7.3a2.309,2.309,0,0,0-1.629-.52,2.549,2.549,0,0,0-1.617.5,1.486,1.486,0,0,0-.641,1.2l-.937-.008a2.174,2.174,0,0,1,.938-1.746,3.61,3.61,0,0,1,2.3-.738,3.293,3.293,0,0,1,2.23.707,2.537,2.537,0,0,1,.84,1.973v4a4.961,4.961,0,0,0,.258,1.836V0ZM85.047-.672a3.139,3.139,0,0,0,1.676-.453A2.666,2.666,0,0,0,87.8-2.336V-4.2H86.125a4.189,4.189,0,0,0-2.187.512,1.536,1.536,0,0,0-.789,1.363,1.511,1.511,0,0,0,.527,1.18A1.987,1.987,0,0,0,85.047-.672ZM95.125-7.656a3.492,3.492,0,0,0-.633-.055,2.283,2.283,0,0,0-1.48.488A2.674,2.674,0,0,0,92.148-5.8V0h-.93V-8.453h.914l.016,1.344a2.486,2.486,0,0,1,2.383-1.5,1.538,1.538,0,0,1,.617.1Zm3.7-2.961v2.164h1.75v.766h-1.75v5.639A1.765,1.765,0,0,0,99.083-1a.984.984,0,0,0,.848.344,5.816,5.816,0,0,0,.758-.078l.039.759a3.056,3.056,0,0,1-1,.132,1.667,1.667,0,0,1-1.4-.559,2.63,2.63,0,0,1-.437-1.645V-7.687H96.337v-.766h1.555v-2.164ZM103.548,0h-.937V-8.453h.938Zm.484-11.906h1.133l-1.8,2.188-.82,0Zm2.938,3.453L107-7.008A3.357,3.357,0,0,1,108.189-8.2a3.086,3.086,0,0,1,1.57-.41,2.536,2.536,0,0,1,2.023.766,3.453,3.453,0,0,1,.672,2.3V0h-.93V-5.555a2.583,2.583,0,0,0-.48-1.687,1.882,1.882,0,0,0-1.512-.555A2.365,2.365,0,0,0,108-7.254a3.181,3.181,0,0,0-.988,1.465V0h-.93V-8.453ZM118.142.156a3.67,3.67,0,0,1-1.949-.531,3.62,3.62,0,0,1-1.355-1.48,4.616,4.616,0,0,1-.484-2.129V-4.32a4.974,4.974,0,0,1,.473-2.2,3.76,3.76,0,0,1,1.316-1.535,3.248,3.248,0,0,1,1.828-.559,3.052,3.052,0,0,1,2.441,1.051,4.262,4.262,0,0,1,.9,2.871v.523h-6.031v.18a3.539,3.539,0,0,0,.824,2.395,2.622,2.622,0,0,0,2.074.957,3.046,3.046,0,0,0,1.324-.273,2.937,2.937,0,0,0,1.043-.875l.586.445A3.411,3.411,0,0,1,118.142.156Zm-.172-7.969a2.337,2.337,0,0,0-1.777.773,3.573,3.573,0,0,0-.879,2.078h5.07v-.1a3.1,3.1,0,0,0-.7-1.984A2.155,2.155,0,0,0,117.97-7.812Zm5.781,7.023h5.492V0h-6.648V-.687l5.125-6.953h-4.969v-.812H128.9v.7Zm6.969,2.914-.555-.406A3.4,3.4,0,0,0,130.9-.258V-1.469h.914v.977A3.364,3.364,0,0,1,130.72,2.125ZM142.072,0h-.937V-10.25L138.04-9.1v-.875l3.875-1.437h.156Zm10.352-5.266a3.521,3.521,0,0,1-1.242,1.137,3.324,3.324,0,0,1-1.609.4,2.99,2.99,0,0,1-1.711-.5,3.273,3.273,0,0,1-1.148-1.383,4.56,4.56,0,0,1-.406-1.93,4.75,4.75,0,0,1,.434-2.047,3.4,3.4,0,0,1,1.211-1.434,3.186,3.186,0,0,1,1.793-.512,3.211,3.211,0,0,1,2.664,1.2,5.35,5.35,0,0,1,.953,3.4v.844a7,7,0,0,1-1.312,4.625A4.965,4.965,0,0,1,148.04.086h-.172l.008-.812h.328a4.157,4.157,0,0,0,3.1-1.156A4.949,4.949,0,0,0,152.423-5.266Zm-2.734.727a2.743,2.743,0,0,0,1.684-.557,3.011,3.011,0,0,0,1.059-1.446v-.538a4.368,4.368,0,0,0-.723-2.685,2.318,2.318,0,0,0-1.949-.955,2.226,2.226,0,0,0-1.82.892,3.5,3.5,0,0,0-.711,2.248,3.4,3.4,0,0,0,.684,2.17A2.157,2.157,0,0,0,149.689-4.539Zm11.6-.727a3.521,3.521,0,0,1-1.242,1.137,3.324,3.324,0,0,1-1.609.4,2.99,2.99,0,0,1-1.711-.5,3.273,3.273,0,0,1-1.148-1.383,4.56,4.56,0,0,1-.406-1.93,4.75,4.75,0,0,1,.434-2.047,3.4,3.4,0,0,1,1.211-1.434,3.186,3.186,0,0,1,1.793-.512,3.211,3.211,0,0,1,2.664,1.2,5.35,5.35,0,0,1,.953,3.4v.844a7,7,0,0,1-1.312,4.625A4.965,4.965,0,0,1,156.907.086h-.172l.008-.812h.328a4.157,4.157,0,0,0,3.1-1.156A4.949,4.949,0,0,0,161.29-5.266Zm-2.734.727a2.743,2.743,0,0,0,1.684-.557A3.011,3.011,0,0,0,161.3-6.542v-.538a4.368,4.368,0,0,0-.723-2.685,2.318,2.318,0,0,0-1.949-.955,2.226,2.226,0,0,0-1.82.892,3.5,3.5,0,0,0-.711,2.248,3.4,3.4,0,0,0,.684,2.17A2.157,2.157,0,0,0,158.556-4.539ZM171.447,0h-7.125V-.719l3.9-4.422a10.231,10.231,0,0,0,1.344-1.844,3.074,3.074,0,0,0,.375-1.414,2.3,2.3,0,0,0-.633-1.707,2.363,2.363,0,0,0-1.742-.629,2.458,2.458,0,0,0-1.855.734A2.634,2.634,0,0,0,165-8.094h-.93a3.573,3.573,0,0,1,.434-1.75,3.12,3.12,0,0,1,1.234-1.238,3.664,3.664,0,0,1,1.824-.449,3.439,3.439,0,0,1,2.441.82,2.908,2.908,0,0,1,.879,2.234,3.792,3.792,0,0,1-.5,1.742,12.95,12.95,0,0,1-1.746,2.359L165.47-.789h5.977Zm4.688-4.477a12.735,12.735,0,0,1-.426,3.309,10.462,10.462,0,0,1-1.262,2.91,5.833,5.833,0,0,1-1.844,1.93l-.227-.6a5.185,5.185,0,0,0,1.418-1.7A10.435,10.435,0,0,0,174.822-1.3a13.889,13.889,0,0,0,.375-3.316,12.853,12.853,0,0,0-.375-3.121,10.913,10.913,0,0,0-1.035-2.687,5.2,5.2,0,0,0-1.41-1.723l.227-.6a5.859,5.859,0,0,1,1.82,1.922A10.673,10.673,0,0,1,175.7-7.9,13,13,0,0,1,176.134-4.477Z" transform="translate(111 120.732)" fill="#3c3c3b"/>
      <g id="Grupo_1083449" data-name="Grupo 1083449">
        <g id="Grupo_1083448" data-name="Grupo 1083448" clip-path="url(#clip-path)">
          <path id="Trazado_843313" data-name="Trazado 843313" d="M565.818,115.841h-272.9V41.255a25.09,25.09,0,0,1,25.089-25.091h272.9V90.752a25.089,25.089,0,0,1-25.089,25.089" transform="translate(198.696 10.964)" fill="#e6ff48"/>
        </g>
      </g>
      <path id="Trazado_843419" data-name="Trazado 843419" d="M9.578-9.477H6.094V0H3.75V-9.477H.313v-1.9H9.578ZM13.2,0H10.945V-8.453H13.2Zm-.664-11.883H15L12.836-9.461H11Zm5.313,1.352v2.078H19.3V-6.8H17.852v4.219a1.007,1.007,0,0,0,.18.672.9.9,0,0,0,.688.2,3.6,3.6,0,0,0,.664-.055V-.047a4.648,4.648,0,0,1-1.367.2,2.156,2.156,0,0,1-2.422-2.4V-6.8H14.359V-8.453h1.234v-2.078ZM25.617-.859A2.831,2.831,0,0,1,23.3.156,2.67,2.67,0,0,1,21.23-.625a3.335,3.335,0,0,1-.73-2.289V-8.453h2.258v5.467q0,1.322,1.2,1.322a1.63,1.63,0,0,0,1.578-.8V-8.453H27.8V0H25.68ZM31.891,0H29.625V-12h2.266ZM33.4-4.3a5.013,5.013,0,0,1,.484-2.242A3.546,3.546,0,0,1,35.277-8.07a4.069,4.069,0,0,1,2.113-.539,3.849,3.849,0,0,1,2.793,1.047,4.2,4.2,0,0,1,1.207,2.844l.016.578A4.418,4.418,0,0,1,40.32-1.02,3.775,3.775,0,0,1,37.406.156a3.793,3.793,0,0,1-2.918-1.172A4.5,4.5,0,0,1,33.4-4.2Zm2.258.16A3.16,3.16,0,0,0,36.109-2.3a1.5,1.5,0,0,0,1.3.638,1.5,1.5,0,0,0,1.281-.63,3.457,3.457,0,0,0,.461-2.015,3.128,3.128,0,0,0-.461-1.831,1.5,1.5,0,0,0-1.3-.649,1.474,1.474,0,0,0-1.281.646A3.516,3.516,0,0,0,35.656-4.144Z" transform="translate(614 66.156)" fill="#3c3c3b"/>
      <path id="Trazado_843418" data-name="Trazado 843418" d="M7.438-2.344H3.328L2.547,0H.055L4.289-11.375H6.461L10.719,0H8.227Zm-3.477-1.9H6.8L5.375-8.5ZM16.615-.859A2.831,2.831,0,0,1,14.3.156a2.67,2.67,0,0,1-2.074-.781,3.335,3.335,0,0,1-.73-2.289V-8.453h2.258v5.467q0,1.322,1.2,1.322a1.63,1.63,0,0,0,1.578-.8V-8.453H18.8V0H16.678Zm6.594-9.672v2.078h1.445V-6.8H23.209v4.219a1.007,1.007,0,0,0,.18.672.9.9,0,0,0,.688.2,3.6,3.6,0,0,0,.664-.055V-.047a4.648,4.648,0,0,1-1.367.2,2.156,2.156,0,0,1-2.422-2.4V-6.8H19.717V-8.453h1.234v-2.078ZM25.086-4.3a5.013,5.013,0,0,1,.484-2.242A3.546,3.546,0,0,1,26.965-8.07a4.069,4.069,0,0,1,2.113-.539,3.849,3.849,0,0,1,2.793,1.047,4.2,4.2,0,0,1,1.207,2.844l.016.578A4.418,4.418,0,0,1,32.008-1.02,3.775,3.775,0,0,1,29.094.156a3.793,3.793,0,0,1-2.918-1.172A4.5,4.5,0,0,1,25.086-4.2Zm2.258.16A3.16,3.16,0,0,0,27.8-2.3a1.5,1.5,0,0,0,1.3.638,1.5,1.5,0,0,0,1.281-.63,3.457,3.457,0,0,0,.461-2.015,3.128,3.128,0,0,0-.461-1.831,1.5,1.5,0,0,0-1.3-.649,1.474,1.474,0,0,0-1.281.646A3.516,3.516,0,0,0,27.344-4.144ZM39.235-6.336a6.134,6.134,0,0,0-.812-.062,1.654,1.654,0,0,0-1.68.867V0H34.485V-8.453h2.133l.063,1.008a2.092,2.092,0,0,1,1.883-1.164,2.366,2.366,0,0,1,.7.1Zm4.7,6.492A4.15,4.15,0,0,1,40.907-.984,4.054,4.054,0,0,1,39.74-4.023v-.219a5.106,5.106,0,0,1,.492-2.277,3.612,3.612,0,0,1,1.395-1.547,3.914,3.914,0,0,1,2.059-.543,3.508,3.508,0,0,1,2.73,1.094,4.444,4.444,0,0,1,1,3.1v.922H42.029a2.1,2.1,0,0,0,.66,1.328,2,2,0,0,0,1.395.5,2.437,2.437,0,0,0,2.039-.945l1.109,1.242A3.389,3.389,0,0,1,45.857-.246,4.511,4.511,0,0,1,43.935.156Zm-.258-6.945a1.411,1.411,0,0,0-1.09.455,2.357,2.357,0,0,0-.535,1.3h3.141v-.181a1.681,1.681,0,0,0-.406-1.165A1.456,1.456,0,0,0,43.677-6.789Zm9.594,4.453a.727.727,0,0,0-.41-.652,4.659,4.659,0,0,0-1.316-.426q-3.016-.633-3.016-2.562a2.323,2.323,0,0,1,.934-1.879A3.766,3.766,0,0,1,51.9-8.609a4.053,4.053,0,0,1,2.574.758,2.388,2.388,0,0,1,.965,1.969H53.185a1.092,1.092,0,0,0-.312-.8A1.322,1.322,0,0,0,51.9-7a1.351,1.351,0,0,0-.883.258.814.814,0,0,0-.312.656.7.7,0,0,0,.355.605,3.657,3.657,0,0,0,1.2.4,9.8,9.8,0,0,1,1.422.379A2.336,2.336,0,0,1,55.466-2.43a2.2,2.2,0,0,1-.992,1.871,4.28,4.28,0,0,1-2.562.715,4.47,4.47,0,0,1-1.887-.379,3.166,3.166,0,0,1-1.293-1.039,2.414,2.414,0,0,1-.469-1.426H50.4a1.179,1.179,0,0,0,.445.922,1.766,1.766,0,0,0,1.109.32,1.635,1.635,0,0,0,.98-.246A.766.766,0,0,0,53.271-2.336ZM57.63.977H55.95l4.188-12.352h1.68Zm7.758-4.984V0H63.044V-11.375h4.438a5.134,5.134,0,0,1,2.254.469,3.454,3.454,0,0,1,1.5,1.332,3.714,3.714,0,0,1,.523,1.965,3.266,3.266,0,0,1-1.145,2.637,4.767,4.767,0,0,1-3.168.965Zm0-1.9h2.094A2.059,2.059,0,0,0,68.9-6.344a1.591,1.591,0,0,0,.488-1.25A1.876,1.876,0,0,0,68.9-8.945a1.839,1.839,0,0,0-1.359-.531H65.388Zm12.578-.43a6.134,6.134,0,0,0-.812-.062,1.654,1.654,0,0,0-1.68.867V0H73.216V-8.453h2.133l.063,1.008a2.092,2.092,0,0,1,1.883-1.164,2.366,2.366,0,0,1,.7.1ZM78.131-4.3a5.013,5.013,0,0,1,.484-2.242A3.546,3.546,0,0,1,80.01-8.07a4.069,4.069,0,0,1,2.113-.539,3.849,3.849,0,0,1,2.793,1.047,4.2,4.2,0,0,1,1.207,2.844l.016.578A4.418,4.418,0,0,1,85.053-1.02,3.775,3.775,0,0,1,82.139.156a3.793,3.793,0,0,1-2.918-1.172A4.5,4.5,0,0,1,78.131-4.2Zm2.258.16A3.16,3.16,0,0,0,80.842-2.3a1.5,1.5,0,0,0,1.3.638,1.5,1.5,0,0,0,1.281-.63,3.457,3.457,0,0,0,.461-2.015A3.128,3.128,0,0,0,83.42-6.14a1.5,1.5,0,0,0-1.3-.649,1.474,1.474,0,0,0-1.281.646A3.516,3.516,0,0,0,80.389-4.144Zm6.789-.145a5.094,5.094,0,0,1,.887-3.148,2.877,2.877,0,0,1,2.426-1.172,2.589,2.589,0,0,1,2.039.922V-12H94.8V0H92.756l-.109-.9A2.657,2.657,0,0,1,90.475.156,2.869,2.869,0,0,1,88.08-1.02,5.258,5.258,0,0,1,87.178-4.289Zm2.258.168A3.337,3.337,0,0,0,89.85-2.3a1.349,1.349,0,0,0,1.2.634,1.511,1.511,0,0,0,1.477-.884V-5.889a1.489,1.489,0,0,0-1.461-.884Q89.436-6.773,89.436-4.121ZM101.608-.859A2.831,2.831,0,0,1,99.3.156a2.67,2.67,0,0,1-2.074-.781,3.335,3.335,0,0,1-.73-2.289V-8.453h2.258v5.467q0,1.322,1.2,1.322a1.63,1.63,0,0,0,1.578-.8V-8.453H103.8V0H101.67Zm7.406-.8a1.481,1.481,0,0,0,1.016-.344,1.2,1.2,0,0,0,.406-.914h2.117a2.9,2.9,0,0,1-.469,1.574,3.093,3.093,0,0,1-1.262,1.109,3.949,3.949,0,0,1-1.77.395A3.67,3.67,0,0,1,106.194-1a4.56,4.56,0,0,1-1.047-3.184v-.148a4.508,4.508,0,0,1,1.039-3.117,3.627,3.627,0,0,1,2.852-1.164,3.555,3.555,0,0,1,2.543.9,3.2,3.2,0,0,1,.973,2.4h-2.117a1.551,1.551,0,0,0-.406-1.072A1.354,1.354,0,0,0,109-6.789a1.36,1.36,0,0,0-1.191.575,3.333,3.333,0,0,0-.4,1.866v.235a3.375,3.375,0,0,0,.4,1.878A1.377,1.377,0,0,0,109.014-1.664Zm7.531-8.867v2.078h1.445V-6.8h-1.445v4.219a1.007,1.007,0,0,0,.18.672.9.9,0,0,0,.688.2,3.6,3.6,0,0,0,.664-.055V-.047a4.648,4.648,0,0,1-1.367.2,2.156,2.156,0,0,1-2.422-2.4V-6.8h-1.234V-8.453h1.234v-2.078ZM118.454-4.3a5.013,5.013,0,0,1,.484-2.242,3.546,3.546,0,0,1,1.395-1.523,4.069,4.069,0,0,1,2.113-.539,3.849,3.849,0,0,1,2.793,1.047,4.2,4.2,0,0,1,1.207,2.844l.016.578a4.418,4.418,0,0,1-1.086,3.121A3.775,3.775,0,0,1,122.462.156a3.793,3.793,0,0,1-2.918-1.172,4.5,4.5,0,0,1-1.09-3.187Zm2.258.16a3.16,3.16,0,0,0,.453,1.843,1.5,1.5,0,0,0,1.3.638,1.5,1.5,0,0,0,1.281-.63,3.457,3.457,0,0,0,.461-2.015,3.128,3.128,0,0,0-.461-1.831,1.5,1.5,0,0,0-1.3-.649,1.474,1.474,0,0,0-1.281.646A3.516,3.516,0,0,0,120.712-4.144ZM132.6-6.336a6.134,6.134,0,0,0-.812-.062,1.654,1.654,0,0,0-1.68.867V0h-2.258V-8.453h2.133l.063,1.008a2.092,2.092,0,0,1,1.883-1.164,2.366,2.366,0,0,1,.7.1ZM137.3.156a4.15,4.15,0,0,1-3.027-1.141,4.054,4.054,0,0,1-1.168-3.039v-.219A5.106,5.106,0,0,1,133.6-6.52a3.612,3.612,0,0,1,1.395-1.547,3.914,3.914,0,0,1,2.059-.543,3.508,3.508,0,0,1,2.73,1.094,4.444,4.444,0,0,1,1,3.1v.922H135.4a2.1,2.1,0,0,0,.66,1.328,2,2,0,0,0,1.395.5,2.437,2.437,0,0,0,2.039-.945L140.6-1.367a3.389,3.389,0,0,1-1.375,1.121A4.511,4.511,0,0,1,137.3.156Zm-.258-6.945a1.411,1.411,0,0,0-1.09.455,2.357,2.357,0,0,0-.535,1.3h3.141v-.181a1.681,1.681,0,0,0-.406-1.165A1.456,1.456,0,0,0,137.045-6.789Zm9.594,4.453a.727.727,0,0,0-.41-.652,4.659,4.659,0,0,0-1.316-.426Q141.9-4.047,141.9-5.977a2.323,2.323,0,0,1,.934-1.879,3.766,3.766,0,0,1,2.441-.754,4.053,4.053,0,0,1,2.574.758,2.388,2.388,0,0,1,.965,1.969h-2.258a1.092,1.092,0,0,0-.312-.8A1.322,1.322,0,0,0,145.264-7a1.351,1.351,0,0,0-.883.258.814.814,0,0,0-.312.656.7.7,0,0,0,.355.605,3.657,3.657,0,0,0,1.2.4,9.8,9.8,0,0,1,1.422.379,2.336,2.336,0,0,1,1.789,2.273,2.205,2.205,0,0,1-.992,1.871,4.28,4.28,0,0,1-2.562.715,4.47,4.47,0,0,1-1.887-.379A3.166,3.166,0,0,1,142.1-1.262a2.414,2.414,0,0,1-.469-1.426h2.141a1.179,1.179,0,0,0,.445.922,1.766,1.766,0,0,0,1.109.32,1.635,1.635,0,0,0,.98-.246A.766.766,0,0,0,146.639-2.336Z" transform="translate(566 90.324)" fill="#3c3c3b"/>
      <path id="Trazado_843414" data-name="Trazado 843414" d="M7.578-3.2H2.414L1.242,0H.234l4.3-11.375h.914L9.758,0h-1ZM2.711-4.008H7.273L4.992-10.2ZM5.953-14.461H7.086l-1.8,2.188-.82,0Zm9.164,6.8a3.492,3.492,0,0,0-.633-.055A2.283,2.283,0,0,0,13-7.223,2.674,2.674,0,0,0,12.141-5.8V0h-.93V-8.453h.914l.016,1.344a2.486,2.486,0,0,1,2.383-1.5,1.538,1.538,0,0,1,.617.1ZM19.575.156a3.67,3.67,0,0,1-1.949-.531,3.62,3.62,0,0,1-1.355-1.48,4.616,4.616,0,0,1-.484-2.129V-4.32a4.974,4.974,0,0,1,.473-2.2,3.76,3.76,0,0,1,1.316-1.535A3.248,3.248,0,0,1,19.4-8.609a3.052,3.052,0,0,1,2.441,1.051,4.262,4.262,0,0,1,.9,2.871v.523H16.715v.18A3.539,3.539,0,0,0,17.54-1.59a2.622,2.622,0,0,0,2.074.957,3.046,3.046,0,0,0,1.324-.273,2.937,2.937,0,0,0,1.043-.875l.586.445A3.411,3.411,0,0,1,19.575.156ZM19.4-7.812a2.337,2.337,0,0,0-1.777.773,3.573,3.573,0,0,0-.879,2.078h5.07v-.1a3.1,3.1,0,0,0-.7-1.984A2.155,2.155,0,0,0,19.4-7.812ZM29.9,0a4.421,4.421,0,0,1-.18-1.18,3.26,3.26,0,0,1-1.254.988,3.84,3.84,0,0,1-1.613.348,2.834,2.834,0,0,1-1.973-.68,2.214,2.214,0,0,1-.754-1.719A2.262,2.262,0,0,1,25.157-4.2a4.936,4.936,0,0,1,2.863-.719h1.7v-.961A1.852,1.852,0,0,0,29.157-7.3a2.309,2.309,0,0,0-1.629-.52,2.549,2.549,0,0,0-1.617.5,1.486,1.486,0,0,0-.641,1.2l-.937-.008a2.174,2.174,0,0,1,.938-1.746,3.61,3.61,0,0,1,2.3-.738,3.293,3.293,0,0,1,2.23.707,2.537,2.537,0,0,1,.84,1.973v4A4.961,4.961,0,0,0,30.9-.094V0ZM26.965-.672a3.139,3.139,0,0,0,1.676-.453,2.666,2.666,0,0,0,1.074-1.211V-4.2H28.043a4.189,4.189,0,0,0-2.187.512,1.536,1.536,0,0,0-.789,1.363,1.511,1.511,0,0,0,.527,1.18A1.987,1.987,0,0,0,26.965-.672Zm5.977,2.8-.555-.406a3.4,3.4,0,0,0,.734-1.977V-1.469h.914v.977A3.364,3.364,0,0,1,32.942,2.125Zm8-10.578.031,1.375a3.129,3.129,0,0,1,1.172-1.148,3.214,3.214,0,0,1,1.563-.383,2.371,2.371,0,0,1,2.539,1.641,3.174,3.174,0,0,1,1.211-1.215,3.354,3.354,0,0,1,1.672-.426q2.719,0,2.773,2.969V0h-.937V-5.57a2.52,2.52,0,0,0-.488-1.68A1.988,1.988,0,0,0,48.911-7.8a2.49,2.49,0,0,0-1.7.652,2.305,2.305,0,0,0-.773,1.551V0H45.5V-5.641a2.316,2.316,0,0,0-.512-1.621A2.036,2.036,0,0,0,43.434-7.8a2.358,2.358,0,0,0-1.516.5,2.955,2.955,0,0,0-.937,1.5V0h-.937V-8.453ZM59.606,0a4.421,4.421,0,0,1-.18-1.18,3.26,3.26,0,0,1-1.254.988,3.84,3.84,0,0,1-1.613.348,2.834,2.834,0,0,1-1.973-.68,2.214,2.214,0,0,1-.754-1.719A2.262,2.262,0,0,1,54.86-4.2a4.936,4.936,0,0,1,2.863-.719h1.7v-.961A1.852,1.852,0,0,0,58.86-7.3a2.309,2.309,0,0,0-1.629-.52,2.549,2.549,0,0,0-1.617.5,1.486,1.486,0,0,0-.641,1.2l-.937-.008a2.174,2.174,0,0,1,.938-1.746,3.61,3.61,0,0,1,2.3-.738,3.293,3.293,0,0,1,2.23.707,2.537,2.537,0,0,1,.84,1.973v4a4.961,4.961,0,0,0,.258,1.836V0ZM56.668-.672a3.139,3.139,0,0,0,1.676-.453,2.666,2.666,0,0,0,1.074-1.211V-4.2H57.747a4.189,4.189,0,0,0-2.187.512A1.536,1.536,0,0,0,54.77-2.32a1.511,1.511,0,0,0,.527,1.18A1.987,1.987,0,0,0,56.668-.672Zm7.625-9.945v2.164h1.75v.766h-1.75v5.639A1.765,1.765,0,0,0,64.547-1a.984.984,0,0,0,.848.344,5.816,5.816,0,0,0,.758-.078l.039.759a3.056,3.056,0,0,1-1,.132,1.667,1.667,0,0,1-1.4-.559,2.63,2.63,0,0,1-.437-1.645V-7.687H61.8v-.766h1.555v-2.164ZM71.254.156a3.67,3.67,0,0,1-1.949-.531,3.62,3.62,0,0,1-1.355-1.48,4.616,4.616,0,0,1-.484-2.129V-4.32a4.974,4.974,0,0,1,.473-2.2,3.76,3.76,0,0,1,1.316-1.535,3.248,3.248,0,0,1,1.828-.559,3.052,3.052,0,0,1,2.441,1.051,4.262,4.262,0,0,1,.9,2.871v.523H68.4v.18a3.539,3.539,0,0,0,.824,2.395,2.622,2.622,0,0,0,2.074.957,3.046,3.046,0,0,0,1.324-.273,2.937,2.937,0,0,0,1.043-.875l.586.445A3.411,3.411,0,0,1,71.254.156Zm-.172-7.969a2.337,2.337,0,0,0-1.777.773,3.573,3.573,0,0,0-.879,2.078H73.5v-.1a3.1,3.1,0,0,0-.7-1.984A2.155,2.155,0,0,0,71.083-7.812Zm9.07.156a3.492,3.492,0,0,0-.633-.055,2.283,2.283,0,0,0-1.48.488A2.674,2.674,0,0,0,77.176-5.8V0h-.93V-8.453h.914l.016,1.344a2.486,2.486,0,0,1,2.383-1.5,1.538,1.538,0,0,1,.617.1ZM82.676,0h-.937V-8.453h.938Zm-1.1-10.895a.627.627,0,0,1,.172-.446.613.613,0,0,1,.469-.182.626.626,0,0,1,.473.182.619.619,0,0,1,.176.446.606.606,0,0,1-.176.443.633.633,0,0,1-.473.179.62.62,0,0,1-.469-.179A.613.613,0,0,1,81.575-10.895ZM90.551,0a4.421,4.421,0,0,1-.18-1.18,3.26,3.26,0,0,1-1.254.988A3.84,3.84,0,0,1,87.5.156a2.834,2.834,0,0,1-1.973-.68,2.214,2.214,0,0,1-.754-1.719A2.262,2.262,0,0,1,85.805-4.2a4.936,4.936,0,0,1,2.863-.719h1.7v-.961A1.852,1.852,0,0,0,89.805-7.3a2.309,2.309,0,0,0-1.629-.52,2.549,2.549,0,0,0-1.617.5,1.486,1.486,0,0,0-.641,1.2l-.937-.008a2.174,2.174,0,0,1,.938-1.746,3.61,3.61,0,0,1,2.3-.738,3.293,3.293,0,0,1,2.23.707,2.537,2.537,0,0,1,.84,1.973v4a4.961,4.961,0,0,0,.258,1.836V0ZM87.614-.672a3.139,3.139,0,0,0,1.676-.453,2.666,2.666,0,0,0,1.074-1.211V-4.2H88.692a4.189,4.189,0,0,0-2.187.512,1.536,1.536,0,0,0-.789,1.363,1.511,1.511,0,0,0,.527,1.18A1.987,1.987,0,0,0,87.614-.672Zm5.977,2.8-.555-.406A3.4,3.4,0,0,0,93.77-.258V-1.469h.914v.977A3.365,3.365,0,0,1,93.59,2.125ZM103.864-.633a2.469,2.469,0,0,0,1.637-.551,1.938,1.938,0,0,0,.715-1.426h.9a2.647,2.647,0,0,1-.484,1.41,3.035,3.035,0,0,1-1.184,1,3.567,3.567,0,0,1-1.582.359A3.266,3.266,0,0,1,101.227-1a4.674,4.674,0,0,1-.973-3.109v-.281a5.284,5.284,0,0,1,.438-2.211,3.371,3.371,0,0,1,1.254-1.484,3.461,3.461,0,0,1,1.91-.523,3.26,3.26,0,0,1,2.293.828,3.02,3.02,0,0,1,.965,2.18h-.9a2.3,2.3,0,0,0-.715-1.6,2.315,2.315,0,0,0-1.645-.609,2.331,2.331,0,0,0-1.965.914,4.136,4.136,0,0,0-.7,2.563v.273a4.043,4.043,0,0,0,.7,2.523A2.347,2.347,0,0,0,103.864-.633Zm10.555-.437a3.038,3.038,0,0,1-2.7,1.227,2.615,2.615,0,0,1-2.055-.785,3.439,3.439,0,0,1-.719-2.324v-5.5h.93V-3.07q0,2.414,1.953,2.414a2.394,2.394,0,0,0,2.57-1.68V-8.453h.938V0h-.906Zm7.258-6.586a3.492,3.492,0,0,0-.633-.055,2.283,2.283,0,0,0-1.48.488A2.674,2.674,0,0,0,118.7-5.8V0h-.93V-8.453h.914l.016,1.344a2.486,2.486,0,0,1,2.383-1.5,1.538,1.538,0,0,1,.617.1Zm6.539,5.508a1.332,1.332,0,0,0-.559-1.117,4.308,4.308,0,0,0-1.684-.66,7.6,7.6,0,0,1-1.746-.547,2.326,2.326,0,0,1-.922-.754A1.881,1.881,0,0,1,123-6.3a2.011,2.011,0,0,1,.836-1.652,3.377,3.377,0,0,1,2.141-.652,3.475,3.475,0,0,1,2.27.7,2.244,2.244,0,0,1,.855,1.824h-.937a1.514,1.514,0,0,0-.621-1.234,2.444,2.444,0,0,0-1.566-.492,2.445,2.445,0,0,0-1.48.41,1.266,1.266,0,0,0-.559,1.066,1.153,1.153,0,0,0,.465.98,4.917,4.917,0,0,0,1.7.637,7.968,7.968,0,0,1,1.844.617,2.388,2.388,0,0,1,.91.789,2.02,2.02,0,0,1,.3,1.117,2.025,2.025,0,0,1-.863,1.711,3.688,3.688,0,0,1-2.254.641,3.786,3.786,0,0,1-2.395-.715,2.2,2.2,0,0,1-.918-1.809h.938a1.626,1.626,0,0,0,.691,1.277,2.826,2.826,0,0,0,1.684.457,2.657,2.657,0,0,0,1.578-.43A1.29,1.29,0,0,0,128.215-2.148Zm2.523-2.2a4.974,4.974,0,0,1,.473-2.2,3.6,3.6,0,0,1,1.336-1.52,3.6,3.6,0,0,1,1.957-.543,3.477,3.477,0,0,1,2.734,1.184,4.561,4.561,0,0,1,1.047,3.137v.2a5.018,5.018,0,0,1-.473,2.207,3.529,3.529,0,0,1-1.332,1.512,3.652,3.652,0,0,1-1.961.531,3.48,3.48,0,0,1-2.73-1.184,4.55,4.55,0,0,1-1.051-3.137Zm.938.258a3.836,3.836,0,0,0,.785,2.488,2.518,2.518,0,0,0,2.059.973,2.51,2.51,0,0,0,2.051-.973,3.962,3.962,0,0,0,.785-2.566v-.18A4.3,4.3,0,0,0,137-6.125a2.888,2.888,0,0,0-1.008-1.246,2.575,2.575,0,0,0-1.484-.441,2.5,2.5,0,0,0-2.039.98,3.968,3.968,0,0,0-.789,2.566Zm15.109,2.75,2.469-7.109h1.008l-3.609,9.891-.187.438a2.27,2.27,0,0,1-2.148,1.539A2.622,2.622,0,0,1,143.6,3.3l-.008-.773.484.047a1.731,1.731,0,0,0,1.113-.34,2.579,2.579,0,0,0,.723-1.168l.414-1.141-3.187-8.383h1.023Zm4.789,2.32h-.852l4.75-12.352h.844Zm5.969-5.328a4.974,4.974,0,0,1,.473-2.2,3.6,3.6,0,0,1,1.336-1.52,3.6,3.6,0,0,1,1.957-.543,3.477,3.477,0,0,1,2.734,1.184,4.561,4.561,0,0,1,1.047,3.137v.2a5.018,5.018,0,0,1-.473,2.207,3.529,3.529,0,0,1-1.332,1.512,3.652,3.652,0,0,1-1.961.531,3.48,3.48,0,0,1-2.73-1.184,4.55,4.55,0,0,1-1.051-3.137Zm.938.258a3.836,3.836,0,0,0,.785,2.488,2.518,2.518,0,0,0,2.059.973,2.51,2.51,0,0,0,2.051-.973,3.962,3.962,0,0,0,.785-2.566v-.18a4.3,4.3,0,0,0-.359-1.773,2.888,2.888,0,0,0-1.008-1.246,2.575,2.575,0,0,0-1.484-.441,2.5,2.5,0,0,0-2.039.98,3.968,3.968,0,0,0-.789,2.566ZM174.036-.633a2.469,2.469,0,0,0,1.637-.551,1.938,1.938,0,0,0,.715-1.426h.9A2.647,2.647,0,0,1,176.8-1.2a3.035,3.035,0,0,1-1.184,1,3.567,3.567,0,0,1-1.582.359A3.266,3.266,0,0,1,171.4-1a4.674,4.674,0,0,1-.973-3.109v-.281a5.284,5.284,0,0,1,.438-2.211,3.372,3.372,0,0,1,1.254-1.484,3.461,3.461,0,0,1,1.91-.523,3.26,3.26,0,0,1,2.293.828,3.02,3.02,0,0,1,.965,2.18h-.9a2.3,2.3,0,0,0-.715-1.6,2.315,2.315,0,0,0-1.645-.609,2.331,2.331,0,0,0-1.965.914,4.136,4.136,0,0,0-.7,2.563v.273a4.043,4.043,0,0,0,.7,2.523A2.347,2.347,0,0,0,174.036-.633Zm4.6-3.719a4.974,4.974,0,0,1,.473-2.2,3.6,3.6,0,0,1,1.336-1.52,3.6,3.6,0,0,1,1.957-.543,3.477,3.477,0,0,1,2.734,1.184,4.561,4.561,0,0,1,1.047,3.137v.2a5.018,5.018,0,0,1-.473,2.207,3.529,3.529,0,0,1-1.332,1.512,3.652,3.652,0,0,1-1.961.531,3.48,3.48,0,0,1-2.73-1.184,4.55,4.55,0,0,1-1.051-3.137Zm.938.258a3.836,3.836,0,0,0,.785,2.488,2.518,2.518,0,0,0,2.059.973,2.51,2.51,0,0,0,2.051-.973,3.962,3.962,0,0,0,.785-2.566v-.18a4.3,4.3,0,0,0-.359-1.773,2.888,2.888,0,0,0-1.008-1.246,2.575,2.575,0,0,0-1.484-.441,2.5,2.5,0,0,0-2.039.98,3.968,3.968,0,0,0-.789,2.566Zm9.391-4.359L189-7.078a3.129,3.129,0,0,1,1.172-1.148,3.214,3.214,0,0,1,1.563-.383,2.371,2.371,0,0,1,2.539,1.641,3.174,3.174,0,0,1,1.211-1.215,3.354,3.354,0,0,1,1.672-.426q2.719,0,2.773,2.969V0h-.937V-5.57a2.52,2.52,0,0,0-.488-1.68,1.988,1.988,0,0,0-1.566-.547,2.49,2.49,0,0,0-1.7.652,2.305,2.305,0,0,0-.773,1.551V0h-.937V-5.641a2.316,2.316,0,0,0-.512-1.621,2.036,2.036,0,0,0-1.551-.535,2.358,2.358,0,0,0-1.516.5A2.955,2.955,0,0,0,189-5.8V0h-.937V-8.453ZM209.09-4.141A5.091,5.091,0,0,1,208.215-1a2.787,2.787,0,0,1-2.344,1.16,3.129,3.129,0,0,1-2.656-1.219V3.25h-.93v-11.7h.867l.047,1.2a3,3,0,0,1,2.648-1.352,2.812,2.812,0,0,1,2.379,1.148,5.2,5.2,0,0,1,.863,3.188Zm-.937-.164a4.348,4.348,0,0,0-.664-2.555,2.141,2.141,0,0,0-1.852-.937,2.588,2.588,0,0,0-1.477.414,2.6,2.6,0,0,0-.945,1.2v4.055a2.482,2.482,0,0,0,.961,1.109,2.771,2.771,0,0,0,1.477.383,2.121,2.121,0,0,0,1.84-.941A4.734,4.734,0,0,0,208.153-4.3ZM214.434.156a3.67,3.67,0,0,1-1.949-.531,3.62,3.62,0,0,1-1.355-1.48,4.616,4.616,0,0,1-.484-2.129V-4.32a4.974,4.974,0,0,1,.473-2.2,3.76,3.76,0,0,1,1.316-1.535,3.248,3.248,0,0,1,1.828-.559A3.052,3.052,0,0,1,216.7-7.559a4.262,4.262,0,0,1,.9,2.871v.523h-6.031v.18A3.539,3.539,0,0,0,212.4-1.59a2.622,2.622,0,0,0,2.074.957A3.046,3.046,0,0,0,215.8-.906a2.937,2.937,0,0,0,1.043-.875l.586.445A3.411,3.411,0,0,1,214.434.156Zm-.172-7.969a2.337,2.337,0,0,0-1.777.773,3.573,3.573,0,0,0-.879,2.078h5.07v-.1a3.1,3.1,0,0,0-.7-1.984A2.155,2.155,0,0,0,214.262-7.812Zm6.617-2.8v2.164h1.75v.766h-1.75v5.639A1.765,1.765,0,0,0,221.133-1a.984.984,0,0,0,.848.344,5.816,5.816,0,0,0,.758-.078l.039.759a3.056,3.056,0,0,1-1,.132,1.667,1.667,0,0,1-1.4-.559,2.629,2.629,0,0,1-.437-1.645V-7.687h-1.555v-.766h1.555v-2.164ZM227.84.156a3.67,3.67,0,0,1-1.949-.531,3.62,3.62,0,0,1-1.355-1.48,4.616,4.616,0,0,1-.484-2.129V-4.32a4.974,4.974,0,0,1,.473-2.2,3.76,3.76,0,0,1,1.316-1.535,3.248,3.248,0,0,1,1.828-.559,3.052,3.052,0,0,1,2.441,1.051,4.262,4.262,0,0,1,.9,2.871v.523h-6.031v.18a3.539,3.539,0,0,0,.824,2.395,2.622,2.622,0,0,0,2.074.957A3.046,3.046,0,0,0,229.2-.906a2.937,2.937,0,0,0,1.043-.875l.586.445A3.411,3.411,0,0,1,227.84.156Zm-.172-7.969a2.337,2.337,0,0,0-1.777.773,3.573,3.573,0,0,0-.879,2.078h5.07v-.1a3.1,3.1,0,0,0-.7-1.984A2.155,2.155,0,0,0,227.669-7.812Zm6.055-.641.031,1.445A3.357,3.357,0,0,1,234.942-8.2a3.086,3.086,0,0,1,1.57-.41,2.536,2.536,0,0,1,2.023.766,3.453,3.453,0,0,1,.672,2.3V0h-.93V-5.555a2.582,2.582,0,0,0-.48-1.687,1.882,1.882,0,0,0-1.512-.555,2.365,2.365,0,0,0-1.535.543,3.181,3.181,0,0,0-.988,1.465V0h-.93V-8.453Zm11.023,7.82a2.469,2.469,0,0,0,1.637-.551,1.938,1.938,0,0,0,.715-1.426h.9a2.647,2.647,0,0,1-.484,1.41,3.035,3.035,0,0,1-1.184,1,3.567,3.567,0,0,1-1.582.359A3.266,3.266,0,0,1,242.11-1a4.674,4.674,0,0,1-.973-3.109v-.281a5.284,5.284,0,0,1,.438-2.211,3.372,3.372,0,0,1,1.254-1.484,3.461,3.461,0,0,1,1.91-.523,3.26,3.26,0,0,1,2.293.828A3.02,3.02,0,0,1,248-5.6h-.9a2.3,2.3,0,0,0-.715-1.6,2.315,2.315,0,0,0-1.645-.609,2.331,2.331,0,0,0-1.965.914,4.136,4.136,0,0,0-.7,2.563v.273a4.043,4.043,0,0,0,.7,2.523A2.347,2.347,0,0,0,244.747-.633ZM250.911,0h-.937V-8.453h.938Zm-1.1-10.895a.627.627,0,0,1,.172-.446.613.613,0,0,1,.469-.182.626.626,0,0,1,.473.182.619.619,0,0,1,.176.446.606.606,0,0,1-.176.443.633.633,0,0,1-.473.179.62.62,0,0,1-.469-.179A.613.613,0,0,1,249.809-10.895ZM258.786,0a4.421,4.421,0,0,1-.18-1.18,3.26,3.26,0,0,1-1.254.988,3.84,3.84,0,0,1-1.613.348,2.834,2.834,0,0,1-1.973-.68,2.214,2.214,0,0,1-.754-1.719A2.262,2.262,0,0,1,254.04-4.2a4.936,4.936,0,0,1,2.863-.719h1.7v-.961A1.852,1.852,0,0,0,258.04-7.3a2.309,2.309,0,0,0-1.629-.52,2.549,2.549,0,0,0-1.617.5,1.486,1.486,0,0,0-.641,1.2l-.937-.008a2.174,2.174,0,0,1,.938-1.746,3.61,3.61,0,0,1,2.3-.738,3.293,3.293,0,0,1,2.23.707,2.537,2.537,0,0,1,.84,1.973v4a4.961,4.961,0,0,0,.258,1.836V0Zm-2.938-.672a3.139,3.139,0,0,0,1.676-.453A2.666,2.666,0,0,0,258.6-2.336V-4.2h-1.672a4.189,4.189,0,0,0-2.188.512,1.536,1.536,0,0,0-.789,1.363,1.511,1.511,0,0,0,.527,1.18A1.987,1.987,0,0,0,255.848-.672Zm6.086.109a.662.662,0,0,1,.176-.465.63.63,0,0,1,.488-.191.642.642,0,0,1,.492.191.654.654,0,0,1,.18.465.6.6,0,0,1-.18.449.674.674,0,0,1-.492.176.66.66,0,0,1-.488-.176A.608.608,0,0,1,261.934-.562Z" transform="translate(72.46 207.673)" fill="#3c3c3b"/>
      <g id="Grupo_1083451" data-name="Grupo 1083451">
        <g id="Grupo_1083450" data-name="Grupo 1083450" clip-path="url(#clip-path)">
          <path id="Trazado_843314" data-name="Trazado 843314" d="M565.818,137.654h-272.9v-15.4a25.09,25.09,0,0,1,25.089-25.091h272.9v15.4a25.089,25.089,0,0,1-25.089,25.089" transform="translate(198.696 65.909)" fill="#0a5e6b"/>
        </g>
      </g>
      <path id="Trazado_843417" data-name="Trazado 843417" d="M9.578-9.477H6.094V0H3.75V-9.477H.313v-1.9H9.578ZM13.273.156A4.15,4.15,0,0,1,10.246-.984,4.054,4.054,0,0,1,9.078-4.023v-.219A5.106,5.106,0,0,1,9.57-6.52a3.612,3.612,0,0,1,1.395-1.547,3.914,3.914,0,0,1,2.059-.543,3.508,3.508,0,0,1,2.73,1.094,4.444,4.444,0,0,1,1,3.1v.922H11.367a2.1,2.1,0,0,0,.66,1.328,2,2,0,0,0,1.395.5,2.437,2.437,0,0,0,2.039-.945L16.57-1.367A3.389,3.389,0,0,1,15.195-.246,4.511,4.511,0,0,1,13.273.156Zm-.258-6.945a1.411,1.411,0,0,0-1.09.455,2.357,2.357,0,0,0-.535,1.3h3.141v-.181a1.681,1.681,0,0,0-.406-1.165A1.456,1.456,0,0,0,13.015-6.789Zm7.133-1.664.07.945a2.971,2.971,0,0,1,2.43-1.1A2.255,2.255,0,0,1,24.89-7.32a2.9,2.9,0,0,1,2.539-1.289,2.521,2.521,0,0,1,2.047.8,3.681,3.681,0,0,1,.672,2.41V0H27.882V-5.391A1.61,1.61,0,0,0,27.6-6.441a1.246,1.246,0,0,0-.992-.332A1.409,1.409,0,0,0,25.2-5.8L25.21,0H22.953V-5.383a1.59,1.59,0,0,0-.289-1.062,1.259,1.259,0,0,0-.984-.328,1.463,1.463,0,0,0-1.391.8V0H18.031V-8.453ZM36.781,0a2.507,2.507,0,0,1-.227-.758,2.732,2.732,0,0,1-2.133.914,3,3,0,0,1-2.059-.719,2.312,2.312,0,0,1-.816-1.812,2.389,2.389,0,0,1,1-2.062,4.915,4.915,0,0,1,2.879-.727H36.46v-.484a1.393,1.393,0,0,0-.3-.937,1.183,1.183,0,0,0-.949-.352,1.345,1.345,0,0,0-.895.273.929.929,0,0,0-.324.75H31.734a2.268,2.268,0,0,1,.453-1.359,3,3,0,0,1,1.281-.98,4.669,4.669,0,0,1,1.859-.355,3.689,3.689,0,0,1,2.48.785,2.747,2.747,0,0,1,.918,2.207v3.664a4.041,4.041,0,0,0,.336,1.82V0ZM34.914-1.57a1.945,1.945,0,0,0,.922-.223,1.462,1.462,0,0,0,.625-.6V-3.844h-.844q-1.7,0-1.8,1.172l-.008.133a.9.9,0,0,0,.3.7A1.153,1.153,0,0,0,34.914-1.57ZM35.773-12h2.461L36.07-9.578H34.234Zm7.391,1.469v2.078h1.445V-6.8H43.164v4.219a1.007,1.007,0,0,0,.18.672.9.9,0,0,0,.688.2,3.6,3.6,0,0,0,.664-.055V-.047a4.648,4.648,0,0,1-1.367.2,2.156,2.156,0,0,1-2.422-2.4V-6.8H39.671V-8.453h1.234v-2.078ZM48.25,0H45.984V-8.453H48.25Zm-2.4-10.641a1.112,1.112,0,0,1,.34-.836,1.277,1.277,0,0,1,.926-.328,1.28,1.28,0,0,1,.922.328,1.105,1.105,0,0,1,.344.836,1.108,1.108,0,0,1-.348.844,1.283,1.283,0,0,1-.918.328A1.283,1.283,0,0,1,46.2-9.8,1.108,1.108,0,0,1,45.851-10.641Zm7.773,8.977a1.481,1.481,0,0,0,1.016-.344,1.2,1.2,0,0,0,.406-.914h2.117a2.9,2.9,0,0,1-.469,1.574A3.093,3.093,0,0,1,55.433-.238a3.949,3.949,0,0,1-1.77.395A3.67,3.67,0,0,1,50.8-1,4.56,4.56,0,0,1,49.757-4.18v-.148A4.508,4.508,0,0,1,50.8-7.445a3.627,3.627,0,0,1,2.852-1.164,3.555,3.555,0,0,1,2.543.9,3.2,3.2,0,0,1,.973,2.4H55.046a1.551,1.551,0,0,0-.406-1.072,1.354,1.354,0,0,0-1.031-.412,1.36,1.36,0,0,0-1.191.575,3.333,3.333,0,0,0-.4,1.866v.235a3.375,3.375,0,0,0,.4,1.878A1.377,1.377,0,0,0,53.625-1.664ZM63.351,0a2.507,2.507,0,0,1-.227-.758,2.732,2.732,0,0,1-2.133.914,3,3,0,0,1-2.059-.719,2.312,2.312,0,0,1-.816-1.812,2.389,2.389,0,0,1,1-2.062,4.915,4.915,0,0,1,2.879-.727h1.039v-.484a1.393,1.393,0,0,0-.3-.937,1.183,1.183,0,0,0-.949-.352,1.345,1.345,0,0,0-.895.273.929.929,0,0,0-.324.75H58.3a2.268,2.268,0,0,1,.453-1.359,3,3,0,0,1,1.281-.98A4.669,4.669,0,0,1,61.9-8.609a3.689,3.689,0,0,1,2.48.785A2.747,2.747,0,0,1,65.3-5.617v3.664a4.041,4.041,0,0,0,.336,1.82V0ZM61.484-1.57a1.945,1.945,0,0,0,.922-.223,1.462,1.462,0,0,0,.625-.6V-3.844h-.844q-1.7,0-1.8,1.172l-.008.133a.9.9,0,0,0,.3.7A1.153,1.153,0,0,0,61.484-1.57Z" transform="translate(610.567 188.673)" fill="#fff"/>
      <g id="Grupo_1083453" data-name="Grupo 1083453">
        <g id="Grupo_1083452" data-name="Grupo 1083452" clip-path="url(#clip-path)">
          <path id="Trazado_843315" data-name="Trazado 843315" d="M324.812,47.219a72.156,72.156,0,0,1-55.5,26.872c-2.7.01-2.7,4.206,0,4.2a76.17,76.17,0,0,0,58.466-28.1c1.673-2.086-1.277-5.074-2.967-2.967" transform="translate(181.307 31.542)" fill="#3c3c3b"/>
          <path id="Trazado_843316" data-name="Trazado 843316" d="M275.333,59.248a41.208,41.208,0,0,0-8.7,6.859,2.134,2.134,0,0,0,.425,3.295,35.981,35.981,0,0,0,8.9,4.721,2.109,2.109,0,0,0,2.581-1.465,2.154,2.154,0,0,0-1.465-2.581c-.368-.134-.73-.275-1.094-.42-.6-.237.369.166-.218-.091-.18-.077-.359-.156-.537-.237q-1.065-.483-2.1-1.042a33.923,33.923,0,0,1-3.953-2.509q.211,1.646.425,3.295a38.969,38.969,0,0,1,3.838-3.489l.23-.181c-.166.128-.153.117.042-.03.156-.117.312-.235.472-.351q.514-.378,1.039-.735,1.093-.745,2.234-1.415a2.1,2.1,0,0,0-2.118-3.624" transform="translate(180.452 39.998)" fill="#3c3c3b"/>
          <path id="Trazado_843317" data-name="Trazado 843317" d="M324.812,105.979a72.156,72.156,0,0,1-55.5,26.872c-2.7.01-2.7,4.206,0,4.2a76.165,76.165,0,0,0,58.466-28.1c1.673-2.086-1.277-5.074-2.967-2.967" transform="translate(181.307 71.4)" fill="#3c3c3b"/>
          <path id="Trazado_843318" data-name="Trazado 843318" d="M275.333,118.007a41.207,41.207,0,0,0-8.7,6.859,2.134,2.134,0,0,0,.425,3.295,35.98,35.98,0,0,0,8.9,4.721,2.109,2.109,0,0,0,2.581-1.465,2.154,2.154,0,0,0-1.465-2.581c-.368-.134-.73-.275-1.094-.42-.6-.237.369.166-.218-.091-.18-.077-.359-.156-.537-.237q-1.065-.483-2.1-1.042a33.925,33.925,0,0,1-3.953-2.509q.211,1.646.425,3.295a38.971,38.971,0,0,1,3.838-3.489l.23-.181c-.166.128-.153.117.042-.03.156-.117.312-.235.472-.351q.514-.378,1.039-.735,1.093-.745,2.234-1.415a2.1,2.1,0,0,0-2.118-3.624" transform="translate(180.452 79.856)" fill="#3c3c3b"/>
        </g>
      </g>
      <path id="Trazado_843415" data-name="Trazado 843415" d="M7.719-5.453H2.4V-.812H8.516V0H1.438V-11.375H8.477v.813H2.4v4.3h5.32Zm5.258.43,2.281-3.43h1.109L13.5-4.3,16.492,0h-1.1L12.984-3.578,10.578,0h-1.1l2.984-4.3L9.594-8.453h1.1ZM24.9-4.141A5.091,5.091,0,0,1,24.023-1,2.787,2.787,0,0,1,21.68.156a3.129,3.129,0,0,1-2.656-1.219V3.25h-.93v-11.7h.867l.047,1.2a3,3,0,0,1,2.648-1.352,2.812,2.812,0,0,1,2.379,1.148A5.2,5.2,0,0,1,24.9-4.273ZM23.961-4.3A4.348,4.348,0,0,0,23.3-6.859,2.141,2.141,0,0,0,21.445-7.8a2.588,2.588,0,0,0-1.477.414,2.6,2.6,0,0,0-.945,1.2v4.055a2.482,2.482,0,0,0,.961,1.109,2.771,2.771,0,0,0,1.477.383,2.121,2.121,0,0,0,1.84-.941A4.734,4.734,0,0,0,23.961-4.3ZM28.016,0h-.937V-12h.938ZM31.6,0h-.937V-8.453H31.6ZM30.5-10.895a.627.627,0,0,1,.172-.446.613.613,0,0,1,.469-.182.626.626,0,0,1,.473.182.619.619,0,0,1,.176.446.606.606,0,0,1-.176.443.633.633,0,0,1-.473.179.62.62,0,0,1-.469-.179A.613.613,0,0,1,30.5-10.895ZM37.266-.633A2.469,2.469,0,0,0,38.9-1.184a1.938,1.938,0,0,0,.715-1.426h.9a2.647,2.647,0,0,1-.484,1.41,3.035,3.035,0,0,1-1.184,1,3.567,3.567,0,0,1-1.582.359A3.266,3.266,0,0,1,34.629-1a4.674,4.674,0,0,1-.973-3.109v-.281A5.284,5.284,0,0,1,34.094-6.6a3.371,3.371,0,0,1,1.254-1.484,3.461,3.461,0,0,1,1.91-.523,3.26,3.26,0,0,1,2.293.828,3.02,3.02,0,0,1,.965,2.18h-.9A2.3,2.3,0,0,0,38.9-7.2a2.315,2.315,0,0,0-1.645-.609,2.331,2.331,0,0,0-1.965.914,4.136,4.136,0,0,0-.7,2.563v.273a4.043,4.043,0,0,0,.7,2.523A2.347,2.347,0,0,0,37.266-.633ZM43.43,0h-.937V-8.453h.938Zm-1.1-10.895a.627.627,0,0,1,.172-.446.613.613,0,0,1,.469-.182.626.626,0,0,1,.473.182.619.619,0,0,1,.176.446.606.606,0,0,1-.176.443.633.633,0,0,1-.473.179.62.62,0,0,1-.469-.179A.613.613,0,0,1,42.328-10.895Zm5.094.277v2.164h1.75v.766h-1.75v5.639A1.765,1.765,0,0,0,47.676-1a.984.984,0,0,0,.848.344,5.816,5.816,0,0,0,.758-.078l.039.759a3.056,3.056,0,0,1-1,.132,1.667,1.667,0,0,1-1.4-.559,2.63,2.63,0,0,1-.437-1.645V-7.687H44.93v-.766h1.555v-2.164ZM50.31-4.352a4.974,4.974,0,0,1,.473-2.2,3.6,3.6,0,0,1,1.336-1.52,3.6,3.6,0,0,1,1.957-.543A3.477,3.477,0,0,1,56.81-7.426a4.561,4.561,0,0,1,1.047,3.137v.2a5.018,5.018,0,0,1-.473,2.207A3.529,3.529,0,0,1,56.052-.375a3.652,3.652,0,0,1-1.961.531,3.48,3.48,0,0,1-2.73-1.184A4.55,4.55,0,0,1,50.31-4.164Zm.938.258a3.836,3.836,0,0,0,.785,2.488,2.518,2.518,0,0,0,2.059.973,2.51,2.51,0,0,0,2.051-.973,3.962,3.962,0,0,0,.785-2.566v-.18a4.3,4.3,0,0,0-.359-1.773A2.888,2.888,0,0,0,55.56-7.371a2.575,2.575,0,0,0-1.484-.441,2.5,2.5,0,0,0-2.039.98,3.968,3.968,0,0,0-.789,2.566Zm13.6,1.945a1.332,1.332,0,0,0-.559-1.117,4.308,4.308,0,0,0-1.684-.66,7.6,7.6,0,0,1-1.746-.547,2.326,2.326,0,0,1-.922-.754,1.881,1.881,0,0,1-.3-1.078,2.011,2.011,0,0,1,.836-1.652,3.377,3.377,0,0,1,2.141-.652,3.475,3.475,0,0,1,2.27.7,2.244,2.244,0,0,1,.855,1.824H64.8a1.514,1.514,0,0,0-.621-1.234,2.444,2.444,0,0,0-1.566-.492,2.445,2.445,0,0,0-1.48.41,1.266,1.266,0,0,0-.559,1.066,1.153,1.153,0,0,0,.465.98,4.917,4.917,0,0,0,1.7.637,7.968,7.968,0,0,1,1.844.617,2.388,2.388,0,0,1,.91.789,2.02,2.02,0,0,1,.3,1.117,2.025,2.025,0,0,1-.863,1.711,3.688,3.688,0,0,1-2.254.641,3.786,3.786,0,0,1-2.395-.715,2.2,2.2,0,0,1-.918-1.809h.938a1.626,1.626,0,0,0,.691,1.277,2.826,2.826,0,0,0,1.684.457,2.657,2.657,0,0,0,1.578-.43A1.29,1.29,0,0,0,64.849-2.148Zm10.2,2.3A3.67,3.67,0,0,1,73.1-.375a3.62,3.62,0,0,1-1.355-1.48,4.616,4.616,0,0,1-.484-2.129V-4.32a4.974,4.974,0,0,1,.473-2.2,3.76,3.76,0,0,1,1.316-1.535,3.248,3.248,0,0,1,1.828-.559,3.052,3.052,0,0,1,2.441,1.051,4.262,4.262,0,0,1,.9,2.871v.523H72.192v.18a3.539,3.539,0,0,0,.824,2.395,2.622,2.622,0,0,0,2.074.957,3.046,3.046,0,0,0,1.324-.273,2.937,2.937,0,0,0,1.043-.875l.586.445A3.411,3.411,0,0,1,75.052.156ZM74.88-7.812a2.337,2.337,0,0,0-1.777.773,3.573,3.573,0,0,0-.879,2.078h5.07v-.1a3.1,3.1,0,0,0-.7-1.984A2.155,2.155,0,0,0,74.88-7.812Zm6.055-.641.031,1.445A3.357,3.357,0,0,1,82.153-8.2a3.086,3.086,0,0,1,1.57-.41,2.536,2.536,0,0,1,2.023.766,3.453,3.453,0,0,1,.672,2.3V0h-.93V-5.555a2.583,2.583,0,0,0-.48-1.687A1.882,1.882,0,0,0,83.5-7.8a2.365,2.365,0,0,0-1.535.543,3.181,3.181,0,0,0-.988,1.465V0h-.93V-8.453ZM96,.156a3.67,3.67,0,0,1-1.949-.531,3.62,3.62,0,0,1-1.355-1.48,4.616,4.616,0,0,1-.484-2.129V-4.32a4.974,4.974,0,0,1,.473-2.2A3.76,3.76,0,0,1,94-8.051a3.248,3.248,0,0,1,1.828-.559,3.052,3.052,0,0,1,2.441,1.051,4.262,4.262,0,0,1,.9,2.871v.523H93.138v.18a3.539,3.539,0,0,0,.824,2.395,2.622,2.622,0,0,0,2.074.957A3.046,3.046,0,0,0,97.36-.906,2.937,2.937,0,0,0,98.4-1.781l.586.445A3.411,3.411,0,0,1,96,.156Zm-.172-7.969a2.337,2.337,0,0,0-1.777.773,3.573,3.573,0,0,0-.879,2.078h5.07v-.1a3.1,3.1,0,0,0-.7-1.984A2.155,2.155,0,0,0,95.825-7.812ZM102.036,0H101.1V-12h.938ZM111.1-1.289l2.57-7.164h.961L111.474,0h-.758l-3.172-8.453h.961ZM117.208,0h-.937V-8.453h.938Zm-1.1-10.895a.627.627,0,0,1,.172-.446.613.613,0,0,1,.469-.182.626.626,0,0,1,.473.182.619.619,0,0,1,.176.446.606.606,0,0,1-.176.443.633.633,0,0,1-.473.179.62.62,0,0,1-.469-.179A.613.613,0,0,1,116.106-10.895Zm3.266,6.59a5.1,5.1,0,0,1,.879-3.137,2.829,2.829,0,0,1,2.387-1.168,2.94,2.94,0,0,1,2.609,1.352V-12h.93V0H125.3l-.039-1.125A3.019,3.019,0,0,1,122.622.156a2.819,2.819,0,0,1-2.355-1.176,5.121,5.121,0,0,1-.895-3.176Zm.945.164a4.408,4.408,0,0,0,.648,2.551,2.1,2.1,0,0,0,1.828.934,2.516,2.516,0,0,0,2.453-1.523V-6.148A2.5,2.5,0,0,0,122.81-7.8a2.122,2.122,0,0,0-1.836.926A4.711,4.711,0,0,0,120.317-4.141Zm11.594,4.3a3.67,3.67,0,0,1-1.949-.531,3.62,3.62,0,0,1-1.355-1.48,4.616,4.616,0,0,1-.484-2.129V-4.32a4.974,4.974,0,0,1,.473-2.2,3.76,3.76,0,0,1,1.316-1.535,3.248,3.248,0,0,1,1.828-.559,3.052,3.052,0,0,1,2.441,1.051,4.262,4.262,0,0,1,.9,2.871v.523h-6.031v.18a3.539,3.539,0,0,0,.824,2.395,2.622,2.622,0,0,0,2.074.957,3.046,3.046,0,0,0,1.324-.273,2.937,2.937,0,0,0,1.043-.875l.586.445A3.411,3.411,0,0,1,131.911.156Zm-.172-7.969a2.337,2.337,0,0,0-1.777.773,3.573,3.573,0,0,0-.879,2.078h5.07v-.1a3.1,3.1,0,0,0-.7-1.984A2.155,2.155,0,0,0,131.739-7.812Zm4.648,3.461a4.974,4.974,0,0,1,.473-2.2,3.6,3.6,0,0,1,1.336-1.52,3.6,3.6,0,0,1,1.957-.543,3.477,3.477,0,0,1,2.734,1.184,4.561,4.561,0,0,1,1.047,3.137v.2a5.018,5.018,0,0,1-.473,2.207A3.529,3.529,0,0,1,142.13-.375a3.652,3.652,0,0,1-1.961.531,3.48,3.48,0,0,1-2.73-1.184,4.55,4.55,0,0,1-1.051-3.137Zm.938.258a3.836,3.836,0,0,0,.785,2.488,2.518,2.518,0,0,0,2.059.973,2.51,2.51,0,0,0,2.051-.973A3.962,3.962,0,0,0,143-4.172v-.18a4.3,4.3,0,0,0-.359-1.773,2.888,2.888,0,0,0-1.008-1.246,2.575,2.575,0,0,0-1.484-.441,2.5,2.5,0,0,0-2.039.98,3.968,3.968,0,0,0-.789,2.566Zm11.914-.258a4.974,4.974,0,0,1,.473-2.2,3.6,3.6,0,0,1,1.336-1.52A3.6,3.6,0,0,1,153-8.609a3.477,3.477,0,0,1,2.734,1.184,4.561,4.561,0,0,1,1.047,3.137v.2a5.018,5.018,0,0,1-.473,2.207,3.529,3.529,0,0,1-1.332,1.512,3.652,3.652,0,0,1-1.961.531,3.48,3.48,0,0,1-2.73-1.184,4.55,4.55,0,0,1-1.051-3.137Zm.938.258a3.836,3.836,0,0,0,.785,2.488,2.518,2.518,0,0,0,2.059.973,2.51,2.51,0,0,0,2.051-.973,3.962,3.962,0,0,0,.785-2.566v-.18a4.3,4.3,0,0,0-.359-1.773,2.888,2.888,0,0,0-1.008-1.246A2.575,2.575,0,0,0,153-7.812a2.5,2.5,0,0,0-2.039.98,3.968,3.968,0,0,0-.789,2.566Zm15.7,4.25a3.67,3.67,0,0,1-1.949-.531,3.62,3.62,0,0,1-1.355-1.48,4.616,4.616,0,0,1-.484-2.129V-4.32a4.974,4.974,0,0,1,.473-2.2,3.76,3.76,0,0,1,1.316-1.535,3.248,3.248,0,0,1,1.828-.559,3.052,3.052,0,0,1,2.441,1.051,4.262,4.262,0,0,1,.9,2.871v.523H163.02v.18a3.539,3.539,0,0,0,.824,2.395,2.622,2.622,0,0,0,2.074.957,3.046,3.046,0,0,0,1.324-.273,2.937,2.937,0,0,0,1.043-.875l.586.445A3.411,3.411,0,0,1,165.88.156Zm-.172-7.969a2.337,2.337,0,0,0-1.777.773,3.573,3.573,0,0,0-.879,2.078h5.07v-.1a3.1,3.1,0,0,0-.7-1.984A2.155,2.155,0,0,0,165.708-7.812Zm6.055-.641.031,1.445A3.357,3.357,0,0,1,172.981-8.2a3.086,3.086,0,0,1,1.57-.41,2.536,2.536,0,0,1,2.023.766,3.453,3.453,0,0,1,.672,2.3V0h-.93V-5.555a2.582,2.582,0,0,0-.48-1.687,1.882,1.882,0,0,0-1.512-.555,2.365,2.365,0,0,0-1.535.543,3.181,3.181,0,0,0-.988,1.465V0h-.93V-8.453ZM184.6,0h-.937V-12h.938Zm7.875,0a4.421,4.421,0,0,1-.18-1.18,3.26,3.26,0,0,1-1.254.988,3.84,3.84,0,0,1-1.613.348,2.834,2.834,0,0,1-1.973-.68,2.214,2.214,0,0,1-.754-1.719A2.262,2.262,0,0,1,187.727-4.2a4.936,4.936,0,0,1,2.863-.719h1.7v-.961a1.852,1.852,0,0,0-.559-1.426,2.309,2.309,0,0,0-1.629-.52,2.549,2.549,0,0,0-1.617.5,1.486,1.486,0,0,0-.641,1.2l-.937-.008a2.174,2.174,0,0,1,.938-1.746,3.61,3.61,0,0,1,2.3-.738,3.293,3.293,0,0,1,2.23.707,2.537,2.537,0,0,1,.84,1.973v4a4.961,4.961,0,0,0,.258,1.836V0Zm-2.937-.672a3.139,3.139,0,0,0,1.676-.453,2.666,2.666,0,0,0,1.074-1.211V-4.2h-1.672a4.189,4.189,0,0,0-2.187.512,1.536,1.536,0,0,0-.789,1.363,1.511,1.511,0,0,0,.527,1.18A1.987,1.987,0,0,0,189.536-.672ZM199.224-4.3a5.1,5.1,0,0,1,.879-3.137,2.829,2.829,0,0,1,2.387-1.168A2.94,2.94,0,0,1,205.1-7.258V-12h.93V0h-.875l-.039-1.125A3.019,3.019,0,0,1,202.474.156a2.819,2.819,0,0,1-2.355-1.176,5.121,5.121,0,0,1-.895-3.176Zm.945.164a4.408,4.408,0,0,0,.648,2.551,2.1,2.1,0,0,0,1.828.934A2.516,2.516,0,0,0,205.1-2.18V-6.148A2.5,2.5,0,0,0,202.661-7.8a2.122,2.122,0,0,0-1.836.926A4.711,4.711,0,0,0,200.169-4.141Zm7.8-.211a4.974,4.974,0,0,1,.473-2.2,3.6,3.6,0,0,1,1.336-1.52,3.6,3.6,0,0,1,1.957-.543,3.477,3.477,0,0,1,2.734,1.184,4.561,4.561,0,0,1,1.047,3.137v.2a5.018,5.018,0,0,1-.473,2.207,3.529,3.529,0,0,1-1.332,1.512,3.652,3.652,0,0,1-1.961.531,3.48,3.48,0,0,1-2.73-1.184,4.55,4.55,0,0,1-1.051-3.137Zm.938.258a3.836,3.836,0,0,0,.785,2.488,2.518,2.518,0,0,0,2.059.973,2.51,2.51,0,0,0,2.051-.973,3.962,3.962,0,0,0,.785-2.566v-.18a4.3,4.3,0,0,0-.359-1.773,2.888,2.888,0,0,0-1.008-1.246,2.575,2.575,0,0,0-1.484-.441,2.5,2.5,0,0,0-2.039.98,3.968,3.968,0,0,0-.789,2.566ZM220.575-.633a2.469,2.469,0,0,0,1.637-.551,1.938,1.938,0,0,0,.715-1.426h.9a2.647,2.647,0,0,1-.484,1.41,3.035,3.035,0,0,1-1.184,1,3.567,3.567,0,0,1-1.582.359A3.266,3.266,0,0,1,217.938-1a4.674,4.674,0,0,1-.973-3.109v-.281A5.284,5.284,0,0,1,217.4-6.6a3.372,3.372,0,0,1,1.254-1.484,3.461,3.461,0,0,1,1.91-.523,3.26,3.26,0,0,1,2.293.828,3.02,3.02,0,0,1,.965,2.18h-.9a2.3,2.3,0,0,0-.715-1.6,2.315,2.315,0,0,0-1.645-.609A2.331,2.331,0,0,0,218.6-6.9a4.136,4.136,0,0,0-.7,2.563v.273a4.043,4.043,0,0,0,.7,2.523A2.347,2.347,0,0,0,220.575-.633ZM231.13-1.07a3.038,3.038,0,0,1-2.7,1.227,2.615,2.615,0,0,1-2.055-.785,3.439,3.439,0,0,1-.719-2.324v-5.5h.93V-3.07q0,2.414,1.953,2.414a2.394,2.394,0,0,0,2.57-1.68V-8.453h.938V0h-.906Zm4.2-7.383.031,1.375a3.129,3.129,0,0,1,1.172-1.148,3.214,3.214,0,0,1,1.563-.383,2.371,2.371,0,0,1,2.539,1.641,3.174,3.174,0,0,1,1.211-1.215,3.354,3.354,0,0,1,1.672-.426q2.719,0,2.773,2.969V0h-.937V-5.57a2.52,2.52,0,0,0-.488-1.68A1.988,1.988,0,0,0,243.3-7.8a2.49,2.49,0,0,0-1.7.652,2.305,2.305,0,0,0-.773,1.551V0h-.937V-5.641a2.316,2.316,0,0,0-.512-1.621,2.036,2.036,0,0,0-1.551-.535,2.358,2.358,0,0,0-1.516.5,2.955,2.955,0,0,0-.937,1.5V0h-.937V-8.453Zm16.6,8.609a3.67,3.67,0,0,1-1.949-.531,3.62,3.62,0,0,1-1.355-1.48,4.616,4.616,0,0,1-.484-2.129V-4.32a4.974,4.974,0,0,1,.473-2.2,3.76,3.76,0,0,1,1.316-1.535,3.248,3.248,0,0,1,1.828-.559A3.052,3.052,0,0,1,254.2-7.559a4.262,4.262,0,0,1,.9,2.871v.523h-6.031v.18A3.539,3.539,0,0,0,249.9-1.59a2.622,2.622,0,0,0,2.074.957A3.046,3.046,0,0,0,253.3-.906a2.937,2.937,0,0,0,1.043-.875l.586.445A3.411,3.411,0,0,1,251.935.156Zm-.172-7.969a2.337,2.337,0,0,0-1.777.773,3.573,3.573,0,0,0-.879,2.078h5.07v-.1a3.1,3.1,0,0,0-.7-1.984A2.155,2.155,0,0,0,251.763-7.812Zm6.055-.641.031,1.445A3.357,3.357,0,0,1,259.036-8.2a3.086,3.086,0,0,1,1.57-.41,2.536,2.536,0,0,1,2.023.766,3.453,3.453,0,0,1,.672,2.3V0h-.93V-5.555a2.583,2.583,0,0,0-.48-1.687A1.882,1.882,0,0,0,260.38-7.8a2.365,2.365,0,0,0-1.535.543,3.181,3.181,0,0,0-.988,1.465V0h-.93V-8.453Zm9.352-2.164v2.164h1.75v.766h-1.75v5.639A1.765,1.765,0,0,0,267.423-1a.984.984,0,0,0,.848.344,5.816,5.816,0,0,0,.758-.078l.039.759a3.056,3.056,0,0,1-1,.132,1.667,1.667,0,0,1-1.4-.559,2.63,2.63,0,0,1-.437-1.645V-7.687h-1.555v-.766h1.555v-2.164ZM276.192,0a4.421,4.421,0,0,1-.18-1.18,3.26,3.26,0,0,1-1.254.988,3.84,3.84,0,0,1-1.613.348,2.834,2.834,0,0,1-1.973-.68,2.214,2.214,0,0,1-.754-1.719A2.262,2.262,0,0,1,271.446-4.2a4.936,4.936,0,0,1,2.863-.719H276v-.961a1.852,1.852,0,0,0-.559-1.426,2.309,2.309,0,0,0-1.629-.52,2.549,2.549,0,0,0-1.617.5,1.486,1.486,0,0,0-.641,1.2l-.937-.008a2.174,2.174,0,0,1,.938-1.746,3.61,3.61,0,0,1,2.3-.738,3.293,3.293,0,0,1,2.23.707,2.537,2.537,0,0,1,.84,1.973v4a4.961,4.961,0,0,0,.258,1.836V0Zm-2.937-.672a3.139,3.139,0,0,0,1.676-.453A2.666,2.666,0,0,0,276-2.336V-4.2h-1.672a4.189,4.189,0,0,0-2.187.512,1.536,1.536,0,0,0-.789,1.363,1.511,1.511,0,0,0,.527,1.18A1.987,1.987,0,0,0,273.255-.672Zm9.3.039a2.469,2.469,0,0,0,1.637-.551,1.938,1.938,0,0,0,.715-1.426h.9a2.647,2.647,0,0,1-.484,1.41,3.035,3.035,0,0,1-1.184,1,3.567,3.567,0,0,1-1.582.359A3.266,3.266,0,0,1,279.915-1a4.674,4.674,0,0,1-.973-3.109v-.281A5.285,5.285,0,0,1,279.38-6.6a3.371,3.371,0,0,1,1.254-1.484,3.461,3.461,0,0,1,1.91-.523,3.26,3.26,0,0,1,2.293.828A3.02,3.02,0,0,1,285.8-5.6h-.9a2.3,2.3,0,0,0-.715-1.6,2.315,2.315,0,0,0-1.645-.609,2.331,2.331,0,0,0-1.965.914,4.136,4.136,0,0,0-.7,2.563v.273a4.043,4.043,0,0,0,.7,2.523A2.347,2.347,0,0,0,282.552-.633ZM288.716,0h-.937V-8.453h.938Zm-1.1-10.895a.627.627,0,0,1,.172-.446.613.613,0,0,1,.469-.182.626.626,0,0,1,.473.182.619.619,0,0,1,.176.446.606.606,0,0,1-.176.443.633.633,0,0,1-.473.179.62.62,0,0,1-.469-.179A.613.613,0,0,1,287.614-10.895Zm3.125,6.543a4.974,4.974,0,0,1,.473-2.2,3.6,3.6,0,0,1,1.336-1.52,3.6,3.6,0,0,1,1.957-.543,3.477,3.477,0,0,1,2.734,1.184,4.561,4.561,0,0,1,1.047,3.137v.2a5.018,5.018,0,0,1-.473,2.207,3.529,3.529,0,0,1-1.332,1.512,3.652,3.652,0,0,1-1.961.531,3.48,3.48,0,0,1-2.73-1.184,4.55,4.55,0,0,1-1.051-3.137Zm.938.258a3.836,3.836,0,0,0,.785,2.488,2.518,2.518,0,0,0,2.059.973,2.51,2.51,0,0,0,2.051-.973,3.962,3.962,0,0,0,.785-2.566v-.18A4.3,4.3,0,0,0,297-6.125a2.888,2.888,0,0,0-1.008-1.246,2.575,2.575,0,0,0-1.484-.441,2.5,2.5,0,0,0-2.039.98,3.968,3.968,0,0,0-.789,2.566ZM295.435-12h1.133l-1.8,2.188-.82,0Zm5.672,3.547.031,1.445A3.357,3.357,0,0,1,302.325-8.2a3.086,3.086,0,0,1,1.57-.41,2.536,2.536,0,0,1,2.023.766,3.453,3.453,0,0,1,.672,2.3V0h-.93V-5.555a2.583,2.583,0,0,0-.48-1.687,1.882,1.882,0,0,0-1.512-.555,2.365,2.365,0,0,0-1.535.543,3.181,3.181,0,0,0-.988,1.465V0h-.93V-8.453Zm7.813,7.891a.662.662,0,0,1,.176-.465.63.63,0,0,1,.488-.191.642.642,0,0,1,.492.191.654.654,0,0,1,.18.465.6.6,0,0,1-.18.449.674.674,0,0,1-.492.176.66.66,0,0,1-.488-.176A.608.608,0,0,1,308.919-.562Z" transform="translate(42.9 277.199)" fill="#3c3c3b"/>
      <g id="Grupo_1083455" data-name="Grupo 1083455">
        <g id="Grupo_1083454" data-name="Grupo 1083454" clip-path="url(#clip-path)">
          <path id="Trazado_843319" data-name="Trazado 843319" d="M565.818,179.08h-272.9v-15.4a25.09,25.09,0,0,1,25.089-25.091h272.9v15.4a25.089,25.089,0,0,1-25.089,25.089" transform="translate(198.696 94.009)" fill="#1fd27a"/>
        </g>
      </g>
      <path id="Trazado_843416" data-name="Trazado 843416" d="M10.359-5.43a6.867,6.867,0,0,1-.594,2.945,4.472,4.472,0,0,1-1.7,1.953A4.7,4.7,0,0,1,5.531.156a4.732,4.732,0,0,1-2.523-.68A4.515,4.515,0,0,1,1.289-2.465a6.67,6.67,0,0,1-.617-2.9V-5.93a6.831,6.831,0,0,1,.605-2.957,4.508,4.508,0,0,1,1.711-1.961,4.706,4.706,0,0,1,2.527-.684,4.706,4.706,0,0,1,2.527.684A4.508,4.508,0,0,1,9.754-8.887a6.811,6.811,0,0,1,.605,2.949ZM7.984-5.945a4.787,4.787,0,0,0-.641-2.719,2.088,2.088,0,0,0-1.828-.93,2.088,2.088,0,0,0-1.82.918,4.732,4.732,0,0,0-.648,2.691v.555a4.847,4.847,0,0,0,.641,2.7,2.082,2.082,0,0,0,1.844.961,2.064,2.064,0,0,0,1.813-.926,4.819,4.819,0,0,0,.641-2.7Zm11.547,1.8A5.119,5.119,0,0,1,18.664-.98,2.872,2.872,0,0,1,16.242.156,2.639,2.639,0,0,1,14.047-.9l-.1.9H11.914V-12h2.258v4.3a2.571,2.571,0,0,1,2.055-.914,2.9,2.9,0,0,1,2.426,1.137,5.126,5.126,0,0,1,.879,3.2Zm-2.258-.164a3.363,3.363,0,0,0-.406-1.871,1.374,1.374,0,0,0-1.211-.59,1.489,1.489,0,0,0-1.484.883v3.336a1.509,1.509,0,0,0,1.5.891,1.394,1.394,0,0,0,1.438-1.078A5.562,5.562,0,0,0,17.273-4.312Zm6.039-4.141V.461a3.024,3.024,0,0,1-.742,2.176,2.821,2.821,0,0,1-2.141.777,4.591,4.591,0,0,1-1.117-.133V1.492a4.238,4.238,0,0,0,.711.07q1.023,0,1.023-1.086v-8.93Zm-2.445-2.187a1.112,1.112,0,0,1,.34-.836,1.277,1.277,0,0,1,.926-.328,1.277,1.277,0,0,1,.926.328,1.112,1.112,0,0,1,.34.836,1.108,1.108,0,0,1-.348.844,1.283,1.283,0,0,1-.918.328,1.283,1.283,0,0,1-.918-.328A1.108,1.108,0,0,1,20.867-10.641Zm8.1,10.8A4.15,4.15,0,0,1,25.941-.984a4.054,4.054,0,0,1-1.168-3.039v-.219a5.106,5.106,0,0,1,.492-2.277A3.612,3.612,0,0,1,26.66-8.066a3.914,3.914,0,0,1,2.059-.543,3.508,3.508,0,0,1,2.73,1.094,4.444,4.444,0,0,1,1,3.1v.922H27.063a2.1,2.1,0,0,0,.66,1.328,2,2,0,0,0,1.395.5,2.437,2.437,0,0,0,2.039-.945l1.109,1.242A3.389,3.389,0,0,1,30.891-.246,4.511,4.511,0,0,1,28.969.156Zm-.258-6.945a1.411,1.411,0,0,0-1.09.455,2.357,2.357,0,0,0-.535,1.3h3.141v-.181a1.681,1.681,0,0,0-.406-1.165A1.456,1.456,0,0,0,28.711-6.789Zm7.719-3.742v2.078h1.445V-6.8H36.43v4.219a1.007,1.007,0,0,0,.18.672.9.9,0,0,0,.688.2,3.6,3.6,0,0,0,.664-.055V-.047a4.648,4.648,0,0,1-1.367.2,2.156,2.156,0,0,1-2.422-2.4V-6.8H32.938V-8.453h1.234v-2.078ZM41.516,0H39.25V-8.453h2.266Zm-2.4-10.641a1.112,1.112,0,0,1,.34-.836,1.277,1.277,0,0,1,.926-.328,1.28,1.28,0,0,1,.922.328,1.105,1.105,0,0,1,.344.836A1.108,1.108,0,0,1,41.3-9.8a1.283,1.283,0,0,1-.918.328,1.283,1.283,0,0,1-.918-.328A1.108,1.108,0,0,1,39.117-10.641Zm7.422,7.883,1.57-5.7h2.359L47.617,0H45.461L42.609-8.453h2.359ZM50.88-4.3a5.013,5.013,0,0,1,.484-2.242A3.546,3.546,0,0,1,52.759-8.07a4.069,4.069,0,0,1,2.113-.539,3.849,3.849,0,0,1,2.793,1.047,4.2,4.2,0,0,1,1.207,2.844l.016.578A4.418,4.418,0,0,1,57.8-1.02,3.775,3.775,0,0,1,54.888.156,3.793,3.793,0,0,1,51.97-1.016,4.5,4.5,0,0,1,50.88-4.2Zm2.258.16A3.16,3.16,0,0,0,53.591-2.3a1.5,1.5,0,0,0,1.3.638,1.5,1.5,0,0,0,1.281-.63,3.457,3.457,0,0,0,.461-2.015,3.128,3.128,0,0,0-.461-1.831,1.5,1.5,0,0,0-1.3-.649,1.474,1.474,0,0,0-1.281.646A3.516,3.516,0,0,0,53.138-4.144ZM64.857-2.336a.727.727,0,0,0-.41-.652,4.659,4.659,0,0,0-1.316-.426q-3.016-.633-3.016-2.562a2.323,2.323,0,0,1,.934-1.879,3.766,3.766,0,0,1,2.441-.754,4.053,4.053,0,0,1,2.574.758,2.388,2.388,0,0,1,.965,1.969H64.771a1.092,1.092,0,0,0-.312-.8A1.322,1.322,0,0,0,63.482-7a1.351,1.351,0,0,0-.883.258.814.814,0,0,0-.312.656.7.7,0,0,0,.355.605,3.657,3.657,0,0,0,1.2.4,9.8,9.8,0,0,1,1.422.379A2.336,2.336,0,0,1,67.052-2.43,2.2,2.2,0,0,1,66.06-.559,4.28,4.28,0,0,1,63.5.156a4.47,4.47,0,0,1-1.887-.379,3.166,3.166,0,0,1-1.293-1.039,2.414,2.414,0,0,1-.469-1.426H61.99a1.179,1.179,0,0,0,.445.922,1.766,1.766,0,0,0,1.109.32,1.635,1.635,0,0,0,.98-.246A.766.766,0,0,0,64.857-2.336Z" transform="translate(610 258.199)" fill="#3c3c3b"/>
      <g id="Grupo_1083457" data-name="Grupo 1083457">
        <g id="Grupo_1083456" data-name="Grupo 1083456" clip-path="url(#clip-path)">
          <path id="Trazado_843320" data-name="Trazado 843320" d="M324.812,147.4a72.156,72.156,0,0,1-55.5,26.872c-2.7.01-2.7,4.206,0,4.2a76.17,76.17,0,0,0,58.466-28.1c1.673-2.086-1.277-5.074-2.967-2.967" transform="translate(181.307 99.5)" fill="#3c3c3b"/>
          <path id="Trazado_843321" data-name="Trazado 843321" d="M275.333,159.433a41.207,41.207,0,0,0-8.7,6.859,2.134,2.134,0,0,0,.425,3.295,35.98,35.98,0,0,0,8.9,4.721,2.109,2.109,0,0,0,2.581-1.465,2.154,2.154,0,0,0-1.465-2.581c-.368-.134-.73-.275-1.094-.42-.6-.237.369.166-.218-.091-.18-.077-.359-.156-.537-.237q-1.065-.483-2.1-1.042a33.921,33.921,0,0,1-3.953-2.509q.211,1.646.425,3.295a38.973,38.973,0,0,1,3.838-3.489l.23-.181c-.166.128-.153.117.042-.03.156-.117.312-.235.472-.351q.514-.378,1.039-.735,1.093-.745,2.234-1.415a2.1,2.1,0,0,0-2.118-3.623" transform="translate(180.452 107.956)" fill="#3c3c3b"/>
        </g>
      </g>
    </g>
  </g>
</svg>
