<svg xmlns="http://www.w3.org/2000/svg" xmlns:xlink="http://www.w3.org/1999/xlink" width="146" height="146" viewBox="0 0 146 146">
  <defs>
    <clipPath id="clip-path">
      <rect id="Rectángulo_381411" data-name="Rectángulo 381411" width="88.679" height="88.669" fill="#0a5e6b"/>
    </clipPath>
  </defs>
  <g id="Grupo_1083500" data-name="Grupo 1083500" transform="translate(-727 -3795.844)">
    <g id="Grupo_1071999" data-name="Grupo 1071999" transform="translate(458 2837.844)">
      <path id="Trazado_608971" data-name="Trazado 608971" d="M73,0A73,73,0,1,1,0,73,73,73,0,0,1,73,0Z" transform="translate(269 958)" fill="#e6ff48"/>
    </g>
    <g id="Grupo_1083473" data-name="Grupo 1083473" transform="translate(757.131 3827.121)">
      <g id="Grupo_1083472" data-name="Grupo 1083472" clip-path="url(#clip-path)">
        <path id="Trazado_843364" data-name="Trazado 843364" d="M.012,36.9q0-15.787,0-31.574C.015,1.562,1.578,0,5.36,0Q31.068,0,56.776,0c3.677,0,5.273,1.576,5.281,5.222.013,6.5.059,13-.033,19.5A3.144,3.144,0,0,0,64,28.043a26.644,26.644,0,0,1,10.7,37.037c-.381.653-1.388,1.314-.851,2.082C74.578,68.21,75.4,69.5,76.754,69.7a6.215,6.215,0,0,1,3.641,2.083c2.093,2.136,4.243,4.216,6.33,6.358a6.067,6.067,0,1,1-8.537,8.613C75.8,84.424,73.47,82.035,71.1,79.685a3.91,3.91,0,0,1-1.292-2.554,2.34,2.34,0,0,0-.581-1.4c-1.911-2.3-1.878-2.262-4.555-.846q-13.209,6.986-26.362-.157a6.214,6.214,0,0,0-3.125-.742Q20.694,74.009,6.2,74a7.956,7.956,0,0,1-3.7-.633A4.567,4.567,0,0,1,0,68.823Q.039,52.864.012,36.9m3.317-.19q0,15.531,0,31.062c0,2.507.184,2.7,2.609,2.7q12.338.011,24.677,0c.287,0,.575,0,.863-.012.679-.026.824-.323.411-.861-.28-.364-.6-.7-.881-1.062-5.121-6.508-7.184-13.845-5.544-22,2.977-14.8,16.686-23.882,31.572-21,1.525.3,1.732-.223,1.722-1.535-.047-6.039-.016-12.079-.024-18.119,0-2.37-.2-2.572-2.559-2.573q-25.108-.007-50.216,0C3.5,3.324,3.332,3.5,3.331,6q-.007,15.358,0,30.716M51.607,74.931a23.309,23.309,0,1,0,.055-46.617,22.884,22.884,0,0,0-23.337,23.2,23.071,23.071,0,0,0,23.282,23.42M82.684,85.238a2.853,2.853,0,0,0,2.34-1.719,2.422,2.422,0,0,0-.525-2.851c-1.5-1.572-3.054-3.1-4.59-4.637-2.913-2.919-2.9-2.9-5.719.149-.628.679-.766,1.146-.047,1.843,2.136,2.072,4.22,4.2,6.334,6.294a3.131,3.131,0,0,0,2.207.922" transform="translate(0 0)" fill="#0a5e6b"/>
        <path id="Trazado_843365" data-name="Trazado 843365" d="M63.985,25.76c0-2.184.029-4.368-.011-6.551-.028-1.5.6-2.26,2.147-2.209,1.091.037,2.184-.021,3.275.015a5.156,5.156,0,0,1,4.944,6.67,2.521,2.521,0,0,0,.483,2.628,5.25,5.25,0,0,1-3.308,8.591,25.5,25.5,0,0,1-5.5.143,1.906,1.906,0,0,1-2.039-2.22c.036-2.355.01-4.711.009-7.067M69.556,27.6c-.676.206-1.84-.483-2.136.69a3.377,3.377,0,0,0,.227,2.982c.646.824,4.19.264,4.737-.653a1.963,1.963,0,0,0-.886-2.762,4.524,4.524,0,0,0-1.942-.256m-2.27-5.83c.062,1.4-.264,2.566,1.421,2.519,1.493-.042,2.491-.745,2.514-1.953.023-1.225-.946-1.956-2.445-2.022-1.457-.065-1.542.809-1.49,1.457" transform="translate(-41.894 -11.132)" fill="#0a5e6b"/>
        <path id="Trazado_843366" data-name="Trazado 843366" d="M21.1,27.752c0-1.61-.057-3.221.012-4.828a5.978,5.978,0,0,1,5.453-5.892,5.848,5.848,0,0,1,6.561,5.013c.526,3.7.2,7.457.145,11.188a1.594,1.594,0,0,1-1.63,1.68,1.536,1.536,0,0,1-1.661-1.61,38.732,38.732,0,0,1-.135-3.957c.027-1.216-.367-1.778-1.683-1.751-4.43.09-3.669-.445-3.746,3.583-.013.69.014,1.381-.027,2.069-.059.987-.536,1.673-1.591,1.663a1.572,1.572,0,0,1-1.654-1.641c-.068-1.836-.02-3.677-.02-5.517H21.1m5.894-3.4c1-.416,2.8.785,2.792-1.482a2.522,2.522,0,0,0-2.522-2.507,2.817,2.817,0,0,0-2.817,2.675c0,2.075,1.671.89,2.546,1.315" transform="translate(-13.803 -11.14)" fill="#0a5e6b"/>
        <path id="Trazado_843367" data-name="Trazado 843367" d="M102.025,25.787c0-4.439,1.61-7.181,4.934-8.4,1.894-.7,3.859-.452,5.8-.368a1.432,1.432,0,0,1,1.374,1.513,1.534,1.534,0,0,1-1.458,1.636c-.962.126-1.946.073-2.921.1a4.218,4.218,0,0,0-4.376,4.155,22.684,22.684,0,0,0,0,2.926,4.18,4.18,0,0,0,4.344,4.161c.8.026,1.609-.013,2.41.039,1.072.071,1.986.51,2.008,1.7.023,1.223-.935,1.619-1.98,1.729-6.528.688-10.654-3.149-10.132-9.195" transform="translate(-66.783 -11.07)" fill="#0a5e6b"/>
        <path id="Trazado_843368" data-name="Trazado 843368" d="M33.236,79.794c-2.928,0-5.857,0-8.785,0a8.879,8.879,0,0,1-1.543-.1,1.635,1.635,0,0,1-1.532-1.6,1.6,1.6,0,0,1,1.58-1.717c1.2-.118,2.406-.1,3.61-.1q7.493-.013,14.986,0c.517,0,1.035-.014,1.55.025,1.062.08,2,.474,2.055,1.665.056,1.222-.884,1.636-1.934,1.77a12.493,12.493,0,0,1-1.547.057q-4.22.007-8.441,0" transform="translate(-13.998 -49.949)" fill="#0a5e6b"/>
        <path id="Trazado_843369" data-name="Trazado 843369" d="M30.223,101.325c-2.185,0-4.37.007-6.555,0-1.2,0-2.3-.314-2.258-1.751.041-1.339,1.109-1.565,2.243-1.562q6.728.015,13.455,0c1.144,0,2.2.266,2.187,1.61-.01,1.29-1.023,1.688-2.173,1.695-2.3.012-4.6,0-6.9.006" transform="translate(-14.02 -64.185)" fill="#0a5e6b"/>
        <path id="Trazado_843370" data-name="Trazado 843370" d="M28.638,122.421c-1.778,0-3.556,0-5.333,0-1.04,0-1.863-.423-1.919-1.537-.06-1.218.789-1.738,1.891-1.748,3.67-.032,7.34-.025,11.01-.01,1.088,0,1.988.417,2,1.647s-.864,1.645-1.972,1.65c-1.892.008-3.785,0-5.677,0" transform="translate(-14.003 -78.001)" fill="#0a5e6b"/>
        <path id="Trazado_843371" data-name="Trazado 843371" d="M28.86,186.4c-1.835,0-3.67.005-5.505,0-1.114-.006-1.989-.456-1.974-1.663S22.3,183.1,23.4,183.1q5.419-.019,10.839,0c1.078,0,2.011.362,2.045,1.6.037,1.348-.929,1.708-2.087,1.711-1.778.005-3.556,0-5.333,0" transform="translate(-14.001 -119.897)" fill="#0a5e6b"/>
        <path id="Trazado_843372" data-name="Trazado 843372" d="M28.177,140.293c1.551,0,3.1-.032,4.652.011,1.068.03,2,.45,2.035,1.659.039,1.228-.9,1.725-1.947,1.743q-4.821.082-9.645-.011a1.676,1.676,0,0,1-1.866-1.644c-.015-1.218.869-1.7,1.947-1.737,1.606-.056,3.216-.014,4.824-.014v-.008" transform="translate(-14.018 -91.865)" fill="#0a5e6b"/>
        <path id="Trazado_843373" data-name="Trazado 843373" d="M28.193,162.03c1.606,0,3.213-.01,4.818,0,1.062.009,1.82.49,1.842,1.606a1.556,1.556,0,0,1-1.667,1.624q-5.073.092-10.148,0a1.559,1.559,0,0,1-1.672-1.62c.019-1.115.774-1.6,1.837-1.61,1.663-.013,3.327,0,4.99,0" transform="translate(-13.991 -106.106)" fill="#0a5e6b"/>
        <path id="Trazado_843374" data-name="Trazado 843374" d="M130.807,110.1a20.62,20.62,0,0,1-20.927,20.678A20.8,20.8,0,1,1,130.807,110.1m-3.326-.086a17.437,17.437,0,1,0-17.408,17.444,17.259,17.259,0,0,0,17.408-17.444" transform="translate(-58.414 -58.396)" fill="#0a5e6b"/>
        <path id="Trazado_843375" data-name="Trazado 843375" d="M122.661,145.812a2.276,2.276,0,0,1-1.737-.81c-1.676-1.651-3.35-3.306-4.989-4.993-.774-.8-1.28-1.754-.32-2.717s1.891-.47,2.7.319c.988.959,2.027,1.88,2.912,2.929.96,1.138,1.629,1.176,2.717.046,3.66-3.8,7.436-7.5,11.176-11.225a6.833,6.833,0,0,1,1.3-1.112,1.592,1.592,0,0,1,2.107,2.328,3.376,3.376,0,0,1-.446.523q-6.936,6.943-13.878,13.881a2.07,2.07,0,0,1-1.546.832" transform="translate(-75.368 -83.811)" fill="#0a5e6b"/>
        <path id="Trazado_843376" data-name="Trazado 843376" d="M128.311,106.257c.97.023,1.909.353,2.045,1.537.141,1.222-.736,1.808-1.8,1.855a12.471,12.471,0,0,0-8.061,3.382,1.473,1.473,0,0,1-2.283-.153,1.638,1.638,0,0,1,.261-2.445,15.083,15.083,0,0,1,9.835-4.177" transform="translate(-77.127 -69.584)" fill="#0a5e6b"/>
      </g>
    </g>
  </g>
</svg>
