<svg id="Grupo_1083478" data-name="Grupo 1083478" xmlns="http://www.w3.org/2000/svg" xmlns:xlink="http://www.w3.org/1999/xlink" width="104.333" height="104.387" viewBox="0 0 104.333 104.387">
  <defs>
    <clipPath id="clip-path">
      <rect id="Rectángulo_381413" data-name="Rectángulo 381413" width="104.333" height="104.387" fill="#0a5e6b"/>
    </clipPath>
  </defs>
  <g id="Grupo_1083476" data-name="Grupo 1083476" clip-path="url(#clip-path)">
    <path id="Trazado_843385" data-name="Trazado 843385" d="M32.13,104.364c-5.1,0-10.2-.046-15.306.021a17.211,17.211,0,0,1-7.277-1.676C6.7,101.457,4.222,99.3.887,99.239c-.847-.016-.872-.79-.872-1.421Q0,84.922,0,72.027c0-1.039.416-1.6,1.484-1.523a4.423,4.423,0,0,0,2.879-1.067c1.035-.714,2.1-1.384,3.136-2.1a19.422,19.422,0,0,1,11.809-3.6c5.856.125,5.858.023,5.858-5.927q0-25.791,0-51.58c0-2.865.011-2.874,2.9-2.875q15.831-.006,31.661.012c1.257,0,2.243-.068,2.805-1.521A3.157,3.157,0,0,1,65.786,0c7.2.02,14.4-.042,21.6.051,3.3.043,6.189,1.478,8.986,3.16,2.285,1.373,4.127,3.652,7.156,3.608.721-.011.806.687.806,1.257q.009,12.266,0,24.531c0,.725-.319,1.272-1.1,1.222-2.026-.129-3.588,1.028-5.27,1.835-2.39,1.147-4.68,2.541-7.337,3.023-1.305.237-1.375,1.121-1.372,2.178.02,6.64.009,13.279.009,19.919,0,9.226-.044,18.452.035,27.677.017,1.9-.562,2.534-2.5,2.516-8.946-.085-17.892-.005-26.838-.064-1.719-.011-2.82.176-2.667,2.32A3.819,3.819,0,0,1,55.4,96.571a3.088,3.088,0,0,0-1.429,2.79c-.076,3.081-2.1,4.969-5.272,4.991-5.521.039-11.043.011-16.564.013M80.345,16.8a14.128,14.128,0,0,1-2.877-2.106c-1.8-2.261-4.033-2.9-6.814-2.668a7.581,7.581,0,0,1-7.1-3.681,2.819,2.819,0,0,0-2.618-1.33q-15.1.044-30.2-.007c-1.481-.007-1.955.54-1.925,1.972.071,3.284.021,6.571.021,9.857,0,14.192.029,28.384-.036,42.575-.008,1.816.485,2.506,2.363,2.4,2.509-.141,5.033-.079,7.548-.011a3.36,3.36,0,0,1,3.538,3.574A8.321,8.321,0,0,1,34.572,75.8c-1.324.077-2.658.073-3.983.021-1.229-.048-1.792.395-1.766,1.691.055,2.655.065,5.314,0,7.969-.037,1.4.555,1.8,1.876,1.8q26.531-.04,53.061,0c1.352,0,1.846-.467,1.844-1.831q-.04-33.242-.017-66.485c0-.947.031-1.831-1.335-1.884-1.283-.051-1.818.467-1.715,1.716.11,1.324-.623,1.675-1.8,1.655-2.306-.039-4.614-.047-6.92,0-1.314.026-1.667-.63-1.661-1.815.006-1.148.266-1.885,1.617-1.856,2.1.046,4.193.012,6.576.012M25.168,78.626c-2.237,1.163-4.194,2.25-6.5,2.231-.955-.008-1.868,0-1.876-1.343-.007-1.132-.186-2.243,1.485-2.438s3.527-.442,4.57-1.834c2.286-3.051,5.342-3.412,8.748-3.1a11.249,11.249,0,0,0,2.71-.153,4.537,4.537,0,0,0,3.63-2.532c.615-1.268.611-2.082-1.219-2.041A105.874,105.874,0,0,1,25.4,67.39c-7.631-.65-14.4,1.164-20.256,6.157a1.518,1.518,0,0,1-.353.224A1.931,1.931,0,0,0,3.65,75.8c.029,6.082.013,12.164.018,18.245,0,.625-.077,1.33.625,1.655,4.523,2.095,8.657,5.112,14.031,5.037,9.575-.135,19.154-.034,28.73-.046a8.534,8.534,0,0,0,2.068-.2,1.341,1.341,0,0,0,.032-2.608,7.718,7.718,0,0,0-1.856-.211q-6.5-.026-13,0c-1.34.006-2.478.047-2.448-1.9.029-1.819,1.09-1.8,2.348-1.782s2.517,0,3.775,0q6.606,0,13.212-.008c1.1,0,2.318-.159,2.3-1.534s-1.242-1.481-2.34-1.5c-.559-.008-1.119-.005-1.677-.005-7.34,0-14.681-.041-22.02.028-1.71.016-2.362-.52-2.305-2.272.105-3.261.03-6.527.03-10.07M76.641,3.672c-2.655,0-5.312-.063-7.963.037-.864.032-2.2-.688-2.543.592-.3,1.125.556,2.107,1.44,2.854a5.871,5.871,0,0,0,3.71,1.22,30.7,30.7,0,0,0,3.352,0,3.572,3.572,0,0,1,3.32,1.379,8.885,8.885,0,0,0,8.8,3.675c1.864-.259,2.581.46,2.54,2.433-.115,5.586-.047,11.177-.035,16.766,0,2.335.392,2.637,2.566,1.678,2.363-1.042,4.615-2.334,6.981-3.366a2.762,2.762,0,0,0,1.918-3.016,63.879,63.879,0,0,1,.052-10.466c.666-5.011-1.1-8.086-5.539-10.48C91.623,5.031,88.086,3.6,83.976,3.664c-2.444.04-4.89.007-7.335.007" transform="translate(0 0)" fill="#0a5e6b"/>
    <path id="Trazado_843386" data-name="Trazado 843386" d="M139.132,163.118c-4.264,0-8.529-.068-12.79.032-1.777.042-2.47-.454-2.447-2.35q.138-11.217.005-22.436c-.018-1.776.456-2.465,2.351-2.446q12.895.128,25.791.005c1.774-.015,2.47.454,2.446,2.35q-.138,11.217.005,22.436c.029,2.015-.739,2.483-2.572,2.441-4.262-.1-8.527-.031-12.79-.032m-.15-3.672c3.353,0,6.706-.03,10.058.016,1.234.017,1.764-.415,1.755-1.7q-.058-8.277-.005-16.554c.006-1.182-.506-1.595-1.645-1.591q-9.954.037-19.907,0c-1.139,0-1.651.409-1.645,1.591q.041,8.277-.005,16.554c-.009,1.286.521,1.718,1.755,1.7,3.213-.046,6.426-.016,9.639-.016" transform="translate(-71.913 -78.891)" fill="#0a5e6b"/>
    <path id="Trazado_843387" data-name="Trazado 843387" d="M91.01,47.782c-4.333,0-8.667-.044-13,.024-1.534.024-2.089-.519-2.076-2.065q.084-9.855,0-19.71c-.013-1.534.523-2.083,2.066-2.074q13.21.073,26.42,0c1.532-.008,2.089.519,2.076,2.064q-.084,9.854,0,19.71c.013,1.534-.522,2.1-2.066,2.075-4.473-.068-8.946-.024-13.42-.024m.415-20.132c-3.352,0-6.705.03-10.057-.016-1.233-.016-1.77.412-1.757,1.7.044,4.4.036,8.8.005,13.2-.008,1.182.507,1.594,1.646,1.59q9.952-.037,19.9,0c1.137,0,1.655-.406,1.646-1.589-.03-4.4-.038-8.8.006-13.2.013-1.286-.522-1.717-1.756-1.7-3.212.046-6.426.016-9.638.016" transform="translate(-44.074 -13.905)" fill="#0a5e6b"/>
    <path id="Trazado_843388" data-name="Trazado 843388" d="M101.278,103.97c7.69,0,15.38.036,23.069-.028,1.707-.014,2.458.5,2.264,2.28-.1.944-.47,1.409-1.42,1.4-.349,0-.7.018-1.049.018q-22.859,0-45.719-.015c-1.017,0-2.321.422-2.477-1.394-.151-1.772.548-2.3,2.262-2.285,7.689.065,15.379.028,23.069.028" transform="translate(-44.071 -60.331)" fill="#0a5e6b"/>
    <path id="Trazado_843389" data-name="Trazado 843389" d="M113.766,91.663q-9.752,0-19.5.005c-1.251,0-2.326.055-2.358-1.772-.034-1.935,1.087-1.91,2.437-1.908q19.608.021,39.216,0c1.25,0,2.327-.056,2.358,1.772.033,1.935-1.088,1.912-2.438,1.909-6.571-.019-13.142-.009-19.713-.009" transform="translate(-53.345 -51.071)" fill="#0a5e6b"/>
    <path id="Trazado_843390" data-name="Trazado 843390" d="M139.207,123.655c-4.4,0-8.807-.025-13.21.015-1.327.012-2.077-.284-2.077-1.847s.751-1.85,2.077-1.846q13.209.042,26.42,0c1.326,0,2.076.283,2.076,1.846s-.75,1.858-2.077,1.847c-4.4-.04-8.806-.015-13.21-.015" transform="translate(-71.928 -69.639)" fill="#0a5e6b"/>
    <path id="Trazado_843391" data-name="Trazado 843391" d="M164.693,59.654c-2.305,0-4.612-.042-6.917.016-1.361.034-1.831-.531-1.835-1.867,0-1.378.564-1.833,1.881-1.821q6.707.062,13.415,0c1.36-.013,1.831.532,1.834,1.867,0,1.378-.563,1.854-1.881,1.82-2.165-.055-4.332-.015-6.5-.015" transform="translate(-90.514 -32.493)" fill="#0a5e6b"/>
    <path id="Trazado_843392" data-name="Trazado 843392" d="M164.421,75.651c-2.236,0-4.473-.047-6.707.017-1.434.041-1.765-.669-1.759-1.937.006-1.246.481-1.755,1.736-1.746,4.541.034,9.084.044,13.625-.005,1.434-.016,1.764.671,1.758,1.938-.006,1.245-.479,1.771-1.736,1.746-2.3-.046-4.611-.013-6.917-.013" transform="translate(-90.522 -41.779)" fill="#0a5e6b"/>
    <path id="Trazado_843393" data-name="Trazado 843393" d="M84.49,139.654c-2.236,0-4.473-.042-6.707.016-1.354.035-1.84-.517-1.842-1.86,0-1.371.55-1.841,1.874-1.828q6.707.063,13.415,0c1.353-.013,1.839.518,1.842,1.86,0,1.371-.55,1.861-1.874,1.828-2.235-.055-4.471-.015-6.707-.016" transform="translate(-44.079 -78.928)" fill="#0a5e6b"/>
    <path id="Trazado_843394" data-name="Trazado 843394" d="M84.405,195.658c-2.236,0-4.473-.047-6.707.017-1.449.041-1.742-.7-1.742-1.953s.51-1.74,1.752-1.73q6.812.05,13.625,0c1.25-.009,1.738.489,1.742,1.74s-.311,1.983-1.752,1.944c-2.3-.063-4.611-.017-6.917-.017" transform="translate(-44.088 -111.438)" fill="#0a5e6b"/>
    <path id="Trazado_843395" data-name="Trazado 843395" d="M159.06,151.908a2.173,2.173,0,0,1-.879,1.436c-3.547,3.557-7.13,7.078-10.634,10.676-1.046,1.074-1.827,1.012-2.744-.067-.54-.636-1.219-1.155-1.756-1.793-.644-.766-2.059-1.342-.785-2.7.954-1.02,1.8-2.025,3.2-.466.835.934,1.5.048,2.077-.526,2.675-2.653,5.33-5.326,8.006-7.978.43-.426.9-1.071,1.593-.644a4.593,4.593,0,0,1,1.926,2.066" transform="translate(-82.275 -86.893)" fill="#0a5e6b"/>
  </g>
</svg>
