<svg xmlns="http://www.w3.org/2000/svg" width="505" height="428.449" viewBox="0 0 505 428.449">
  <g id="Grupo_1083494" data-name="Grupo 1083494" transform="translate(9340 10636.449)">
    <path id="Trazado_843396" data-name="Trazado 843396" d="M0,0H505V428.449H0Z" transform="translate(-9340 -10636.449)" fill="#ecf7e6"/>
    <path id="Trazado_843308" data-name="Trazado 843308" d="M523.9,70.968H130.417V48.561c0-17.4,12.376-31.515,27.642-31.515H551.545V39.453c0,17.4-12.376,31.515-27.642,31.515" transform="translate(-9427.545 -10597.4)" fill="#0a5e6b"/>
    <path id="Trazado_843405" data-name="Trazado 843405" d="M9.578-9.477H6.094V0H3.75V-9.477H.313v-1.9H9.578ZM13.273.156A4.15,4.15,0,0,1,10.246-.984,4.054,4.054,0,0,1,9.078-4.023v-.219A5.106,5.106,0,0,1,9.57-6.52a3.612,3.612,0,0,1,1.395-1.547,3.914,3.914,0,0,1,2.059-.543,3.508,3.508,0,0,1,2.73,1.094,4.444,4.444,0,0,1,1,3.1v.922H11.367a2.1,2.1,0,0,0,.66,1.328,2,2,0,0,0,1.395.5,2.437,2.437,0,0,0,2.039-.945L16.57-1.367A3.389,3.389,0,0,1,15.195-.246,4.511,4.511,0,0,1,13.273.156Zm-.258-6.945a1.411,1.411,0,0,0-1.09.455,2.357,2.357,0,0,0-.535,1.3h3.141v-.181a1.681,1.681,0,0,0-.406-1.165A1.456,1.456,0,0,0,13.015-6.789Zm8.234.859,1.422-2.523h2.414L22.679-4.312,25.187,0H22.765L21.257-2.656,19.757,0h-2.43l2.508-4.312-2.4-4.141h2.422Zm7.625-4.6v2.078H30.32V-6.8H28.875v4.219a1.007,1.007,0,0,0,.18.672.9.9,0,0,0,.688.2,3.6,3.6,0,0,0,.664-.055V-.047a4.648,4.648,0,0,1-1.367.2,2.156,2.156,0,0,1-2.422-2.4V-6.8H25.382V-8.453h1.234v-2.078ZM30.752-4.3a5.013,5.013,0,0,1,.484-2.242A3.546,3.546,0,0,1,32.631-8.07a4.069,4.069,0,0,1,2.113-.539,3.849,3.849,0,0,1,2.793,1.047,4.2,4.2,0,0,1,1.207,2.844l.016.578A4.418,4.418,0,0,1,37.674-1.02,3.775,3.775,0,0,1,34.759.156a3.793,3.793,0,0,1-2.918-1.172A4.5,4.5,0,0,1,30.752-4.2Zm2.258.16A3.16,3.16,0,0,0,33.463-2.3a1.5,1.5,0,0,0,1.3.638,1.5,1.5,0,0,0,1.281-.63A3.457,3.457,0,0,0,36.5-4.309a3.128,3.128,0,0,0-.461-1.831,1.5,1.5,0,0,0-1.3-.649,1.474,1.474,0,0,0-1.281.646A3.516,3.516,0,0,0,33.009-4.144ZM49.033,0a2.507,2.507,0,0,1-.227-.758,2.732,2.732,0,0,1-2.133.914,3,3,0,0,1-2.059-.719A2.312,2.312,0,0,1,43.8-2.375a2.389,2.389,0,0,1,1-2.062,4.915,4.915,0,0,1,2.879-.727h1.039v-.484a1.393,1.393,0,0,0-.3-.937,1.183,1.183,0,0,0-.949-.352,1.345,1.345,0,0,0-.895.273.929.929,0,0,0-.324.75H43.986a2.268,2.268,0,0,1,.453-1.359,3,3,0,0,1,1.281-.98,4.669,4.669,0,0,1,1.859-.355,3.689,3.689,0,0,1,2.48.785,2.747,2.747,0,0,1,.918,2.207v3.664a4.041,4.041,0,0,0,.336,1.82V0ZM47.166-1.57a1.945,1.945,0,0,0,.922-.223,1.462,1.462,0,0,0,.625-.6V-3.844h-.844q-1.7,0-1.8,1.172l-.008.133a.9.9,0,0,0,.3.7A1.153,1.153,0,0,0,47.166-1.57Zm10.3-4.766A6.134,6.134,0,0,0,56.65-6.4a1.654,1.654,0,0,0-1.68.867V0H52.713V-8.453h2.133l.063,1.008a2.092,2.092,0,0,1,1.883-1.164,2.366,2.366,0,0,1,.7.1Zm.481,2.047a4.954,4.954,0,0,1,.926-3.133,3,3,0,0,1,2.5-1.187,2.631,2.631,0,0,1,2.164.953l.094-.8h2.047V-.281a3.613,3.613,0,0,1-.5,1.93A3.236,3.236,0,0,1,63.749,2.9a4.985,4.985,0,0,1-2.141.43A4.635,4.635,0,0,1,59.8,2.957,3.217,3.217,0,0,1,58.46,2l1-1.375a2.645,2.645,0,0,0,2.047.945,1.936,1.936,0,0,0,1.4-.48,1.8,1.8,0,0,0,.5-1.363V-.727A2.612,2.612,0,0,1,61.35.156a2.992,2.992,0,0,1-2.465-1.191,4.953,4.953,0,0,1-.941-3.16Zm2.258.168a3.085,3.085,0,0,0,.461,1.8,1.466,1.466,0,0,0,1.266.653A1.568,1.568,0,0,0,63.4-2.439V-6a1.564,1.564,0,0,0-1.461-.775,1.476,1.476,0,0,0-1.277.665A3.477,3.477,0,0,0,60.2-4.121ZM72.467-.859A2.831,2.831,0,0,1,70.155.156a2.67,2.67,0,0,1-2.074-.781,3.335,3.335,0,0,1-.73-2.289V-8.453h2.258v5.467q0,1.322,1.2,1.322a1.63,1.63,0,0,0,1.578-.8V-8.453h2.266V0H72.53Zm6.008-7.594.07.945a2.971,2.971,0,0,1,2.43-1.1A2.255,2.255,0,0,1,83.217-7.32a2.9,2.9,0,0,1,2.539-1.289,2.521,2.521,0,0,1,2.047.8,3.681,3.681,0,0,1,.672,2.41V0H86.21V-5.391a1.61,1.61,0,0,0-.281-1.051,1.246,1.246,0,0,0-.992-.332A1.409,1.409,0,0,0,83.53-5.8L83.538,0H81.28V-5.383a1.59,1.59,0,0,0-.289-1.062,1.259,1.259,0,0,0-.984-.328,1.463,1.463,0,0,0-1.391.8V0H76.358V-8.453ZM94.1.156A4.15,4.15,0,0,1,91.073-.984,4.054,4.054,0,0,1,89.9-4.023v-.219A5.106,5.106,0,0,1,90.4-6.52a3.612,3.612,0,0,1,1.395-1.547,3.914,3.914,0,0,1,2.059-.543,3.508,3.508,0,0,1,2.73,1.094,4.444,4.444,0,0,1,1,3.1v.922H92.194a2.1,2.1,0,0,0,.66,1.328,2,2,0,0,0,1.395.5,2.437,2.437,0,0,0,2.039-.945L97.4-1.367A3.389,3.389,0,0,1,96.022-.246,4.511,4.511,0,0,1,94.1.156Zm-.258-6.945a1.411,1.411,0,0,0-1.09.455,2.357,2.357,0,0,0-.535,1.3h3.141v-.181a1.681,1.681,0,0,0-.406-1.165A1.456,1.456,0,0,0,93.842-6.789Zm7.094-1.664.07.977a2.951,2.951,0,0,1,2.43-1.133,2.453,2.453,0,0,1,2,.789,3.682,3.682,0,0,1,.672,2.359V0H103.85V-5.406a1.465,1.465,0,0,0-.312-1.043,1.4,1.4,0,0,0-1.039-.324,1.553,1.553,0,0,0-1.43.813V0H98.811V-8.453Zm9.586-2.078v2.078h1.445V-6.8h-1.445v4.219a1.007,1.007,0,0,0,.18.672.9.9,0,0,0,.688.2,3.6,3.6,0,0,0,.664-.055V-.047a4.648,4.648,0,0,1-1.367.2,2.156,2.156,0,0,1-2.422-2.4V-6.8H107.03V-8.453h1.234v-2.078ZM118.124,0a2.507,2.507,0,0,1-.227-.758,2.732,2.732,0,0,1-2.133.914,3,3,0,0,1-2.059-.719,2.312,2.312,0,0,1-.816-1.812,2.389,2.389,0,0,1,1-2.062,4.915,4.915,0,0,1,2.879-.727H117.8v-.484a1.393,1.393,0,0,0-.3-.937,1.183,1.183,0,0,0-.949-.352,1.345,1.345,0,0,0-.895.273.929.929,0,0,0-.324.75h-2.258a2.268,2.268,0,0,1,.453-1.359,3,3,0,0,1,1.281-.98,4.669,4.669,0,0,1,1.859-.355,3.689,3.689,0,0,1,2.48.785,2.747,2.747,0,0,1,.918,2.207v3.664a4.041,4.041,0,0,0,.336,1.82V0Zm-1.867-1.57a1.945,1.945,0,0,0,.922-.223,1.462,1.462,0,0,0,.625-.6V-3.844h-.844q-1.7,0-1.8,1.172l-.008.133a.9.9,0,0,0,.3.7A1.153,1.153,0,0,0,116.257-1.57Zm8.25-8.961v2.078h1.445V-6.8h-1.445v4.219a1.007,1.007,0,0,0,.18.672.9.9,0,0,0,.688.2,3.6,3.6,0,0,0,.664-.055V-.047a4.648,4.648,0,0,1-1.367.2,2.156,2.156,0,0,1-2.422-2.4V-6.8h-1.234V-8.453h1.234v-2.078ZM129.592,0h-2.266V-8.453h2.266Zm-2.4-10.641a1.112,1.112,0,0,1,.34-.836,1.277,1.277,0,0,1,.926-.328,1.28,1.28,0,0,1,.922.328,1.105,1.105,0,0,1,.344.836,1.109,1.109,0,0,1-.348.844,1.283,1.283,0,0,1-.918.328,1.283,1.283,0,0,1-.918-.328A1.108,1.108,0,0,1,127.194-10.641Zm7.422,7.883,1.57-5.7h2.359L135.694,0h-2.156l-2.852-8.453h2.359ZM138.941-4.3a5.013,5.013,0,0,1,.484-2.242A3.546,3.546,0,0,1,140.82-8.07a4.069,4.069,0,0,1,2.113-.539,3.849,3.849,0,0,1,2.793,1.047,4.2,4.2,0,0,1,1.207,2.844l.016.578a4.418,4.418,0,0,1-1.086,3.121A3.775,3.775,0,0,1,142.949.156a3.793,3.793,0,0,1-2.918-1.172,4.5,4.5,0,0,1-1.09-3.187Zm2.258.16a3.16,3.16,0,0,0,.453,1.843,1.5,1.5,0,0,0,1.3.638,1.5,1.5,0,0,0,1.281-.63,3.457,3.457,0,0,0,.461-2.015,3.128,3.128,0,0,0-.461-1.831,1.5,1.5,0,0,0-1.3-.649,1.474,1.474,0,0,0-1.281.646A3.516,3.516,0,0,0,141.2-4.144Z" transform="translate(-9160.064 -10546.197)" fill="#fff"/>
    <line id="Línea_172" data-name="Línea 172" y2="223.933" transform="translate(-9086.564 -10526.433)" fill="none" stroke="#0a5e6b" stroke-miterlimit="10" stroke-width="1"/>
    <line id="Línea_176" data-name="Línea 176" y2="50.045" transform="translate(-8955.5 -10398.594)" fill="none" stroke="#0a5e6b" stroke-miterlimit="10" stroke-width="1"/>
    <line id="Línea_181" data-name="Línea 181" y2="50.045" transform="translate(-9218.064 -10398.594)" fill="none" stroke="#0a5e6b" stroke-miterlimit="10" stroke-width="1"/>
    <line id="Línea_180" data-name="Línea 180" x2="263" transform="translate(-9218.5 -10398.594)" fill="none" stroke="#0a5e6b" stroke-miterlimit="10" stroke-width="1"/>
    <path id="Trazado_843309" data-name="Trazado 843309" d="M523.9,111.71H130.417V89.3c0-17.4,12.376-31.515,27.642-31.515H551.545V80.2c0,17.4-12.376,31.515-27.642,31.515" transform="translate(-9427.545 -10542.16)" fill="#e6ff48"/>
    <path id="Trazado_843311" data-name="Trazado 843311" d="M355.8,175.54H178.529V153.133c0-17.4,10.178-31.515,22.734-31.515H378.53v22.407c0,17.4-10.178,31.515-22.732,31.515" transform="translate(-9366.029 -10430.222)" fill="#1fd27a"/>
    <path id="Trazado_843312" data-name="Trazado 843312" d="M505.276,175.54H332.464V153.133c0-17.4,9.92-31.515,22.162-31.515H527.435v22.407c0,17.4-9.922,31.515-22.159,31.515" transform="translate(-9385.014 -10499.908)" fill="#1fd27a"/>
    <path id="Trazado_843397" data-name="Trazado 843397" d="M505.276,175.54H332.464V153.133c0-17.4,9.92-31.515,22.162-31.515H527.435v22.407c0,17.4-9.922,31.515-22.159,31.515" transform="translate(-9648.014 -10499.908)" fill="#1fd27a"/>
    <path id="Trazado_843406" data-name="Trazado 843406" d="M7.719-5.453H2.4V-.812H8.516V0H1.438V-11.375H8.477v.813H2.4v4.3h5.32Zm7.664,3.3a1.332,1.332,0,0,0-.559-1.117,4.308,4.308,0,0,0-1.684-.66,7.6,7.6,0,0,1-1.746-.547,2.326,2.326,0,0,1-.922-.754,1.881,1.881,0,0,1-.3-1.078,2.011,2.011,0,0,1,.836-1.652,3.377,3.377,0,0,1,2.141-.652,3.475,3.475,0,0,1,2.27.7,2.244,2.244,0,0,1,.855,1.824h-.937a1.514,1.514,0,0,0-.621-1.234,2.444,2.444,0,0,0-1.566-.492,2.445,2.445,0,0,0-1.48.41,1.266,1.266,0,0,0-.559,1.066,1.153,1.153,0,0,0,.465.98,4.917,4.917,0,0,0,1.7.637,7.968,7.968,0,0,1,1.844.617,2.388,2.388,0,0,1,.91.789,2.02,2.02,0,0,1,.3,1.117,2.025,2.025,0,0,1-.863,1.711A3.688,3.688,0,0,1,13.2.156a3.786,3.786,0,0,1-2.395-.715,2.2,2.2,0,0,1-.918-1.809h.938A1.626,1.626,0,0,0,11.52-1.09,2.826,2.826,0,0,0,13.2-.633a2.657,2.657,0,0,0,1.578-.43A1.29,1.29,0,0,0,15.383-2.148Zm4.492-8.469v2.164h1.75v.766h-1.75v5.639A1.765,1.765,0,0,0,20.129-1a.984.984,0,0,0,.848.344,5.816,5.816,0,0,0,.758-.078l.039.759a3.056,3.056,0,0,1-1,.132,1.667,1.667,0,0,1-1.4-.559,2.63,2.63,0,0,1-.437-1.645V-7.687H17.383v-.766h1.555v-2.164Zm7.594,2.961a3.492,3.492,0,0,0-.633-.055,2.283,2.283,0,0,0-1.48.488A2.674,2.674,0,0,0,24.492-5.8V0h-.93V-8.453h.914l.016,1.344a2.486,2.486,0,0,1,2.383-1.5,1.538,1.538,0,0,1,.617.1ZM34.383-1.07a3.038,3.038,0,0,1-2.7,1.227,2.615,2.615,0,0,1-2.055-.785,3.439,3.439,0,0,1-.719-2.324v-5.5h.93V-3.07q0,2.414,1.953,2.414a2.394,2.394,0,0,0,2.57-1.68V-8.453H35.3V0H34.4Zm6.477.438A2.469,2.469,0,0,0,42.5-1.184a1.938,1.938,0,0,0,.715-1.426h.9a2.647,2.647,0,0,1-.484,1.41,3.035,3.035,0,0,1-1.184,1,3.567,3.567,0,0,1-1.582.359A3.266,3.266,0,0,1,38.223-1a4.674,4.674,0,0,1-.973-3.109v-.281A5.284,5.284,0,0,1,37.688-6.6a3.371,3.371,0,0,1,1.254-1.484,3.461,3.461,0,0,1,1.91-.523,3.26,3.26,0,0,1,2.293.828,3.02,3.02,0,0,1,.965,2.18h-.9A2.3,2.3,0,0,0,42.5-7.2a2.315,2.315,0,0,0-1.645-.609,2.331,2.331,0,0,0-1.965.914,4.136,4.136,0,0,0-.7,2.563v.273a4.043,4.043,0,0,0,.7,2.523A2.347,2.347,0,0,0,40.859-.633Zm6.57-9.984v2.164h1.75v.766H47.43v5.639A1.765,1.765,0,0,0,47.684-1a.984.984,0,0,0,.848.344,5.816,5.816,0,0,0,.758-.078l.039.759a3.056,3.056,0,0,1-1,.132A1.667,1.667,0,0,1,46.93-.4a2.63,2.63,0,0,1-.437-1.645V-7.687H44.938v-.766h1.555v-2.164ZM56.555-1.07a3.038,3.038,0,0,1-2.7,1.227A2.615,2.615,0,0,1,51.8-.629a3.439,3.439,0,0,1-.719-2.324v-5.5h.93V-3.07q0,2.414,1.953,2.414a2.394,2.394,0,0,0,2.57-1.68V-8.453h.938V0H56.57Zm7.258-6.586a3.492,3.492,0,0,0-.633-.055,2.283,2.283,0,0,0-1.48.488A2.674,2.674,0,0,0,60.836-5.8V0h-.93V-8.453h.914l.016,1.344a2.486,2.486,0,0,1,2.383-1.5,1.538,1.538,0,0,1,.617.1ZM70.04,0a4.421,4.421,0,0,1-.18-1.18,3.26,3.26,0,0,1-1.254.988,3.84,3.84,0,0,1-1.613.348,2.834,2.834,0,0,1-1.973-.68,2.214,2.214,0,0,1-.754-1.719A2.262,2.262,0,0,1,65.294-4.2a4.936,4.936,0,0,1,2.863-.719h1.7v-.961A1.852,1.852,0,0,0,69.294-7.3a2.309,2.309,0,0,0-1.629-.52,2.549,2.549,0,0,0-1.617.5,1.486,1.486,0,0,0-.641,1.2l-.937-.008a2.174,2.174,0,0,1,.938-1.746,3.61,3.61,0,0,1,2.3-.738,3.293,3.293,0,0,1,2.23.707,2.537,2.537,0,0,1,.84,1.973v4A4.961,4.961,0,0,0,71.04-.094V0ZM67.1-.672a3.139,3.139,0,0,0,1.676-.453,2.666,2.666,0,0,0,1.074-1.211V-4.2H68.181a4.189,4.189,0,0,0-2.187.512A1.536,1.536,0,0,0,65.2-2.32a1.511,1.511,0,0,0,.527,1.18A1.987,1.987,0,0,0,67.1-.672ZM76.79-4.3a5.1,5.1,0,0,1,.879-3.137,2.829,2.829,0,0,1,2.387-1.168,2.94,2.94,0,0,1,2.609,1.352V-12h.93V0H82.72l-.039-1.125A3.019,3.019,0,0,1,80.04.156,2.819,2.819,0,0,1,77.685-1.02,5.121,5.121,0,0,1,76.79-4.2Zm.945.164a4.408,4.408,0,0,0,.648,2.551,2.1,2.1,0,0,0,1.828.934A2.516,2.516,0,0,0,82.665-2.18V-6.148A2.5,2.5,0,0,0,80.228-7.8a2.122,2.122,0,0,0-1.836.926A4.711,4.711,0,0,0,77.736-4.141ZM89.33.156A3.67,3.67,0,0,1,87.38-.375a3.62,3.62,0,0,1-1.355-1.48,4.616,4.616,0,0,1-.484-2.129V-4.32a4.974,4.974,0,0,1,.473-2.2A3.76,3.76,0,0,1,87.33-8.051a3.248,3.248,0,0,1,1.828-.559A3.052,3.052,0,0,1,91.6-7.559a4.262,4.262,0,0,1,.9,2.871v.523H86.47v.18a3.539,3.539,0,0,0,.824,2.395,2.622,2.622,0,0,0,2.074.957,3.046,3.046,0,0,0,1.324-.273,2.937,2.937,0,0,0,1.043-.875l.586.445A3.411,3.411,0,0,1,89.33.156Zm-.172-7.969a2.337,2.337,0,0,0-1.777.773A3.573,3.573,0,0,0,86.5-4.961h5.07v-.1a3.1,3.1,0,0,0-.7-1.984A2.155,2.155,0,0,0,89.158-7.812ZM103.65-1.07a3.038,3.038,0,0,1-2.7,1.227A2.615,2.615,0,0,1,98.9-.629a3.439,3.439,0,0,1-.719-2.324v-5.5h.93V-3.07q0,2.414,1.953,2.414a2.394,2.394,0,0,0,2.57-1.68V-8.453h.938V0h-.906Zm4.242-7.383.031,1.445A3.357,3.357,0,0,1,109.111-8.2a3.086,3.086,0,0,1,1.57-.41,2.536,2.536,0,0,1,2.023.766,3.453,3.453,0,0,1,.672,2.3V0h-.93V-5.555a2.583,2.583,0,0,0-.48-1.687,1.882,1.882,0,0,0-1.512-.555,2.365,2.365,0,0,0-1.535.543,3.181,3.181,0,0,0-.988,1.465V0H107V-8.453Zm13.242-2.164v2.164h1.75v.766h-1.75v5.639A1.765,1.765,0,0,0,121.388-1a.984.984,0,0,0,.848.344,5.816,5.816,0,0,0,.758-.078l.039.759a3.056,3.056,0,0,1-1,.132,1.667,1.667,0,0,1-1.4-.559,2.63,2.63,0,0,1-.437-1.645V-7.687h-1.555v-.766H120.2v-2.164ZM128.1.156a3.67,3.67,0,0,1-1.949-.531,3.62,3.62,0,0,1-1.355-1.48,4.616,4.616,0,0,1-.484-2.129V-4.32a4.974,4.974,0,0,1,.473-2.2A3.76,3.76,0,0,1,126.1-8.051a3.248,3.248,0,0,1,1.828-.559,3.052,3.052,0,0,1,2.441,1.051,4.262,4.262,0,0,1,.9,2.871v.523h-6.031v.18a3.539,3.539,0,0,0,.824,2.395,2.622,2.622,0,0,0,2.074.957,3.046,3.046,0,0,0,1.324-.273,2.937,2.937,0,0,0,1.043-.875l.586.445A3.411,3.411,0,0,1,128.1.156Zm-.172-7.969a2.337,2.337,0,0,0-1.777.773,3.573,3.573,0,0,0-.879,2.078h5.07v-.1a3.1,3.1,0,0,0-.7-1.984A2.155,2.155,0,0,0,127.923-7.812Zm7.82,2.789,2.281-3.43h1.109L136.267-4.3,139.259,0h-1.1l-2.406-3.578L133.345,0h-1.1l2.984-4.3-2.867-4.148h1.1Zm6.578-5.594v2.164h1.75v.766h-1.75v5.639A1.765,1.765,0,0,0,142.576-1a.984.984,0,0,0,.848.344,5.816,5.816,0,0,0,.758-.078l.039.759a3.056,3.056,0,0,1-1,.132,1.667,1.667,0,0,1-1.4-.559,2.629,2.629,0,0,1-.437-1.645V-7.687H139.83v-.766h1.555v-2.164Zm2.872,6.266a4.974,4.974,0,0,1,.473-2.2A3.6,3.6,0,0,1,147-8.066a3.6,3.6,0,0,1,1.957-.543,3.477,3.477,0,0,1,2.734,1.184,4.561,4.561,0,0,1,1.047,3.137v.2a5.018,5.018,0,0,1-.473,2.207,3.529,3.529,0,0,1-1.332,1.512,3.652,3.652,0,0,1-1.961.531,3.48,3.48,0,0,1-2.73-1.184,4.55,4.55,0,0,1-1.051-3.137Zm.938.258a3.836,3.836,0,0,0,.785,2.488,2.518,2.518,0,0,0,2.059.973,2.51,2.51,0,0,0,2.051-.973,3.962,3.962,0,0,0,.785-2.566v-.18a4.3,4.3,0,0,0-.359-1.773,2.888,2.888,0,0,0-1.008-1.246,2.575,2.575,0,0,0-1.484-.441,2.5,2.5,0,0,0-2.039.98,3.968,3.968,0,0,0-.789,2.566ZM163.9,0a4.421,4.421,0,0,1-.18-1.18,3.26,3.26,0,0,1-1.254.988,3.84,3.84,0,0,1-1.613.348,2.834,2.834,0,0,1-1.973-.68,2.214,2.214,0,0,1-.754-1.719A2.262,2.262,0,0,1,159.15-4.2a4.936,4.936,0,0,1,2.863-.719h1.7v-.961A1.852,1.852,0,0,0,163.15-7.3a2.309,2.309,0,0,0-1.629-.52,2.549,2.549,0,0,0-1.617.5,1.486,1.486,0,0,0-.641,1.2l-.937-.008a2.174,2.174,0,0,1,.938-1.746,3.61,3.61,0,0,1,2.3-.738,3.293,3.293,0,0,1,2.23.707,2.537,2.537,0,0,1,.84,1.973v4A4.961,4.961,0,0,0,164.9-.094V0Zm-2.937-.672a3.139,3.139,0,0,0,1.676-.453,2.666,2.666,0,0,0,1.074-1.211V-4.2h-1.672a4.189,4.189,0,0,0-2.187.512,1.536,1.536,0,0,0-.789,1.363,1.511,1.511,0,0,0,.527,1.18A1.987,1.987,0,0,0,160.959-.672Zm10.078-6.984a3.492,3.492,0,0,0-.633-.055,2.283,2.283,0,0,0-1.48.488,2.674,2.674,0,0,0-.863,1.418V0h-.93V-8.453h.914l.016,1.344a2.486,2.486,0,0,1,2.383-1.5,1.538,1.538,0,0,1,.617.1Zm.809,3.352a5.088,5.088,0,0,1,.879-3.145,2.835,2.835,0,0,1,2.387-1.16,2.94,2.94,0,0,1,2.625,1.375l.047-1.219h.875V-.172a3.58,3.58,0,0,1-.914,2.586,3.27,3.27,0,0,1-2.477.953,3.762,3.762,0,0,1-1.684-.395,3.27,3.27,0,0,1-1.262-1.051l.523-.562a2.962,2.962,0,0,0,2.359,1.219,2.4,2.4,0,0,0,1.828-.691,2.755,2.755,0,0,0,.68-1.918V-1.094A3.021,3.021,0,0,1,175.1.156a2.819,2.819,0,0,1-2.359-1.172,5.106,5.106,0,0,1-.891-3.164Zm.945.164a4.408,4.408,0,0,0,.648,2.551,2.1,2.1,0,0,0,1.828.934A2.5,2.5,0,0,0,177.713-2.2v-3.93a2.666,2.666,0,0,0-.945-1.238,2.549,2.549,0,0,0-1.484-.426,2.122,2.122,0,0,0-1.836.926A4.711,4.711,0,0,0,172.792-4.141Zm13.742,3.07a3.038,3.038,0,0,1-2.7,1.227,2.615,2.615,0,0,1-2.055-.785,3.439,3.439,0,0,1-.719-2.324v-5.5h.93V-3.07q0,2.414,1.953,2.414a2.394,2.394,0,0,0,2.57-1.68V-8.453h.938V0h-.906Zm4.2-7.383.031,1.375a3.129,3.129,0,0,1,1.172-1.148,3.214,3.214,0,0,1,1.563-.383,2.371,2.371,0,0,1,2.539,1.641,3.174,3.174,0,0,1,1.211-1.215,3.354,3.354,0,0,1,1.672-.426q2.719,0,2.773,2.969V0h-.937V-5.57a2.52,2.52,0,0,0-.488-1.68,1.988,1.988,0,0,0-1.566-.547,2.49,2.49,0,0,0-1.7.652,2.305,2.305,0,0,0-.773,1.551V0h-.937V-5.641a2.316,2.316,0,0,0-.512-1.621,2.036,2.036,0,0,0-1.551-.535,2.358,2.358,0,0,0-1.516.5,2.955,2.955,0,0,0-.937,1.5V0h-.937V-8.453Zm16.6,8.609a3.67,3.67,0,0,1-1.949-.531,3.62,3.62,0,0,1-1.355-1.48,4.616,4.616,0,0,1-.484-2.129V-4.32a4.974,4.974,0,0,1,.473-2.2,3.76,3.76,0,0,1,1.316-1.535,3.248,3.248,0,0,1,1.828-.559,3.052,3.052,0,0,1,2.441,1.051,4.262,4.262,0,0,1,.9,2.871v.523h-6.031v.18A3.539,3.539,0,0,0,205.3-1.59a2.622,2.622,0,0,0,2.074.957A3.046,3.046,0,0,0,208.7-.906a2.937,2.937,0,0,0,1.043-.875l.586.445A3.411,3.411,0,0,1,207.338.156Zm-.172-7.969a2.337,2.337,0,0,0-1.777.773,3.573,3.573,0,0,0-.879,2.078h5.07v-.1a3.1,3.1,0,0,0-.7-1.984A2.155,2.155,0,0,0,207.167-7.812Zm6.055-.641.031,1.445A3.357,3.357,0,0,1,214.44-8.2a3.086,3.086,0,0,1,1.57-.41,2.536,2.536,0,0,1,2.023.766,3.453,3.453,0,0,1,.672,2.3V0h-.93V-5.555a2.582,2.582,0,0,0-.48-1.687,1.882,1.882,0,0,0-1.512-.555,2.365,2.365,0,0,0-1.535.543,3.181,3.181,0,0,0-.988,1.465V0h-.93V-8.453Zm9.352-2.164v2.164h1.75v.766h-1.75v5.639A1.765,1.765,0,0,0,222.827-1a.984.984,0,0,0,.848.344,5.816,5.816,0,0,0,.758-.078l.039.759a3.056,3.056,0,0,1-1,.132,1.667,1.667,0,0,1-1.4-.559,2.629,2.629,0,0,1-.437-1.645V-7.687h-1.555v-.766h1.555v-2.164ZM231.6,0a4.421,4.421,0,0,1-.18-1.18,3.26,3.26,0,0,1-1.254.988,3.84,3.84,0,0,1-1.613.348,2.834,2.834,0,0,1-1.973-.68,2.214,2.214,0,0,1-.754-1.719A2.262,2.262,0,0,1,226.85-4.2a4.936,4.936,0,0,1,2.863-.719h1.7v-.961A1.852,1.852,0,0,0,230.85-7.3a2.309,2.309,0,0,0-1.629-.52,2.549,2.549,0,0,0-1.617.5,1.486,1.486,0,0,0-.641,1.2l-.937-.008a2.174,2.174,0,0,1,.938-1.746,3.61,3.61,0,0,1,2.3-.738,3.293,3.293,0,0,1,2.23.707,2.537,2.537,0,0,1,.84,1.973v4A4.961,4.961,0,0,0,232.6-.094V0Zm-2.937-.672a3.139,3.139,0,0,0,1.676-.453,2.666,2.666,0,0,0,1.074-1.211V-4.2h-1.672a4.189,4.189,0,0,0-2.187.512,1.536,1.536,0,0,0-.789,1.363,1.511,1.511,0,0,0,.527,1.18A1.987,1.987,0,0,0,228.659-.672Zm7.625-9.945v2.164h1.75v.766h-1.75v5.639A1.765,1.765,0,0,0,236.538-1a.984.984,0,0,0,.848.344,5.816,5.816,0,0,0,.758-.078l.039.759a3.056,3.056,0,0,1-1,.132,1.667,1.667,0,0,1-1.4-.559,2.629,2.629,0,0,1-.437-1.645V-7.687h-1.555v-.766h1.555v-2.164ZM241.018,0h-.937V-8.453h.938Zm-1.1-10.895a.627.627,0,0,1,.172-.446.613.613,0,0,1,.469-.182.626.626,0,0,1,.473.182.619.619,0,0,1,.176.446.606.606,0,0,1-.176.443.633.633,0,0,1-.473.179.62.62,0,0,1-.469-.179A.613.613,0,0,1,239.917-10.895Zm6.273,9.605,2.57-7.164h.961L246.565,0h-.758l-3.172-8.453h.961Zm4.334-3.062a4.974,4.974,0,0,1,.473-2.2,3.6,3.6,0,0,1,1.336-1.52,3.6,3.6,0,0,1,1.957-.543,3.477,3.477,0,0,1,2.734,1.184,4.561,4.561,0,0,1,1.047,3.137v.2a5.018,5.018,0,0,1-.473,2.207,3.529,3.529,0,0,1-1.332,1.512A3.652,3.652,0,0,1,254.3.156a3.48,3.48,0,0,1-2.73-1.184,4.55,4.55,0,0,1-1.051-3.137Zm.938.258a3.836,3.836,0,0,0,.785,2.488,2.518,2.518,0,0,0,2.059.973,2.51,2.51,0,0,0,2.051-.973,3.962,3.962,0,0,0,.785-2.566v-.18a4.3,4.3,0,0,0-.359-1.773,2.888,2.888,0,0,0-1.008-1.246,2.575,2.575,0,0,0-1.484-.441,2.5,2.5,0,0,0-2.039.98,3.968,3.968,0,0,0-.789,2.566Z" transform="translate(-9218.064 -10448.463)" fill="#3c3c3b"/>
    <path id="Trazado_843407" data-name="Trazado 843407" d="M2.406-.812H8.023V0H1.438V-11.375h.969ZM14.984,0a4.421,4.421,0,0,1-.18-1.18,3.26,3.26,0,0,1-1.254.988,3.84,3.84,0,0,1-1.613.348,2.834,2.834,0,0,1-1.973-.68,2.214,2.214,0,0,1-.754-1.719A2.262,2.262,0,0,1,10.238-4.2,4.936,4.936,0,0,1,13.1-4.914h1.7v-.961A1.852,1.852,0,0,0,14.238-7.3a2.309,2.309,0,0,0-1.629-.52,2.549,2.549,0,0,0-1.617.5,1.486,1.486,0,0,0-.641,1.2l-.937-.008a2.174,2.174,0,0,1,.938-1.746,3.61,3.61,0,0,1,2.3-.738,3.293,3.293,0,0,1,2.23.707,2.537,2.537,0,0,1,.84,1.973v4a4.961,4.961,0,0,0,.258,1.836V0ZM12.047-.672a3.139,3.139,0,0,0,1.676-.453A2.666,2.666,0,0,0,14.8-2.336V-4.2H13.125a4.189,4.189,0,0,0-2.187.512,1.536,1.536,0,0,0-.789,1.363,1.511,1.511,0,0,0,.527,1.18A1.987,1.987,0,0,0,12.047-.672Zm11.516-9.945v2.164h1.75v.766h-1.75v5.639A1.765,1.765,0,0,0,23.816-1a.984.984,0,0,0,.848.344,5.816,5.816,0,0,0,.758-.078l.039.759a3.056,3.056,0,0,1-1,.132,1.667,1.667,0,0,1-1.4-.559,2.63,2.63,0,0,1-.437-1.645V-7.687H21.07v-.766h1.555v-2.164ZM30.523.156a3.67,3.67,0,0,1-1.949-.531,3.62,3.62,0,0,1-1.355-1.48,4.616,4.616,0,0,1-.484-2.129V-4.32a4.974,4.974,0,0,1,.473-2.2,3.76,3.76,0,0,1,1.316-1.535,3.248,3.248,0,0,1,1.828-.559,3.052,3.052,0,0,1,2.441,1.051,4.262,4.262,0,0,1,.9,2.871v.523H27.664v.18a3.539,3.539,0,0,0,.824,2.395,2.622,2.622,0,0,0,2.074.957,3.046,3.046,0,0,0,1.324-.273,2.937,2.937,0,0,0,1.043-.875l.586.445A3.411,3.411,0,0,1,30.523.156Zm-.172-7.969a2.337,2.337,0,0,0-1.777.773A3.573,3.573,0,0,0,27.7-4.961h5.07v-.1a3.1,3.1,0,0,0-.7-1.984A2.155,2.155,0,0,0,30.352-7.812ZM40.578-2.148a1.332,1.332,0,0,0-.559-1.117,4.308,4.308,0,0,0-1.684-.66,7.6,7.6,0,0,1-1.746-.547,2.326,2.326,0,0,1-.922-.754,1.881,1.881,0,0,1-.3-1.078A2.011,2.011,0,0,1,36.2-7.957a3.377,3.377,0,0,1,2.141-.652,3.475,3.475,0,0,1,2.27.7,2.244,2.244,0,0,1,.855,1.824h-.937A1.514,1.514,0,0,0,39.91-7.32a2.444,2.444,0,0,0-1.566-.492,2.445,2.445,0,0,0-1.48.41A1.266,1.266,0,0,0,36.3-6.336a1.153,1.153,0,0,0,.465.98,4.917,4.917,0,0,0,1.7.637,7.968,7.968,0,0,1,1.844.617,2.388,2.388,0,0,1,.91.789,2.02,2.02,0,0,1,.3,1.117,2.025,2.025,0,0,1-.863,1.711A3.688,3.688,0,0,1,38.4.156,3.786,3.786,0,0,1,36-.559a2.2,2.2,0,0,1-.918-1.809h.938a1.626,1.626,0,0,0,.691,1.277A2.826,2.826,0,0,0,38.4-.633a2.657,2.657,0,0,0,1.578-.43A1.29,1.29,0,0,0,40.578-2.148ZM44.664,0h-.937V-8.453h.938Zm-1.1-10.895a.627.627,0,0,1,.172-.446.613.613,0,0,1,.469-.182.626.626,0,0,1,.473.182.619.619,0,0,1,.176.446.606.606,0,0,1-.176.443.633.633,0,0,1-.473.179.62.62,0,0,1-.469-.179A.613.613,0,0,1,43.563-10.895Zm8.7,8.746a1.332,1.332,0,0,0-.559-1.117,4.308,4.308,0,0,0-1.684-.66,7.6,7.6,0,0,1-1.746-.547,2.326,2.326,0,0,1-.922-.754,1.881,1.881,0,0,1-.3-1.078,2.011,2.011,0,0,1,.836-1.652,3.377,3.377,0,0,1,2.141-.652,3.475,3.475,0,0,1,2.27.7,2.244,2.244,0,0,1,.855,1.824h-.937A1.514,1.514,0,0,0,51.6-7.32a2.444,2.444,0,0,0-1.566-.492,2.445,2.445,0,0,0-1.48.41,1.266,1.266,0,0,0-.559,1.066,1.153,1.153,0,0,0,.465.98,4.917,4.917,0,0,0,1.7.637A7.968,7.968,0,0,1,52-4.1a2.388,2.388,0,0,1,.91.789A2.02,2.02,0,0,1,53.2-2.2,2.025,2.025,0,0,1,52.34-.484a3.688,3.688,0,0,1-2.254.641,3.786,3.786,0,0,1-2.395-.715,2.2,2.2,0,0,1-.918-1.809h.938A1.626,1.626,0,0,0,48.4-1.09a2.826,2.826,0,0,0,1.684.457,2.657,2.657,0,0,0,1.578-.43A1.29,1.29,0,0,0,52.266-2.148Z" transform="translate(-9245.064 -10343.422)" fill="#3c3c3b"/>
    <path id="Trazado_843409" data-name="Trazado 843409" d="M2.406-.812H8.023V0H1.438V-11.375h.969ZM9.133-4.352a4.974,4.974,0,0,1,.473-2.2,3.6,3.6,0,0,1,1.336-1.52A3.6,3.6,0,0,1,12.9-8.609a3.477,3.477,0,0,1,2.734,1.184A4.561,4.561,0,0,1,16.68-4.289v.2a5.018,5.018,0,0,1-.473,2.207A3.529,3.529,0,0,1,14.875-.375a3.652,3.652,0,0,1-1.961.531,3.48,3.48,0,0,1-2.73-1.184A4.55,4.55,0,0,1,9.133-4.164Zm.938.258a3.836,3.836,0,0,0,.785,2.488,2.518,2.518,0,0,0,2.059.973,2.51,2.51,0,0,0,2.051-.973,3.962,3.962,0,0,0,.785-2.566v-.18a4.3,4.3,0,0,0-.359-1.773,2.888,2.888,0,0,0-1.008-1.246A2.575,2.575,0,0,0,12.9-7.812a2.5,2.5,0,0,0-2.039.98,3.968,3.968,0,0,0-.789,2.566Zm13.6,1.945a1.332,1.332,0,0,0-.559-1.117,4.308,4.308,0,0,0-1.684-.66,7.6,7.6,0,0,1-1.746-.547,2.326,2.326,0,0,1-.922-.754,1.881,1.881,0,0,1-.3-1.078A2.011,2.011,0,0,1,19.3-7.957a3.377,3.377,0,0,1,2.141-.652,3.475,3.475,0,0,1,2.27.7,2.244,2.244,0,0,1,.855,1.824h-.937A1.514,1.514,0,0,0,23-7.32a2.444,2.444,0,0,0-1.566-.492,2.445,2.445,0,0,0-1.48.41A1.266,1.266,0,0,0,19.4-6.336a1.153,1.153,0,0,0,.465.98,4.917,4.917,0,0,0,1.7.637A7.968,7.968,0,0,1,23.4-4.1a2.388,2.388,0,0,1,.91.789,2.02,2.02,0,0,1,.3,1.117,2.025,2.025,0,0,1-.863,1.711,3.688,3.688,0,0,1-2.254.641A3.786,3.786,0,0,1,19.1-.559a2.2,2.2,0,0,1-.918-1.809h.938a1.626,1.626,0,0,0,.691,1.277,2.826,2.826,0,0,0,1.684.457,2.657,2.657,0,0,0,1.578-.43A1.29,1.29,0,0,0,23.672-2.148ZM35.938,0a4.421,4.421,0,0,1-.18-1.18A3.26,3.26,0,0,1,34.5-.191a3.84,3.84,0,0,1-1.613.348,2.834,2.834,0,0,1-1.973-.68,2.214,2.214,0,0,1-.754-1.719A2.262,2.262,0,0,1,31.191-4.2a4.936,4.936,0,0,1,2.863-.719h1.7v-.961A1.852,1.852,0,0,0,35.191-7.3a2.309,2.309,0,0,0-1.629-.52,2.549,2.549,0,0,0-1.617.5,1.486,1.486,0,0,0-.641,1.2l-.937-.008A2.174,2.174,0,0,1,31.3-7.871a3.61,3.61,0,0,1,2.3-.738,3.293,3.293,0,0,1,2.23.707,2.537,2.537,0,0,1,.84,1.973v4a4.961,4.961,0,0,0,.258,1.836V0ZM33-.672a3.139,3.139,0,0,0,1.676-.453A2.666,2.666,0,0,0,35.75-2.336V-4.2H34.078a4.189,4.189,0,0,0-2.187.512A1.536,1.536,0,0,0,31.1-2.32a1.511,1.511,0,0,0,.527,1.18A1.987,1.987,0,0,0,33-.672ZM43.078-7.656a3.492,3.492,0,0,0-.633-.055,2.283,2.283,0,0,0-1.48.488A2.674,2.674,0,0,0,40.1-5.8V0h-.93V-8.453h.914L40.1-7.109a2.486,2.486,0,0,1,2.383-1.5,1.538,1.538,0,0,1,.617.1ZM43.887-4.3a5.088,5.088,0,0,1,.879-3.145,2.835,2.835,0,0,1,2.387-1.16,2.94,2.94,0,0,1,2.625,1.375l.047-1.219H50.7V-.172a3.58,3.58,0,0,1-.914,2.586,3.27,3.27,0,0,1-2.477.953,3.762,3.762,0,0,1-1.684-.395,3.27,3.27,0,0,1-1.262-1.051l.523-.562a2.962,2.962,0,0,0,2.359,1.219,2.4,2.4,0,0,0,1.828-.691,2.755,2.755,0,0,0,.68-1.918V-1.094A3.021,3.021,0,0,1,47.137.156a2.819,2.819,0,0,1-2.359-1.172,5.106,5.106,0,0,1-.891-3.164Zm.945.164a4.408,4.408,0,0,0,.648,2.551,2.1,2.1,0,0,0,1.828.934A2.5,2.5,0,0,0,49.754-2.2v-3.93a2.666,2.666,0,0,0-.945-1.238A2.549,2.549,0,0,0,47.325-7.8a2.122,2.122,0,0,0-1.836.926A4.711,4.711,0,0,0,44.833-4.141ZM58.575-1.07a3.038,3.038,0,0,1-2.7,1.227,2.615,2.615,0,0,1-2.055-.785,3.439,3.439,0,0,1-.719-2.324v-5.5h.93V-3.07q0,2.414,1.953,2.414a2.394,2.394,0,0,0,2.57-1.68V-8.453H59.5V0H58.59Zm4.2-7.383.031,1.375a3.129,3.129,0,0,1,1.172-1.148,3.214,3.214,0,0,1,1.563-.383,2.371,2.371,0,0,1,2.539,1.641,3.174,3.174,0,0,1,1.211-1.215,3.354,3.354,0,0,1,1.672-.426q2.719,0,2.773,2.969V0H72.8V-5.57a2.52,2.52,0,0,0-.488-1.68A1.988,1.988,0,0,0,70.747-7.8a2.49,2.49,0,0,0-1.7.652,2.305,2.305,0,0,0-.773,1.551V0h-.937V-5.641a2.316,2.316,0,0,0-.512-1.621A2.036,2.036,0,0,0,65.27-7.8a2.358,2.358,0,0,0-1.516.5,2.955,2.955,0,0,0-.937,1.5V0h-.937V-8.453ZM79.379.156A3.67,3.67,0,0,1,77.43-.375a3.62,3.62,0,0,1-1.355-1.48,4.616,4.616,0,0,1-.484-2.129V-4.32a4.974,4.974,0,0,1,.473-2.2,3.76,3.76,0,0,1,1.316-1.535,3.248,3.248,0,0,1,1.828-.559,3.052,3.052,0,0,1,2.441,1.051,4.262,4.262,0,0,1,.9,2.871v.523H76.52v.18a3.539,3.539,0,0,0,.824,2.395,2.622,2.622,0,0,0,2.074.957,3.046,3.046,0,0,0,1.324-.273,2.937,2.937,0,0,0,1.043-.875l.586.445A3.411,3.411,0,0,1,79.379.156Zm-.172-7.969a2.337,2.337,0,0,0-1.777.773,3.573,3.573,0,0,0-.879,2.078h5.07v-.1a3.1,3.1,0,0,0-.7-1.984A2.155,2.155,0,0,0,79.208-7.812Zm6.055-.641.031,1.445A3.357,3.357,0,0,1,86.481-8.2a3.086,3.086,0,0,1,1.57-.41,2.536,2.536,0,0,1,2.023.766,3.453,3.453,0,0,1,.672,2.3V0h-.93V-5.555a2.583,2.583,0,0,0-.48-1.687A1.882,1.882,0,0,0,87.825-7.8a2.365,2.365,0,0,0-1.535.543A3.181,3.181,0,0,0,85.3-5.789V0h-.93V-8.453Zm9.352-2.164v2.164h1.75v.766h-1.75v5.639A1.765,1.765,0,0,0,94.868-1a.984.984,0,0,0,.848.344,5.816,5.816,0,0,0,.758-.078l.039.759a3.056,3.056,0,0,1-1,.132,1.667,1.667,0,0,1-1.4-.559,2.63,2.63,0,0,1-.437-1.645V-7.687H92.122v-.766h1.555v-2.164Zm2.872,6.266a4.974,4.974,0,0,1,.473-2.2,3.6,3.6,0,0,1,1.336-1.52,3.6,3.6,0,0,1,1.957-.543,3.477,3.477,0,0,1,2.734,1.184,4.561,4.561,0,0,1,1.047,3.137v.2a5.018,5.018,0,0,1-.473,2.207,3.529,3.529,0,0,1-1.332,1.512,3.652,3.652,0,0,1-1.961.531,3.48,3.48,0,0,1-2.73-1.184,4.55,4.55,0,0,1-1.051-3.137Zm.938.258a3.836,3.836,0,0,0,.785,2.488,2.518,2.518,0,0,0,2.059.973,2.51,2.51,0,0,0,2.051-.973,3.962,3.962,0,0,0,.785-2.566v-.18a4.3,4.3,0,0,0-.359-1.773,2.888,2.888,0,0,0-1.008-1.246,2.575,2.575,0,0,0-1.484-.441,2.5,2.5,0,0,0-2.039.98,3.968,3.968,0,0,0-.789,2.566Zm13.6,1.945a1.332,1.332,0,0,0-.559-1.117,4.308,4.308,0,0,0-1.684-.66,7.6,7.6,0,0,1-1.746-.547,2.326,2.326,0,0,1-.922-.754,1.881,1.881,0,0,1-.3-1.078,2.011,2.011,0,0,1,.836-1.652,3.377,3.377,0,0,1,2.141-.652,3.475,3.475,0,0,1,2.27.7,2.244,2.244,0,0,1,.855,1.824h-.937a1.514,1.514,0,0,0-.621-1.234,2.444,2.444,0,0,0-1.566-.492,2.445,2.445,0,0,0-1.48.41,1.266,1.266,0,0,0-.559,1.066,1.153,1.153,0,0,0,.465.98,4.917,4.917,0,0,0,1.7.637,7.968,7.968,0,0,1,1.844.617,2.388,2.388,0,0,1,.91.789,2.02,2.02,0,0,1,.3,1.117A2.025,2.025,0,0,1,112.1-.484a3.688,3.688,0,0,1-2.254.641,3.786,3.786,0,0,1-2.395-.715,2.2,2.2,0,0,1-.918-1.809h.938a1.626,1.626,0,0,0,.691,1.277,2.826,2.826,0,0,0,1.684.457,2.657,2.657,0,0,0,1.578-.43A1.29,1.29,0,0,0,112.025-2.148Z" transform="translate(-9144.5 -10273.735)" fill="#3c3c3b"/>
    <path id="Trazado_843408" data-name="Trazado 843408" d="M2.406-.812H8.023V0H1.438V-11.375h.969ZM14.984,0a4.421,4.421,0,0,1-.18-1.18,3.26,3.26,0,0,1-1.254.988,3.84,3.84,0,0,1-1.613.348,2.834,2.834,0,0,1-1.973-.68,2.214,2.214,0,0,1-.754-1.719A2.262,2.262,0,0,1,10.238-4.2,4.936,4.936,0,0,1,13.1-4.914h1.7v-.961A1.852,1.852,0,0,0,14.238-7.3a2.309,2.309,0,0,0-1.629-.52,2.549,2.549,0,0,0-1.617.5,1.486,1.486,0,0,0-.641,1.2l-.937-.008a2.174,2.174,0,0,1,.938-1.746,3.61,3.61,0,0,1,2.3-.738,3.293,3.293,0,0,1,2.23.707,2.537,2.537,0,0,1,.84,1.973v4a4.961,4.961,0,0,0,.258,1.836V0ZM12.047-.672a3.139,3.139,0,0,0,1.676-.453A2.666,2.666,0,0,0,14.8-2.336V-4.2H13.125a4.189,4.189,0,0,0-2.187.512,1.536,1.536,0,0,0-.789,1.363,1.511,1.511,0,0,0,.527,1.18A1.987,1.987,0,0,0,12.047-.672ZM23.281-2.148a1.332,1.332,0,0,0-.559-1.117,4.308,4.308,0,0,0-1.684-.66,7.6,7.6,0,0,1-1.746-.547,2.326,2.326,0,0,1-.922-.754,1.881,1.881,0,0,1-.3-1.078,2.011,2.011,0,0,1,.836-1.652,3.377,3.377,0,0,1,2.141-.652,3.475,3.475,0,0,1,2.27.7,2.244,2.244,0,0,1,.855,1.824h-.937a1.514,1.514,0,0,0-.621-1.234,2.444,2.444,0,0,0-1.566-.492,2.445,2.445,0,0,0-1.48.41,1.266,1.266,0,0,0-.559,1.066,1.153,1.153,0,0,0,.465.98,4.917,4.917,0,0,0,1.7.637,7.968,7.968,0,0,1,1.844.617,2.388,2.388,0,0,1,.91.789,2.02,2.02,0,0,1,.3,1.117,2.025,2.025,0,0,1-.863,1.711A3.688,3.688,0,0,1,21.1.156a3.786,3.786,0,0,1-2.395-.715,2.2,2.2,0,0,1-.918-1.809h.938a1.626,1.626,0,0,0,.691,1.277A2.826,2.826,0,0,0,21.1-.633a2.657,2.657,0,0,0,1.578-.43A1.29,1.29,0,0,0,23.281-2.148ZM33.336-.633a2.469,2.469,0,0,0,1.637-.551,1.938,1.938,0,0,0,.715-1.426h.9A2.647,2.647,0,0,1,36.1-1.2a3.035,3.035,0,0,1-1.184,1,3.567,3.567,0,0,1-1.582.359A3.266,3.266,0,0,1,30.7-1a4.674,4.674,0,0,1-.973-3.109v-.281A5.284,5.284,0,0,1,30.164-6.6a3.371,3.371,0,0,1,1.254-1.484,3.461,3.461,0,0,1,1.91-.523,3.26,3.26,0,0,1,2.293.828,3.02,3.02,0,0,1,.965,2.18h-.9a2.3,2.3,0,0,0-.715-1.6,2.315,2.315,0,0,0-1.645-.609,2.331,2.331,0,0,0-1.965.914,4.136,4.136,0,0,0-.7,2.563v.273a4.043,4.043,0,0,0,.7,2.523A2.347,2.347,0,0,0,33.336-.633Zm4.6-3.719a4.974,4.974,0,0,1,.473-2.2,3.6,3.6,0,0,1,1.336-1.52A3.6,3.6,0,0,1,41.7-8.609a3.477,3.477,0,0,1,2.734,1.184,4.561,4.561,0,0,1,1.047,3.137v.2a5.018,5.018,0,0,1-.473,2.207A3.529,3.529,0,0,1,43.68-.375a3.652,3.652,0,0,1-1.961.531,3.48,3.48,0,0,1-2.73-1.184,4.55,4.55,0,0,1-1.051-3.137Zm.938.258a3.836,3.836,0,0,0,.785,2.488,2.518,2.518,0,0,0,2.059.973,2.51,2.51,0,0,0,2.051-.973,3.962,3.962,0,0,0,.785-2.566v-.18A4.3,4.3,0,0,0,44.2-6.125a2.888,2.888,0,0,0-1.008-1.246A2.575,2.575,0,0,0,41.7-7.812a2.5,2.5,0,0,0-2.039.98,3.968,3.968,0,0,0-.789,2.566ZM48.3-8.453l.031,1.445A3.357,3.357,0,0,1,49.523-8.2a3.086,3.086,0,0,1,1.57-.41,2.536,2.536,0,0,1,2.023.766,3.453,3.453,0,0,1,.672,2.3V0h-.93V-5.555a2.583,2.583,0,0,0-.48-1.687A1.882,1.882,0,0,0,50.867-7.8a2.365,2.365,0,0,0-1.535.543,3.181,3.181,0,0,0-.988,1.465V0h-.93V-8.453ZM59.328-.633a2.469,2.469,0,0,0,1.637-.551,1.938,1.938,0,0,0,.715-1.426h.9a2.647,2.647,0,0,1-.484,1.41,3.035,3.035,0,0,1-1.184,1,3.567,3.567,0,0,1-1.582.359A3.266,3.266,0,0,1,56.691-1a4.674,4.674,0,0,1-.973-3.109v-.281A5.284,5.284,0,0,1,56.156-6.6,3.371,3.371,0,0,1,57.41-8.086a3.461,3.461,0,0,1,1.91-.523,3.26,3.26,0,0,1,2.293.828,3.02,3.02,0,0,1,.965,2.18h-.9a2.3,2.3,0,0,0-.715-1.6,2.315,2.315,0,0,0-1.645-.609,2.331,2.331,0,0,0-1.965.914,4.136,4.136,0,0,0-.7,2.563v.273a4.043,4.043,0,0,0,.7,2.523A2.347,2.347,0,0,0,59.328-.633ZM65.492,0h-.937V-12h.938Zm7.977-1.07a3.038,3.038,0,0,1-2.7,1.227,2.615,2.615,0,0,1-2.055-.785A3.439,3.439,0,0,1,68-2.953v-5.5h.93V-3.07q0,2.414,1.953,2.414a2.394,2.394,0,0,0,2.57-1.68V-8.453h.938V0h-.906Zm8.414-1.078a1.332,1.332,0,0,0-.559-1.117,4.308,4.308,0,0,0-1.684-.66,7.6,7.6,0,0,1-1.746-.547,2.326,2.326,0,0,1-.922-.754,1.881,1.881,0,0,1-.3-1.078,2.011,2.011,0,0,1,.836-1.652,3.377,3.377,0,0,1,2.141-.652,3.475,3.475,0,0,1,2.27.7,2.244,2.244,0,0,1,.855,1.824h-.937a1.514,1.514,0,0,0-.621-1.234,2.444,2.444,0,0,0-1.566-.492,2.445,2.445,0,0,0-1.48.41,1.266,1.266,0,0,0-.559,1.066,1.153,1.153,0,0,0,.465.98,4.917,4.917,0,0,0,1.7.637,7.968,7.968,0,0,1,1.844.617,2.388,2.388,0,0,1,.91.789,2.02,2.02,0,0,1,.3,1.117,2.025,2.025,0,0,1-.863,1.711A3.688,3.688,0,0,1,79.7.156a3.786,3.786,0,0,1-2.395-.715,2.2,2.2,0,0,1-.918-1.809h.938A1.626,1.626,0,0,0,78.02-1.09,2.826,2.826,0,0,0,79.7-.633a2.657,2.657,0,0,0,1.578-.43A1.29,1.29,0,0,0,81.883-2.148ZM85.969,0h-.937V-8.453h.938Zm-1.1-10.895a.627.627,0,0,1,.172-.446.613.613,0,0,1,.469-.182.626.626,0,0,1,.473.182.619.619,0,0,1,.176.446.606.606,0,0,1-.176.443.633.633,0,0,1-.473.179.62.62,0,0,1-.469-.179A.613.613,0,0,1,84.867-10.895Zm3.125,6.543a4.974,4.974,0,0,1,.473-2.2A3.6,3.6,0,0,1,89.8-8.066a3.6,3.6,0,0,1,1.957-.543,3.477,3.477,0,0,1,2.734,1.184,4.561,4.561,0,0,1,1.047,3.137v.2a5.018,5.018,0,0,1-.473,2.207A3.529,3.529,0,0,1,93.734-.375a3.652,3.652,0,0,1-1.961.531,3.48,3.48,0,0,1-2.73-1.184,4.55,4.55,0,0,1-1.051-3.137Zm.938.258a3.836,3.836,0,0,0,.785,2.488,2.518,2.518,0,0,0,2.059.973,2.51,2.51,0,0,0,2.051-.973,3.962,3.962,0,0,0,.785-2.566v-.18a4.3,4.3,0,0,0-.359-1.773,2.888,2.888,0,0,0-1.008-1.246,2.575,2.575,0,0,0-1.484-.441,2.5,2.5,0,0,0-2.039.98,3.968,3.968,0,0,0-.789,2.566Zm9.43-4.359.031,1.445A3.357,3.357,0,0,1,99.578-8.2a3.086,3.086,0,0,1,1.57-.41,2.536,2.536,0,0,1,2.023.766,3.453,3.453,0,0,1,.672,2.3V0h-.93V-5.555a2.583,2.583,0,0,0-.48-1.687,1.882,1.882,0,0,0-1.512-.555,2.365,2.365,0,0,0-1.535.543A3.181,3.181,0,0,0,98.4-5.789V0h-.93V-8.453ZM109.531.156a3.67,3.67,0,0,1-1.949-.531,3.62,3.62,0,0,1-1.355-1.48,4.616,4.616,0,0,1-.484-2.129V-4.32a4.974,4.974,0,0,1,.473-2.2,3.76,3.76,0,0,1,1.316-1.535,3.248,3.248,0,0,1,1.828-.559A3.052,3.052,0,0,1,111.8-7.559a4.262,4.262,0,0,1,.9,2.871v.523h-6.031v.18A3.539,3.539,0,0,0,107.5-1.59a2.622,2.622,0,0,0,2.074.957,3.046,3.046,0,0,0,1.324-.273,2.937,2.937,0,0,0,1.043-.875l.586.445A3.411,3.411,0,0,1,109.531.156Zm-.172-7.969a2.337,2.337,0,0,0-1.777.773,3.573,3.573,0,0,0-.879,2.078h5.07v-.1a3.1,3.1,0,0,0-.7-1.984A2.155,2.155,0,0,0,109.359-7.812Zm10.227,5.664a1.332,1.332,0,0,0-.559-1.117,4.308,4.308,0,0,0-1.684-.66,7.6,7.6,0,0,1-1.746-.547,2.326,2.326,0,0,1-.922-.754,1.881,1.881,0,0,1-.3-1.078,2.011,2.011,0,0,1,.836-1.652,3.377,3.377,0,0,1,2.141-.652,3.475,3.475,0,0,1,2.27.7,2.244,2.244,0,0,1,.855,1.824h-.937a1.514,1.514,0,0,0-.621-1.234,2.444,2.444,0,0,0-1.566-.492,2.445,2.445,0,0,0-1.48.41,1.266,1.266,0,0,0-.559,1.066,1.153,1.153,0,0,0,.465.98,4.917,4.917,0,0,0,1.7.637,7.968,7.968,0,0,1,1.844.617,2.388,2.388,0,0,1,.91.789,2.02,2.02,0,0,1,.3,1.117,2.025,2.025,0,0,1-.863,1.711,3.688,3.688,0,0,1-2.254.641,3.786,3.786,0,0,1-2.395-.715,2.2,2.2,0,0,1-.918-1.809h.938a1.626,1.626,0,0,0,.691,1.277,2.826,2.826,0,0,0,1.684.457,2.657,2.657,0,0,0,1.578-.43A1.29,1.29,0,0,0,119.586-2.148Z" transform="translate(-9009.369 -10343.422)" fill="#3c3c3b"/>
  </g>
</svg>
