<svg xmlns="http://www.w3.org/2000/svg" xmlns:xlink="http://www.w3.org/1999/xlink" width="400" height="356" viewBox="0 0 400 356">
  <defs>
    <clipPath id="clip-path">
      <rect id="Rect치ngulo_381409" data-name="Rect치ngulo 381409" width="306.728" height="279.246" fill="none"/>
    </clipPath>
  </defs>
  <g id="Grupo_1083498" data-name="Grupo 1083498" transform="translate(-180 -3248)">
    <rect id="Rect치ngulo_381408" data-name="Rect치ngulo 381408" width="400" height="356" transform="translate(180 3248)" fill="#cdf5e2"/>
    <g id="Grupo_1083468" data-name="Grupo 1083468" transform="translate(233.605 3293.336)">
      <g id="Grupo_1083467" data-name="Grupo 1083467" clip-path="url(#clip-path)">
        <path id="Trazado_843338" data-name="Trazado 843338" d="M138.789,71.322q.128,29.167.258,58.332.077,4.559.157,9.121-.134,41.36-.269,82.722c-.028,8.906-.727,9.625-9.644,9.629q-61.115.023-122.232.031,0-100.55-.008-201.1L97.6,30.15c-.019,11.706.091,23.415-.118,35.118-.08,4.552,1.526,6.415,6.193,6.315,11.7-.254,23.408-.194,35.113-.26m-69.62,71.864q-21.337,0-42.674-.009c-3.872-.006-7.681.694-7.5,5.411.163,4.312,3.8,4.7,7.456,4.693q42.36-.1,84.72-.019c3.856.005,7.651-.446,7.456-5.324-.177-4.4-3.816-4.783-7.412-4.772-14.015.048-28.03.02-42.045.02m-.345,45.274q21.652,0,43.3.013c3.54.008,6.53-1.006,6.526-5.02,0-3.986-2.965-5.062-6.512-5.06q-42.99.026-85.981,0c-3.668,0-7.182.835-7.182,5.121,0,4.309,3.414,5.016,7.167,4.989,14.225-.1,28.451-.04,42.677-.044m.5-80.47q-21.339,0-42.68.006c-3.463,0-7.075.044-7.226,4.831-.15,4.748,3.258,5.206,6.848,5.207q42.681.009,85.36.023c3.717.005,7.1-.749,7.006-5.168s-3.615-4.933-7.255-4.919c-14.018.05-28.035.02-42.053.02M49.749,72.785c-7.738,0-15.479.088-23.215-.036-3.917-.064-7.69.451-7.538,5.214.136,4.235,3.781,4.9,7.412,4.9q23.842-.045,47.687,0c3.732.008,7.015-.86,6.872-5.3-.131-4.043-3.278-4.8-6.747-4.778-8.157.05-16.314.016-24.47.013" transform="translate(1.815 7.737)" fill="#ebeef0"/>
        <path id="Trazado_843339" data-name="Trazado 843339" d="M112.183,140.27q-.079-4.562-.158-9.121c7.278-1.108,14.617-.635,21.889-.339,5.446.221,7.108-1.216,7.052-6.884-.3-30.088-.145-60.182-.135-90.273,0-8.171,1.176-9.35,9.449-9.378,11.494-.039,22.989-.016,34.483-.021q.013,5.379.024,10.767c-9.612.008-19.226.141-28.835-.038-3.708-.07-5.144,1.032-5.126,4.95q.194,42.937-.005,85.874c-.019,3.9,1.3,5.041,5.064,4.963,9.608-.2,19.223-.048,28.836-.036q0,5.036,0,10.071c-9.618-.016-19.239.106-28.852-.116-3.791-.088-5.067,1.122-5.05,4.989q.2,42.964,0,85.927c-.018,3.889,1.3,5.05,5.064,4.97,9.613-.2,19.234-.06,28.852-.058l-.034,10.115q-17.258-.023-34.514-.048c-8.821-.018-9.353-.517-9.356-9.158-.014-29.911-.135-59.821.114-89.729.044-5.341-1.071-7.461-6.847-7.118-7.274.431-14.608-.16-21.917-.309" transform="translate(28.835 6.242)" fill="#a89ca8"/>
        <path id="Trazado_843340" data-name="Trazado 843340" d="M169.9,40.415q-.013-5.385-.025-10.766c.053-4.165.049-8.332.17-12.495.236-8.215,4.983-13.454,13.145-13.647q18.12-.43,36.256-.01c9.238.214,13.035,4.934,13.538,15.726-5.583,5.3-11.222,10.546-16.717,15.936-1.983,1.945-3.414,1.681-5.2-.194-3.458-3.621-7.073-7.093-10.6-10.645-2.692-2.7-5.729-4.993-9.076-1.48-2.983,3.13-1.128,6.077,1.494,8.658q7.808,7.688,15.5,15.494c3.277,3.336,6.411,3.376,9.735.084a108.363,108.363,0,0,1,14.571-12.729c.054,6.254.214,12.509.135,18.762-.1,7.962-4.66,13.131-12.611,13.354q-18.442.513-36.907-.009C174.652,66.2,170.2,61.048,170.033,52.3c-.075-3.96-.092-7.922-.135-11.882" transform="translate(43.726 0.847)" fill="#fd6670"/>
        <path id="Trazado_843341" data-name="Trazado 843341" d="M169.843,124.4q0-5.036,0-10.071c.053-4.386.021-8.773.176-13.155.293-8.271,5.194-13.092,13.472-13.152,11.07-.082,22.143-.031,33.214-.023,12.167.011,15.66,3.312,16.259,15.329-4.866,6.043-11.256,10.475-16.749,15.855-2.159,2.114-3.888,1.757-5.826-.238-3.483-3.585-7.093-7.048-10.591-10.62-2.405-2.457-5.007-4.171-8.06-1.305-3.013,2.829-1.77,5.535.777,8.05q8,7.9,15.91,15.907c3.281,3.327,6.362,3.176,9.759.054,4.737-4.353,9.669-8.494,14.518-12.726.035,6.469.169,12.939.083,19.405-.1,7.776-4.562,12.823-12.211,13-12.725.3-25.465.254-38.192.015-6.831-.128-12.018-5.649-12.345-12.559-.218-4.582-.138-9.178-.191-13.767" transform="translate(43.717 22.645)" fill="#fde078"/>
        <path id="Trazado_843342" data-name="Trazado 843342" d="M169.825,208.608l.034-10.115c.052-4.177.063-8.358.165-12.535.2-8.113,5.081-13.562,13.15-13.753q18.489-.441,37-.009c8.586.2,12.329,5.174,12.8,15.855-5.437,5.168-10.893,10.312-16.3,15.511-2.286,2.2-4.1,2-6.263-.37-3.521-3.855-7.371-7.406-11.041-11.127-2.324-2.356-4.85-3.576-7.615-.934-3.02,2.886-1.76,5.561.787,8.078,4.909,4.847,9.754,9.757,14.641,14.627,5.97,5.949,6.811,5.883,13.205-.067,3.961-3.687,7.362-8.039,12.284-10.619.048,6.483.25,12.97.1,19.449-.171,7.464-4.8,12.169-12.218,12.265-12.551.162-25.108.137-37.66.014-7.7-.074-12.427-4.729-12.841-12.472-.246-4.591-.166-9.2-.231-13.8" transform="translate(43.713 44.268)" fill="#6df3c2"/>
        <path id="Trazado_843343" data-name="Trazado 843343" d="M8.866,30.057l.008,201.1C1.452,231,.031,229.727.028,222.424q-.055-91.81,0-183.618c.005-7.312,1.408-8.57,8.84-8.749" transform="translate(0 7.737)" fill="#d0d0d5"/>
        <path id="Trazado_843344" data-name="Trazado 843344" d="M228.589,35.2a108.517,108.517,0,0,0-14.571,12.729c-3.323,3.292-6.458,3.252-9.734-.084q-7.678-7.818-15.5-15.494c-2.623-2.581-4.476-5.529-1.5-8.658,3.348-3.514,6.385-1.226,9.075,1.48,3.532,3.552,7.148,7.024,10.606,10.645,1.789,1.875,3.22,2.139,5.2.194,5.5-5.39,11.134-10.635,16.717-15.936q8.423-7.429,16.847-14.854A55.319,55.319,0,0,1,250.512,1.2c2.58-1.793,5.147-1.665,7.172.92,1.887,2.408,1.265,4.764-.809,6.677-6.889,6.352-13.879,12.6-20.77,18.947-2.592,2.389-5.016,4.959-7.517,7.448" transform="translate(47.815 0)" fill="#aa9aa6"/>
        <path id="Trazado_843345" data-name="Trazado 843345" d="M228.545,204.054c-4.923,2.58-8.323,6.932-12.284,10.619-6.394,5.95-7.236,6.015-13.207.067-4.886-4.87-9.732-9.78-14.64-14.627-2.548-2.516-3.807-5.192-.788-8.078,2.765-2.642,5.292-1.422,7.616.934,3.669,3.721,7.519,7.272,11.041,11.127,2.166,2.371,3.977,2.569,6.262.37,5.4-5.2,10.86-10.343,16.3-15.511,6.527-5.817,13.086-11.6,19.564-17.464,2.857-2.586,5.916-4.72,9.111-1.069,2.912,3.328.665,6.125-1.955,8.575-8.973,8.388-18.781,15.876-27.017,25.058" transform="translate(47.842 43.365)" fill="#a79da8"/>
        <path id="Trazado_843346" data-name="Trazado 843346" d="M228.577,119.29c-4.849,4.232-9.781,8.373-14.518,12.726-3.4,3.122-6.477,3.273-9.759-.054q-7.9-8.008-15.91-15.907c-2.548-2.515-3.79-5.221-.776-8.05,3.052-2.866,5.653-1.152,8.059,1.305,3.5,3.572,7.108,7.035,10.591,10.62,1.938,1.994,3.667,2.351,5.826.238,5.492-5.379,11.882-9.812,16.749-15.856,7.4-4.794,12.925-11.74,19.76-17.2,2.755-2.2,5.3-4.67,8.574-1.328s1.073,6.022-1.563,8.461q-13.518,12.52-27.033,25.042" transform="translate(47.838 21.661)" fill="#a89ca7"/>
        <path id="Trazado_843347" data-name="Trazado 843347" d="M120.277,71.312c-11.705.065-23.413.006-35.113.26-4.666.1-6.273-1.763-6.191-6.315.207-11.7.1-23.412.117-35.118a4.31,4.31,0,0,1,3.983,1.386c11.851,13.779,25.977,25.427,37.2,39.787" transform="translate(20.327 7.747)" fill="#a89da8"/>
        <path id="Trazado_843348" data-name="Trazado 843348" d="M66.724,120.031c14.015,0,28.03.028,42.046-.019,3.6-.013,7.236.371,7.411,4.772.2,4.876-3.6,5.328-7.456,5.324q-42.36-.049-84.719.019c-3.651.008-7.293-.382-7.456-4.694-.18-4.717,3.63-5.417,7.5-5.411q21.337.034,42.674.009" transform="translate(4.258 30.891)" fill="#a79ba7"/>
        <path id="Trazado_843349" data-name="Trazado 843349" d="M66.383,158.1c-14.226,0-28.451-.058-42.676.041-3.755.026-7.168-.679-7.168-4.988,0-4.286,3.514-5.123,7.182-5.121q42.99.021,85.981,0c3.548,0,6.51,1.074,6.512,5.06,0,4.012-2.986,5.027-6.526,5.02q-21.652-.045-43.3-.011" transform="translate(4.257 38.103)" fill="#a89ca8"/>
        <path id="Trazado_843350" data-name="Trazado 843350" d="M66.8,92.041c14.018,0,28.035.03,42.053-.02,3.64-.014,7.157.488,7.255,4.919s-3.289,5.173-7.006,5.168q-42.679-.051-85.36-.023c-3.59,0-7-.459-6.848-5.207.151-4.787,3.763-4.827,7.226-4.831q21.339-.023,42.68-.006" transform="translate(4.346 23.686)" fill="#a79ba7"/>
        <path id="Trazado_843351" data-name="Trazado 843351" d="M47.3,64.048c8.157,0,16.314.036,24.47-.015,3.469-.021,6.616.737,6.747,4.779.143,4.445-3.14,5.311-6.872,5.3q-23.844-.041-47.687,0c-3.631.008-7.277-.659-7.412-4.9-.152-4.763,3.621-5.277,7.538-5.214,7.737.126,15.477.038,23.215.039" transform="translate(4.259 16.475)" fill="#a79ba7"/>
      </g>
    </g>
  </g>
</svg>
