<svg xmlns="http://www.w3.org/2000/svg" xmlns:xlink="http://www.w3.org/1999/xlink" width="146" height="146" viewBox="0 0 146 146">
  <defs>
    <clipPath id="clip-path">
      <rect id="Rectángulo_381410" data-name="Rectángulo 381410" width="72.184" height="86.37" fill="#0a5e6b"/>
    </clipPath>
  </defs>
  <g id="Grupo_1083499" data-name="Grupo 1083499" transform="translate(-307 -3795.844)">
    <g id="Grupo_1071465" data-name="Grupo 1071465" transform="translate(38 2837.844)">
      <path id="Trazado_608971" data-name="Trazado 608971" d="M73,0A73,73,0,1,1,0,73,73,73,0,0,1,73,0Z" transform="translate(269 958)" fill="#e6ff48"/>
    </g>
    <g id="Grupo_1083471" data-name="Grupo 1083471" transform="translate(343.908 3825.659)">
      <g id="Grupo_1083470" data-name="Grupo 1083470" clip-path="url(#clip-path)">
        <path id="Trazado_843352" data-name="Trazado 843352" d="M0,46.058Q0,27.482,0,8.906c0-2.883.277-3.15,3.19-3.155,1.4,0,2.8-.029,4.2.006.925.023,1.368-.352,1.3-1.288-.008-.111,0-.224,0-.336-.152-4.6.342-4.1,4.176-4.1C24.868.026,36.86.056,48.851,0a5.138,5.138,0,0,1,4.012,1.622q8.8,8.916,17.71,17.714a5,5,0,0,1,1.61,3.855q-.063,25.721-.028,51.442c0,2.854-.415,3.251-3.342,3.26-1.233,0-2.468.054-3.7-.012s-1.742.372-1.678,1.64c.077,1.509.033,3.025.011,4.538-.029,1.9-.392,2.28-2.267,2.3-2.409.024-4.819.007-7.229.007q-25.385,0-50.769,0C.261,86.363,0,86.109,0,83.21Q0,64.635,0,46.058m11.94-7.232c0,11.208.024,22.417-.028,33.625-.007,1.532.467,2.046,2.014,2.043q26.48-.062,52.96,0c1.474,0,2.069-.359,2.063-1.977q-.083-23.621-.005-47.243c0-1.5-.513-1.924-1.951-1.9-4.987.066-9.975.034-14.963.02-2.766-.008-3.258-.5-3.262-3.213-.006-4.932-.075-9.865.037-14.794.04-1.753-.565-2.159-2.22-2.15-10.816.066-21.632.032-32.448.035-2.189,0-2.2.009-2.2,2.272q0,16.644,0,33.289m-8.7,7.055q0,17.475,0,34.95c0,2.293,0,2.3,2.32,2.3q26.129,0,52.257,0c.392,0,.785-.017,1.176-.006.845.023,1.233-.388,1.217-1.224-.011-.56.007-1.12.006-1.68C60.211,77.9,60.21,77.9,57.9,77.9c-6.722,0-13.447.154-20.163-.038-9.524-.272-19.079.883-28.574-.61-1.064-9.415-.306-18.86-.422-28.289-.151-12.209-.026-24.42-.043-36.63C8.69,8.6,9.173,9.094,5.41,8.955c-1.666-.062-2.219.4-2.208,2.145.075,11.594.039,23.188.039,34.782M52,5.962c0,4.141.045,8.155-.025,12.167-.024,1.374.419,1.882,1.816,1.855,3.632-.069,7.267-.016,10.9-.033.4,0,.906.19,1.112-.191L52,5.962" transform="translate(0 0)" fill="#0a5e6b"/>
        <path id="Trazado_843353" data-name="Trazado 843353" d="M95.86,106.324q7.64,0,15.279,0a13.323,13.323,0,0,1,1.677.049c.954.122,1.766.488,1.793,1.624.028,1.153-.779,1.523-1.737,1.657a12.131,12.131,0,0,1-1.674.09q-15.363.008-30.726,0a11.277,11.277,0,0,1-1.835-.142,1.552,1.552,0,0,1-1.478-1.556c-.022-1.035.676-1.486,1.58-1.637a10.309,10.309,0,0,1,1.673-.083q7.723-.009,15.447,0" transform="translate(-51.213 -70.57)" fill="#0a5e6b"/>
        <path id="Trazado_843354" data-name="Trazado 843354" d="M95.88,160.889q-7.722,0-15.444,0a10.463,10.463,0,0,1-1.673-.076c-.9-.148-1.615-.586-1.6-1.621a1.573,1.573,0,0,1,1.473-1.567,9.187,9.187,0,0,1,1.666-.151q15.612-.013,31.225,0a9.53,9.53,0,0,1,1.828.2,1.426,1.426,0,0,1,1.262,1.533,1.486,1.486,0,0,1-1.294,1.528,8.8,8.8,0,0,1-1.831.151q-7.806.016-15.612.006" transform="translate(-51.216 -104.516)" fill="#0a5e6b"/>
        <path id="Trazado_843355" data-name="Trazado 843355" d="M95.845,186.454q-7.886,0-15.772,0a9.633,9.633,0,0,1-1.671-.084,1.431,1.431,0,0,1-1.247-1.382,1.393,1.393,0,0,1,1.024-1.548,6.393,6.393,0,0,1,1.814-.207q15.856-.017,31.712-.008c.335,0,.672-.006,1.006.019,1.06.078,1.9.481,1.882,1.689-.014,1.264-.917,1.521-1.97,1.521q-8.389,0-16.779,0" transform="translate(-51.207 -121.612)" fill="#0a5e6b"/>
        <path id="Trazado_843356" data-name="Trazado 843356" d="M96.068,81.1q7.816,0,15.631,0a9.838,9.838,0,0,1,1.674.083,1.421,1.421,0,0,1,1.259,1.37,1.449,1.449,0,0,1-1.149,1.633,6.361,6.361,0,0,1-1.664.142q-15.883.011-31.766.005c-.28,0-.561,0-.84-.009-1.05-.038-1.974-.378-2.006-1.569-.036-1.312.922-1.653,2.055-1.653q8.4,0,16.807,0" transform="translate(-51.244 -53.831)" fill="#0a5e6b"/>
        <path id="Trazado_843357" data-name="Trazado 843357" d="M95.9,132.151q7.984,0,15.968.006a6.54,6.54,0,0,1,1.663.145,1.536,1.536,0,0,1-.042,2.963,7.005,7.005,0,0,1-1.668.122q-15.884.009-31.768,0-.42,0-.84-.006c-1.059-.016-1.975-.35-2-1.55-.032-1.306.927-1.674,2.052-1.675q8.32-.012,16.64,0Z" transform="translate(-51.246 -87.713)" fill="#0a5e6b"/>
        <path id="Trazado_843358" data-name="Trazado 843358" d="M57.085,38.222c1.285,0,2.57-.028,3.854.009a1.893,1.893,0,0,1,2.073,2.1c0,2.569.014,5.139-.01,7.708a1.906,1.906,0,0,1-2.1,2.085q-3.854.043-7.708,0a1.92,1.92,0,0,1-2.084-2.113c-.031-2.569-.036-5.139,0-7.708a1.923,1.923,0,0,1,2.12-2.076c1.285-.021,2.569,0,3.854,0m2.7,5.985c0-2.761,0-2.761-2.494-2.762-2.966,0-2.966,0-2.966,2.625,0,2.844,0,2.844,2.578,2.844,2.882,0,2.882,0,2.882-2.707" transform="translate(-33.906 -25.363)" fill="#0a5e6b"/>
        <path id="Trazado_843359" data-name="Trazado 843359" d="M54.456,160.914c-.335,0-.671.024-1,0-1.039-.089-1.93-.5-1.966-1.649-.038-1.192.894-1.6,1.909-1.685a11.584,11.584,0,0,1,2.333.033c.969.113,1.765.592,1.721,1.686-.043,1.073-.844,1.5-1.823,1.6a11.6,11.6,0,0,1-1.17.006v.013" transform="translate(-34.173 -104.56)" fill="#0a5e6b"/>
        <path id="Trazado_843360" data-name="Trazado 843360" d="M54.513,106.287a11.483,11.483,0,0,1,1.167.064c.964.148,1.75.593,1.759,1.67.008,1-.732,1.488-1.631,1.586a12.981,12.981,0,0,1-2.658.015,1.618,1.618,0,0,1-1.677-1.552c-.027-1.08.74-1.554,1.707-1.712a11.547,11.547,0,0,1,1.333-.071" transform="translate(-34.164 -70.547)" fill="#0a5e6b"/>
        <path id="Trazado_843361" data-name="Trazado 843361" d="M54.457,135.392c-1.122-.04-2.8.252-2.8-1.571-.008-1.927,1.725-1.617,3.029-1.669.111,0,.222,0,.334,0,1.224-.006,2.558.063,2.534,1.67-.022,1.486-1.289,1.587-2.463,1.571-.167,0-.334,0-.632,0" transform="translate(-34.285 -87.713)" fill="#0a5e6b"/>
        <path id="Trazado_843362" data-name="Trazado 843362" d="M54.363,186.451c-1.042-.077-2.755.338-2.761-1.527-.007-1.893,1.7-1.663,3.02-1.7.277-.008.556,0,.833.011,1.106.053,2.074.435,2.058,1.686-.016,1.3-1.041,1.548-2.138,1.53-.277,0-.555,0-1.011,0" transform="translate(-34.25 -121.61)" fill="#0a5e6b"/>
        <path id="Trazado_843363" data-name="Trazado 843363" d="M54.739,81.1c1.092.063,2.793-.28,2.748,1.612-.043,1.781-1.681,1.6-2.969,1.623-.112,0-.224,0-.336,0-1.226-.009-2.6-.07-2.576-1.675.025-1.639,1.44-1.567,2.642-1.56h.492" transform="translate(-34.252 -53.827)" fill="#0a5e6b"/>
      </g>
    </g>
  </g>
</svg>
