<svg xmlns="http://www.w3.org/2000/svg" xmlns:xlink="http://www.w3.org/1999/xlink" width="146" height="146" viewBox="0 0 146 146">
  <defs>
    <clipPath id="clip-path">
      <rect id="Rectángulo_381412" data-name="Rectángulo 381412" width="98.154" height="98.103" fill="#0a5e6b"/>
    </clipPath>
  </defs>
  <g id="Grupo_1083501" data-name="Grupo 1083501" transform="translate(-1169 -3795.844)">
    <g id="Grupo_1072000" data-name="Grupo 1072000" transform="translate(900 2837.844)">
      <path id="Trazado_608971" data-name="Trazado 608971" d="M73,0A73,73,0,1,1,0,73,73,73,0,0,1,73,0Z" transform="translate(269 958)" fill="#e6ff48"/>
    </g>
    <g id="Grupo_1083475" data-name="Grupo 1083475" transform="translate(1192.923 3829.755)">
      <g id="Grupo_1083474" data-name="Grupo 1083474" clip-path="url(#clip-path)">
        <path id="Trazado_843377" data-name="Trazado 843377" d="M42.608.006q16.707,0,33.416,0c5.659.006,9.115,3.375,8.994,9.022a5.646,5.646,0,0,0,2.446,5.07c8.716,7.066,12.247,16.361,10.057,27.331C95.326,52.42,88.4,59.5,77.7,62.821c-2.3.715-3.151,2.629-1.789,4.733a7.193,7.193,0,0,1,1.1,4.148c-.023,6.429,0,12.857-.018,19.286a6.7,6.7,0,0,1-3.991,6.436,6.335,6.335,0,0,1-6.846-.746,6.5,6.5,0,0,1-2.7-5.44c-.033-6.874-.01-13.748-.018-20.622a3.844,3.844,0,0,1,.857-2.667c.973-1.1.684-2.388.682-3.64,0-.924-.738-1.115-1.418-1.279a28.019,28.019,0,0,1-11.894-6.222,3.479,3.479,0,0,0-2.431-.887c-4.137.019-8.274.032-12.411,0a4.89,4.89,0,0,0-3.439,1.348c-4.928,4.321-9.9,8.59-14.857,12.882-1.442,1.249-2.989,2.2-5.012,1.744a5.079,5.079,0,0,1-4.033-5.818c.349-2.646.743-5.288,1.2-7.917.266-1.526.1-2.265-1.806-2.3-4.447-.071-7.462-2.334-8.58-5.984a8.865,8.865,0,0,1-.3-2.642Q0,27.853.012,8.472A8.145,8.145,0,0,1,8.429.018C19.822-.016,31.215.007,42.608.006m-.076,3.68q-16.417,0-32.834,0c-4.494,0-6.021,1.549-6.023,6.106q-.005,17.371,0,34.743c0,6.509.535,7.078,7.055,7.5,3.043.2,4.379,1.945,3.873,5.019-.455,2.759-.918,5.517-1.3,8.287-.123.9-.464,1.993.563,2.619,1.1.671,1.783-.3,2.467-.886,4.979-4.259,9.955-8.523,14.878-12.847a8.652,8.652,0,0,1,5.929-2.2c2.8-.008,5.6-.042,8.4.011,1.373.027,1.735-.236.912-1.552a27.51,27.51,0,0,1-4.093-15.626A27.883,27.883,0,0,1,62.053,9.2a27.569,27.569,0,0,1,17.608.5c1.4.519,1.8.236,1.74-1.234C81.281,5.546,79.34,3.7,76.13,3.694q-16.8-.023-33.6-.007M70.1,60.049a24.167,24.167,0,1,0-24.04-24.366A24.013,24.013,0,0,0,70.1,60.049M67.125,81.491h.012c0,3.174-.057,6.349.021,9.522a3.139,3.139,0,0,0,3,3.317c1.655.039,2.937-1.242,3.144-3.185a16.292,16.292,0,0,0,.035-1.713c0-4.888.049-9.777-.012-14.664-.06-4.8,1.01-4.268-4.549-4.318-1.233-.011-1.682.493-1.663,1.709.049,3.11.016,6.221.016,9.332" transform="translate(0 0)" fill="#0a5e6b"/>
        <path id="Trazado_843378" data-name="Trazado 843378" d="M38.333,38c.125-.353.255-.78.425-1.189q3.7-8.9,7.414-17.786c.4-.95.787-1.926,2.063-1.952s1.716.911,2.117,1.872q3.75,8.979,7.5,17.958c.519,1.238.705,2.462-.771,3.064-1.511.616-2.411-.486-2.656-1.7-.825-4.082-3.316-5.012-7.157-4.638-3.763.367-3-.192-4.482,3.151a18.274,18.274,0,0,1-1.232,2.57,1.586,1.586,0,0,1-2.175.594A1.831,1.831,0,0,1,38.333,38m9.974-7.984c2.629.009,2.63.008,1.642-2.4-.336-.819-.662-1.644-1.034-2.447-.123-.266-.347-.626-.579-.672-.465-.093-.583.389-.725.725C47.1,26.446,46.6,27.679,46.1,28.908c-.284.692-.132,1.109.691,1.109h1.519" transform="translate(-23.688 -10.552)" fill="#0a5e6b"/>
        <path id="Trazado_843379" data-name="Trazado 843379" d="M43.185,105.722q-5.148,0-10.3,0c-1.32,0-2.76-.028-2.808-1.785s1.349-1.894,2.7-1.894l20.975,0c1.222,0,2.426.188,2.524,1.69.106,1.626-1.073,1.98-2.414,1.982q-5.339.009-10.678,0" transform="translate(-18.59 -63.069)" fill="#0a5e6b"/>
        <path id="Trazado_843380" data-name="Trazado 843380" d="M63.685,88.7c-1.97,0-3.941.006-5.912,0-1.315-.007-2.329-.545-2.267-1.975.059-1.354,1.136-1.693,2.331-1.692q5.912,0,11.823,0c1.257,0,2.384.313,2.347,1.846-.036,1.5-1.155,1.817-2.41,1.822-1.97.008-3.941,0-5.912,0" transform="translate(-34.304 -52.554)" fill="#0a5e6b"/>
        <path id="Trazado_843381" data-name="Trazado 843381" d="M36.482,122.737c-1.519,0-3.038.03-4.555-.013-1.061-.03-1.867-.5-1.912-1.679a1.726,1.726,0,0,1,1.885-1.92q4.744-.082,9.49,0a1.689,1.689,0,0,1,1.826,1.783c0,1.249-.83,1.792-1.988,1.819-1.581.036-3.164.009-4.746.006" transform="translate(-18.549 -73.601)" fill="#0a5e6b"/>
        <path id="Trazado_843382" data-name="Trazado 843382" d="M33.517,84.958a13,13,0,0,1,1.708.115,1.674,1.674,0,0,1,1.49,1.715,1.6,1.6,0,0,1-1.437,1.748,19.2,19.2,0,0,1-3.421.079,1.727,1.727,0,0,1-1.849-1.782c-.018-1.285.828-1.763,1.982-1.829.507-.029,1.017,0,1.526,0,0-.014,0-.027,0-.041" transform="translate(-18.547 -52.509)" fill="#0a5e6b"/>
        <path id="Trazado_843383" data-name="Trazado 843383" d="M128.011,59.345a21.336,21.336,0,1,1,21.353,21.58,21.276,21.276,0,0,1-21.353-21.58m21.383,17.712A17.5,17.5,0,0,0,167,59.333a17.658,17.658,0,1,0-35.315.127,17.425,17.425,0,0,0,17.709,17.6" transform="translate(-79.118 -23.516)" fill="#0a5e6b"/>
        <path id="Trazado_843384" data-name="Trazado 843384" d="M160.161,86.922a2.44,2.44,0,0,1-1.734-1.069q-2.183-2.9-4.355-5.8c-.743-1-.9-2.051.212-2.839s2.045-.287,2.791.69c.656.86,1.377,1.681,1.941,2.6.841,1.366,1.46,1.2,2.347-.007,3.543-4.82,7.155-9.589,10.744-14.374.42-.56.827-1.134,1.3-1.648a1.729,1.729,0,0,1,2.4-.372,1.752,1.752,0,0,1,.487,2.525,7.329,7.329,0,0,1-.634.952q-6.7,8.937-13.4,17.87c-.541.721-1.078,1.439-2.1,1.475" transform="translate(-94.861 -39.412)" fill="#0a5e6b"/>
      </g>
    </g>
  </g>
</svg>
